<?xml version="1.0" encoding="UTF-8"?>
<svg id="Capa_2" data-name="Capa 2" xmlns="http://www.w3.org/2000/svg" viewBox="0 0 232.2 598.77">
  <defs>
    <style>
      .cls-1 {
        fill: none;
        stroke: #903;
        stroke-miterlimit: 10;
        stroke-width: 8px;
      }
    </style>
  </defs>
  <g id="Capa_2-2" data-name="Capa 2">
    <g>
      <g>
        <path class="cls-1" d="M36.7,289.3l-23.3-2-.8,162c0,2,.8,4,2.2,5.4l40.9,42.6c6,4.5,13.2,6.9,20.6,6.9h79.5c7.4,0,14.7-2.4,20.6-6.9l40.9-42.6c1.4-1.5,2.2-3.4,2.2-5.4l-.6-162-23.6,2c-52.7,4.5-105.8,4.5-158.6,0Z"/>
        <path class="cls-1" d="M195.4,236.7l23.4-2-.6-167.8c0-36.6,1.4-62.9-41.1-62.9H55.5C13,4,14.4,30.4,14.4,66.9l-.8,167.9,23.1,2c52.8,4.5,105.9,4.5,158.7-.1Z"/>
        <path class="cls-1" d="M219,287.2l6-.5c1.8-.2,3.2-1.8,3.2-3.9v-44.8c0-2.3-1.7-4-3.7-3.9l-5.7.5"/>
        <path class="cls-1" d="M13.6,234.7l-5.9-.5c-2-.2-3.7,1.6-3.7,3.9v44.8c0,2,1.4,3.7,3.2,3.9l6.2.5"/>
      </g>
      <path class="cls-1" d="M159.2,521.4v-17.2h-86.2v17.2l-8.6,8.6v17.2l17.2,8.6v34.5l2.1.5c21.3,5.3,43.5,5.3,64.8,0l2.1-.5v-34.5l17.2-8.6v-17.2l-8.6-8.6Z"/>
      <path class="cls-1" d="M81.6,555.9l1.7.4c21.5,5.4,44,5.4,65.5,0l1.7-.4"/>
      <path class="cls-1" d="M64.3,530l4.1,1.4c30.9,10.3,64.3,10.3,95.2,0l4.1-1.4"/>
    </g>
  </g>
</svg>