<?xml version="1.0" encoding="UTF-8"?>
<svg id="Capa_2" data-name="Capa 2" xmlns="http://www.w3.org/2000/svg" viewBox="0 0 121.4 563.43">
  <defs>
    <style>
      .cls-1 {
        fill: none;
        stroke: #903;
        stroke-miterlimit: 10;
        stroke-width: 8px;
      }

      .cls-2 {
        fill: #903;
      }
    </style>
  </defs>
  <g id="Capa_2-2" data-name="Capa 2">
    <g>
      <path class="cls-1" d="M89.1,559.33v-47.2c0-6,2.8-11.6,7.6-15.2l20.7-15.6V41.33c0-8.6-3.6-16.8-9.9-22.7h0c-7.9-7.4-17.9-12.2-28.6-13.5-12.1-1.5-24.3-1.5-36.4,0-10.7,1.3-20.7,6.1-28.6,13.5h0c-6.3,5.9-9.9,14.1-9.9,22.7v440.1l20.7,15.6c4.8,3.6,7.6,9.2,7.6,15.2v47.2h56.8v-.1Z"/>
      <circle class="cls-2" cx="60.8" cy="155.43" r="42.5"/>
      <circle class="cls-2" cx="60.8" cy="63.33" r="28.3"/>
    </g>
  </g>
</svg>