<svg width="41" height="80" viewBox="0 0 41 80" fill="none" xmlns="http://www.w3.org/2000/svg">
<g clip-path="url(#clip0_17_10878)">
<path d="M30.7032 0H10.1936C4.57267 0 0 4.57127 0 10.1905V69.8095C0 75.4287 4.57267 80 10.1936 80H30.7014C36.3224 80 40.8951 75.4287 40.8951 69.8095V10.1905C40.8951 4.57127 36.3224 0 30.7014 0H30.7032ZM30.7032 76.9423H10.1936C6.25213 76.9423 3.05684 73.748 3.05684 69.8077V10.1905C3.05684 6.25022 6.25213 3.0559 10.1936 3.0559H30.7014C34.6429 3.0559 37.8382 6.25022 37.8382 10.1905V16.0956H3.05863V63.9044H37.8382V69.8095C37.8382 73.7498 34.6429 76.9441 30.7014 76.9441L30.7032 76.9423Z" fill="#00D1FF"/>
<path d="M15.0145 11.1057H25.8825C26.7276 11.1057 27.4109 10.4208 27.4109 9.57776C27.4109 8.73469 26.7258 8.0498 25.8825 8.0498H15.0145C14.1694 8.0498 13.4861 8.73469 13.4861 9.57776C13.4861 10.4208 14.1712 11.1057 15.0145 11.1057Z" fill="#00D1FF"/>
<path d="M22.7532 72.7278C24.0263 71.4551 24.0263 69.3916 22.7532 68.1189C21.4801 66.8461 19.416 66.8461 18.1428 68.1189C16.8697 69.3916 16.8697 71.4551 18.1428 72.7278C19.416 74.0006 21.4801 74.0006 22.7532 72.7278Z" fill="#00D1FF"/>
</g>
<defs>
<clipPath id="clip0_17_10878">
<rect width="40.8969" height="80" fill="white"/>
</clipPath>
</defs>
</svg>
