<svg width="115" height="80" viewBox="0 0 115 80" fill="none" xmlns="http://www.w3.org/2000/svg">
<g clip-path="url(#clip0_17_10882)">
<path d="M97.3901 5.21799C101.712 5.21799 105.216 8.72119 105.216 13.0434V63.9135H9.56467V13.0434C9.56467 8.72119 13.0679 5.21799 17.3901 5.21799H97.3901ZM97.3901 0H17.3901C10.1997 0 4.34668 5.84992 4.34668 13.0434V69.1284H110.434V13.0434C110.434 5.84992 104.584 0 97.3901 0Z" fill="#00D1FF"/>
<path d="M103.044 61.7387H11.7397V13.4792C11.7397 10.1171 14.4638 7.39307 17.8259 7.39307H96.9547C100.317 7.39307 103.041 10.1171 103.041 13.4792V61.7387H103.044Z" fill="#00D1FF"/>
<path d="M109.566 69.8127C109.566 72.5582 107.342 74.7822 104.596 74.7822H10.1875C7.442 74.7822 5.21799 72.5582 5.21799 69.8127H109.566ZM114.784 64.5947H0V69.8127C0 72.5337 1.05832 75.0921 2.98171 77.0154C4.9051 78.9388 7.46348 80.0002 10.1844 80.0002H104.596C110.213 80.0002 114.784 75.4295 114.784 69.8127V64.5947Z" fill="#00D1FF"/>
</g>
<defs>
<clipPath id="clip0_17_10882">
<rect width="114.78" height="80" fill="white"/>
</clipPath>
</defs>
</svg>
