<svg width="141" height="80" viewBox="0 0 141 80" fill="none" xmlns="http://www.w3.org/2000/svg">
<g clip-path="url(#clip0_17_10886)">
<path d="M96.782 4.68353V34.3404H43.7075V4.68353H96.782ZM98.3431 0H42.1463C40.4227 0 39.0239 1.39873 39.0239 3.12235V35.9043C39.0239 37.6279 40.4227 39.0267 42.1463 39.0267H98.3404C100.064 39.0267 101.463 37.6279 101.463 35.9043V3.12235C101.463 1.39873 100.064 0 98.3404 0H98.3431Z" fill="#00D1FF"/>
<path d="M38.487 51.5131V67.5131H4.68353V51.5131H38.487ZM43.1705 46.8296H0V72.1967H43.1678V46.8296H43.1705Z" fill="#00D1FF"/>
<path d="M26.5373 16.3911V42.1463H12.4867V16.3911H26.5345M31.2181 11.7075H7.80591V46.8299H31.2208V11.7075H31.2181Z" fill="#00D1FF"/>
<path d="M97.3711 51.5131V67.5131H43.1181V51.5131H97.3683M102.052 46.8296H38.4346V72.1967H102.052V46.8296Z" fill="#00D1FF"/>
<path d="M135.806 51.5131V67.5131H102.002V51.5131H135.806ZM140.489 46.8296H97.3215V72.1967H140.489V46.8296Z" fill="#00D1FF"/>
<path d="M19.5134 39.0238C21.6682 39.0238 23.4149 37.277 23.4149 35.1223C23.4149 32.9675 21.6682 31.2207 19.5134 31.2207C17.3586 31.2207 15.6118 32.9675 15.6118 35.1223C15.6118 37.277 17.3586 39.0238 19.5134 39.0238Z" fill="#00D1FF"/>
<path d="M19.5134 25.3672C20.5916 25.3672 21.4656 24.4932 21.4656 23.4151C21.4656 22.3369 20.5916 21.4629 19.5134 21.4629C18.4353 21.4629 17.5613 22.3369 17.5613 23.4151C17.5613 24.4932 18.4353 25.3672 19.5134 25.3672Z" fill="#00D1FF"/>
<path d="M128 16.3911V42.1463H113.952V16.3911H128ZM132.683 11.7075H109.269V46.8299H132.683V11.7075Z" fill="#00D1FF"/>
<path d="M120.976 39.0238C123.131 39.0238 124.878 37.277 124.878 35.1223C124.878 32.9675 123.131 31.2207 120.976 31.2207C118.821 31.2207 117.074 32.9675 117.074 35.1223C117.074 37.277 118.821 39.0238 120.976 39.0238Z" fill="#00D1FF"/>
<path d="M120.976 25.3672C122.054 25.3672 122.928 24.4932 122.928 23.4151C122.928 22.3369 122.054 21.4629 120.976 21.4629C119.898 21.4629 119.024 22.3369 119.024 23.4151C119.024 24.4932 119.898 25.3672 120.976 25.3672Z" fill="#00D1FF"/>
<path d="M25.758 72.1968H21.0745V80.0027H25.758V72.1968Z" fill="#00D1FF"/>
<path d="M119.415 72.1968H114.731V80.0027H119.415V72.1968Z" fill="#00D1FF"/>
</g>
<defs>
<clipPath id="clip0_17_10886">
<rect width="140.489" height="80" fill="white"/>
</clipPath>
</defs>
</svg>
