<svg width="100" height="80" viewBox="0 0 100 80" fill="none" xmlns="http://www.w3.org/2000/svg">
<g clip-path="url(#clip0_16_10868)">
<path d="M99.27 33.2856H0.0161133L8.7605 22.271H90.5122L99.27 33.2856Z" fill="#00D1FF"/>
<path d="M13.1465 19.9866L25.498 2.28467H73.7618L86.1241 19.9866H13.1465Z" fill="black"/>
<path d="M72.5657 4.57197L81.733 17.6992H17.5321L26.694 4.57197H72.5657ZM74.9578 0H24.3018L8.76074 22.2712H90.5124L74.9578 0Z" fill="#00D1FF"/>
<path d="M20.6191 79.9837H15.3256C11.9528 79.9837 9.21582 77.2556 9.21582 73.8878V63.3569H26.7261V73.8878C26.7261 77.2529 23.9918 79.9837 20.6164 79.9837H20.6191Z" fill="#00D1FF"/>
<path d="M83.9443 79.9998H78.6508C75.278 79.9998 72.541 77.2717 72.541 73.9039V63.373H90.0513V73.9039C90.0513 77.269 87.317 79.9998 83.9416 79.9998H83.9443Z" fill="#00D1FF"/>
<path d="M70.9087 33.2856V43.4053C70.9087 49.2969 66.1216 54.0732 60.2166 54.0732H39.0534C33.1483 54.0732 28.3613 49.2969 28.3613 43.4053V33.2856H0.0161133V50.286C0.0161133 56.1777 4.80317 60.954 10.7082 60.954H88.5807C94.4857 60.954 99.2727 56.1777 99.2727 50.286V33.2856H70.9087Z" fill="#00D1FF"/>
<path d="M14.3261 45.7654H0V33.2832H24.8189V35.2964C24.8189 41.0779 20.1207 45.7654 14.3261 45.7654Z" fill="black"/>
<path d="M99.27 45.7654H84.9439C79.1493 45.7654 74.4512 41.0779 74.4512 35.2964V33.2832H99.27V45.7654Z" fill="black"/>
</g>
<defs>
<clipPath id="clip0_16_10868">
<rect width="99.2701" height="80" fill="white"/>
</clipPath>
</defs>
</svg>
