<?xml version="1.0" encoding="UTF-8"?>
<svg id="Capa_2" data-name="Capa 2" xmlns="http://www.w3.org/2000/svg" viewBox="0 0 118.3 679.26">
  <defs>
    <style>
      .cls-1 {
        stroke-miterlimit: 10;
      }

      .cls-1, .cls-2 {
        fill: none;
        stroke: #903;
        stroke-linecap: round;
        stroke-width: 8px;
      }

      .cls-2 {
        stroke-linejoin: round;
      }
    </style>
  </defs>
  <g id="Capa_2-2" data-name="Capa 2">
    <g>
      <path class="cls-1" d="M19.8,221.16h0l-.2,449.8,2.8.6c23.8,4.9,48.2,4.9,72,.2l3.9-.8.2-449.8h0"/>
      <path class="cls-2" d="M98.5,221.16h7.9c4.3,0,7.9-3.8,7.9-8.5h0V42.76c0-4.5-3.4-8.2-7.6-8.2h-8.2l-.2-25.9-7.3-1.5c-21.5-4.3-43.6-4.2-65.1.2l-6.3,1.3.2,25.9h-8.2c-4.2,0-7.6,3.7-7.6,8.2v169.9h0c0,4.7,3.5,8.5,7.9,8.5h7.9"/>
      <path class="cls-1" d="M26.5,60.56h0c21-5.2,42.9-5.2,63.8,0h0"/>
      <path class="cls-1" d="M26.5,88.36h0c21-5.2,42.9-5.2,63.8,0h0"/>
      <path class="cls-1" d="M26.5,116.36h0c21-5.2,42.9-5.2,63.8,0h0"/>
      <path class="cls-1" d="M26.5,144.26h0c21-5.2,42.9-5.2,63.8,0h0"/>
      <path class="cls-1" d="M26.5,172.26h0c21-5.2,42.9-5.2,63.8,0h0"/>
      <path class="cls-1" d="M26.5,200.06h0c21-5.2,42.9-5.2,63.8,0h0"/>
    </g>
  </g>
</svg>