<?xml version="1.0" encoding="utf-8"?>
<!-- Generator: Adobe Illustrator 23.0.1, SVG Export Plug-In . SVG Version: 6.00 Build 0)  -->
<svg version="1.1" id="Capa_1" xmlns="http://www.w3.org/2000/svg" xmlns:xlink="http://www.w3.org/1999/xlink" x="0px" y="0px"
	 width="170px" height="66px" viewBox="0 0 170 66" style="enable-background:new 0 0 170 66;" xml:space="preserve">
<style type="text/css">
	.st0{fill:none;stroke:#FFFFFF;stroke-width:1.4173;stroke-linecap:round;stroke-miterlimit:10;}
	.st1{fill:none;stroke:#FFFFFF;stroke-width:1.4173;stroke-linecap:round;stroke-linejoin:round;stroke-miterlimit:10;}
</style>
<path class="st0" d="M49,14.8c0,0,0.1-3.7-3-4.2c0,0-4.2-1.4-12.6,2.1s-14.9,9.9-14.9,9.9S11.7,29.4,10,33s-1.8,5.9-1.3,7.8
	c0.3,1.3,1.8,4.5,5.4,1.3c4.5-4,5.8-5.5,5.8-5.5s4-4.3,5.7-5.6c0,0,4.5-3.4,7.9-3.9"/>
<path class="st0" d="M19.3,37.2c0,0-0.8,3.1,1.1,3.4c1.9,0.1,7.1-4.2,10-10.3"/>
<path class="st1" d="M26.6,36.4c0,0-0.1,2.2,0.6,2.4c0.9,0.6,8-5.7,8.6-6.4c0,0-2.9,14.1,7.6,4.1c0,0,13.3-14.9,16-23.4
	S43.6,28.8,44.5,38.3c0.6,0.4,3.6-4.2,3.6-4.2s1.5,4.5,3.9,3.9s3.6-3.3,2.5-5.7s-3.5-2.2-5.2-1.6"/>
<path class="st1" d="M71.1,27.9c0,0-13.3,0.8-13.3,3.7c0,1.9,11.1,3.9,11,6.7C68.7,40.8,25,47,25,47S-1.2,52.3,1,58.6"/>
<path class="st1" d="M79.2,13.5c0,0,5.3-4.5,15.4,0s0.9,9,0.9,9S72.8,35.9,73.1,38.3c0,0-1.5,3,2.1,2.8s54.1-4.5,95.4,18.7"/>
<path class="st1" d="M88,8.4c0,0-11.8,31-9.7,36"/>
<path class="st1" d="M86,33c0,0,10.2-5.1,9.2,0.3c-0.3,1.8-2.7,3.9-6.1,4.1c-1.4,0.1-5.4-2.1,1.9-5.3"/>
<path class="st1" d="M98.3,33c-0.2,0.2-4.9,2.7-1.9,3.9c5.7,2.3,16.5-14.6,13.7-15.9c0,0-2.9-1-6.8,5.7s0.3,10.7,0.3,10.7"/>
<path class="st1" d="M111.1,30.5c0,0-8.7,3.6-6.7,6c1.2,1.4,5-1.4,7.5-5.4c0,0-0.3,12.6-0.8,15c-0.5,2.5-0.7,5.7-4.2,5.7
	c-3.6,0-5.6-4.6-4.9-7.9c1-4.6,8.1-5.8,8.6-5.7"/>
<path class="st1" d="M140.7,34.5c0,0-3.8,4.4-5.1,3.6c-1.6-1-0.5-2.9-0.3-2.9c0.6,0.1-2.4,2.5-3.5,2.2c-1.8-0.5-0.4-2.5-0.4-2.5
	s-3,2.9-4.4,2.7c-2.7-0.4-1.2-3.5-0.5-3.1c0.8,0.5-1,2.8-3.3,1.8c-3-1.3-1-4.4-0.3-4.1c0.9,0.4-3.3,5-5.1,4.9
	c-4.2-0.2,1.8-6.2,1.2-3.7c-1.1,4.2-6.3,4.1-6.2,1.9c0.1-1.7,2.1-4,5.1-3.4"/>
<path class="st1" d="M141.7,35.4c-1.2-0.4-4.8,3.5-2.5,4.3c0.7,0.2,1.2,0,5.1-2.6c0,0-2.3,4.1,4.4,2.5"/>
<line class="st1" x1="157.1" y1="43.2" x2="157.5" y2="43.4"/>
</svg>
