<svg id="Capa_1" data-name="Capa 1" xmlns="http://www.w3.org/2000/svg" viewBox="0 0 300 140"><defs><style>.cls-1{fill:#4d4d4d;}</style></defs><title>logo_sony</title><g id="g10"><g id="g12"><path id="path14" class="cls-1" d="M77,60.08c.35-1.08.72-2.85-.29-3.86a3,3,0,0,0-2.2-.79c-2.4,0-4,1.2-4.43,3.28-.49,2.57,2,3.83,4.77,5.24,3.5,1.83,7.39,4.23,6.73,9.08-.88,6.21-5.29,8.41-13.32,8.41-2.86,0-6.51-1.24-7.42-2.85s-1.32-3.65-.46-6.85h6.77c-.38,1-.76,3.64.13,4.61a3.67,3.67,0,0,0,2.9.93,4.11,4.11,0,0,0,4.38-3.49c.48-2.43-2.14-4-4.87-5.55-3.46-1.93-7.33-4-6.41-8.71,1.07-5.42,5.13-8.12,12.42-8.12,3.58,0,5.91.79,7.18,2.28s1.39,3.55.6,6.4H77"/><path id="path16" class="cls-1" d="M112.66,80.86,115.16,67a3.65,3.65,0,0,0-.27-2.87,2,2,0,0,0-1.62-.62c-2.14,0-2.73,1.65-3.06,3.43l-2.54,13.88H102l3.63-20h5.6L110.76,63h.42a7,7,0,0,1,5.64-2.52,4.83,4.83,0,0,1,3.78,1.45,3.2,3.2,0,0,1,.62,2.74l-3,16.21h-5.61"/><path id="path18" class="cls-1" d="M129.16,75.22l.28,0,6-14.38h5.37L127.53,88.6H121.6l3.61-7.38-2.16-20.4h5.62Z"/><path id="path20" class="cls-1" d="M169.1,58.2h-.46l-9.85,22.51H153L151.52,58.2h-.43l-4,22.51h-5.82l5.14-28.78h9.87l1.22,19.85h.39l8.54-19.85H176l-5.15,28.78h-5.79Z"/><path id="path22" class="cls-1" d="M185.43,78.77l-.34,0a6.66,6.66,0,0,1-5.51,2.49,4.85,4.85,0,0,1-3.76-1.45,3.32,3.32,0,0,1-.64-2.76l2.94-16.25h5.68l-2.56,13.95a3.56,3.56,0,0,0,.26,2.8,2,2,0,0,0,1.63.6c2.15,0,2.73-1.6,3.05-3.33l2.52-14h5.69l-3,16.18a33,33,0,0,0-.43,3.86h-5.85l.3-2.09"/><path id="path24" class="cls-1" d="M206,66.43a2.63,2.63,0,0,0-.13-2.68,2,2,0,0,0-1.59-.51,2.6,2.6,0,0,0-2.67,2.35c-.27,1.49,1.49,2.29,3.52,3.2,2.83,1.28,6,2.73,5.38,6.43s-4.3,6.06-9,6.06c-3.5,0-5.51-.58-6.53-1.86-.83-1.07-1-2.65-.48-4.85H200a4.07,4.07,0,0,0-.21,2.48c.33.75.95,1.12,2.21,1.12a2.77,2.77,0,0,0,2.81-2.27c.37-2.11-1.71-3-3.93-4-2.72-1.2-5.53-2.44-4.9-5.86.94-5.19,7.42-5.58,9.37-5.58,2.6,0,4.59.72,5.61,2a4.37,4.37,0,0,1,.6,3.93H206"/><path id="path26" class="cls-1" d="M222.67,52.08l-.85,4.55h-5.65l.88-4.55Zm-1.59,8.74-3.6,20h-5.6l3.55-20Z"/><path id="path28" class="cls-1" d="M234.16,67.79a4,4,0,0,0-.24-3.42,2.26,2.26,0,0,0-1.87-.68c-2.81,0-3.4,2.49-4.15,6.55-.81,4.51-.85,6.32-.12,7.18a2.08,2.08,0,0,0,1.74.63c2.46,0,3.68-2.83,3.72-4.45h5.63c-.61,4.76-4.19,7.68-10,7.68-2.92,0-4.89-.64-6-2-1.53-1.81-1.36-4.79-.65-8.66,1-5.37,2.5-10.19,10.51-10.19,3,0,5.09.69,6.24,2.06s1.36,2.91.94,5.27h-5.74"/><path id="path30" class="cls-1" d="M84,70.65c1-5.37,2.51-10.19,10.52-10.19,3,0,4.92.64,6.06,2,1.56,1.88,1.25,5,.69,8.13C100.05,77.51,98,81.28,90.69,81.28c-2.92,0-4.9-.64-6-2-1.54-1.81-1.37-4.79-.67-8.66m11.68-.33c.52-2.86.82-5,0-5.95a2.2,2.2,0,0,0-1.82-.68c-2.81,0-3.39,2.49-4.14,6.55-.82,4.51-.85,6.32-.11,7.18a2,2,0,0,0,1.73.63c2.39,0,3.21-1.45,4.35-7.73"/></g></g></svg>