<svg id="Capa_1" data-name="Capa 1" xmlns="http://www.w3.org/2000/svg" viewBox="0 0 300 140"><defs><style>.cls-1{fill:#4d4d4d;}</style></defs><title>logo_dream</title><g id="layer1"><path id="path8975" class="cls-1" d="M140.18,83.79l.63-1.21h0l.63,1.21Zm8.11-2.51h-4.84c0,.31-.07.69-.11,1.14h.42a1.4,1.4,0,0,1,.38-.62,2,2,0,0,1,1.1-.18h.17V84.4c0,.68-.09.74-.83.77-.47,0-.65-.07-1-.62s-.81-1.4-1.25-2.16l-.68-1.21-.69.1-2,3.29c-.32.53-.47.56-1,.6-.69,0-.71-.07-.74-.77l-.1-2.13c0-.67,0-.69.77-.73v-.26h-2.43L134,83.81l-1.75-2.53h-2.34v.26c.78,0,.86.1.79.91l-.11,1.29a8.91,8.91,0,0,1-.15,1.11c-.08.24-.26.31-.75.32v.27h2.48v-.27c-.65,0-.87-.08-.9-.32a4.12,4.12,0,0,1,0-1.06l.08-1.41h0l1.84,3h.54l1.94-3.22h0l0,2.25c0,.72,0,.74-.79.77v.27h5.4v-.27H140c-.45,0-.45-.09-.32-.37l.3-.62h1.64l.36.66c.13.24.12.3-.26.32l-.31,0v.26H148v-.26c-.85,0-.93-.07-.93-.77V81.61h.25a1.78,1.78,0,0,1,1,.17,1.18,1.18,0,0,1,.4.64l.46,0c-.05-.39-.08-.83-.11-1.12Zm-33.56,2.51.62-1.21h0l.64,1.21Zm3.42.76c-.38-.65-.81-1.4-1.24-2.16l-.69-1.21-.69.1-2,3.29c-.34.54-.48.57-1,.6v.27h2.33v-.27h-.29c-.46,0-.48-.09-.33-.37l.3-.62h1.64l.36.66c.14.24.12.3-.27.32l-.29,0v.26h3.14v-.26c-.49,0-.66-.07-1-.62m38.52.63c-1,0-1.65-.82-1.65-2s.63-1.67,1.41-1.67,1.58.7,1.58,2-.48,1.67-1.34,1.67m0-4c-2.4,0-3.47,1.2-3.47,2.23,0,1.18,1.32,2.12,3.34,2.12s3.37-.86,3.37-2.23-1.41-2.12-3.24-2.12m-33,.35c.66,0,.93.1,1,.32a8.73,8.73,0,0,1,.06,1.22v.86h0l-3.32-2.65h-2.21v.25a1.31,1.31,0,0,1,.76.2c.19.17.22.26.22.73v1.18a7.28,7.28,0,0,1-.08,1.21c-.06.22-.31.31-.74.32v.26h2.48v-.26c-.66,0-.93-.1-1-.32a7.28,7.28,0,0,1-.08-1.21V82.46h0l3.7,3h.87V83.07a7.34,7.34,0,0,1,.06-1.22c.06-.22.31-.3.82-.32.68,0,.75.08.75.77v2.1c0,.7-.07.74-.75.77v.26h3.23v-.26c-.69,0-.77-.07-.77-.77V82.3c0-.69.08-.73.77-.77v-.25h-5.78v.25ZM60.11,83.69h52.34v-.41H60.11v.41Zm104.45-2.16c.66,0,.93.1,1,.32a6.57,6.57,0,0,1,.08,1.22v.86h0l-3.34-2.65h-2.2v.25a1.25,1.25,0,0,1,.75.2c.19.17.22.26.22.73v1.18a6.27,6.27,0,0,1-.08,1.21c-.05.22-.32.31-.75.32v.26h2.49v-.26c-.66,0-.93-.1-1-.32a6,6,0,0,1-.09-1.21V82.46h0l3.69,3h.87V83.07a6.57,6.57,0,0,1,.08-1.22c.06-.22.31-.3.81-.32v-.25h-2.55v.25Zm22.78,2.16h52.35v-.41H187.34ZM70.61,65.06c0-.6,0-1.16.23-1.2a5.63,5.63,0,0,1,1.71-.17c3.37,0,7.68,1.44,7.68,6.6,0,4.24-3.44,6.52-6.85,6.52-1.9,0-2.77-.42-2.77-2.54Zm21.71,3c0-.72.09-.78,1.27-.78s2.77.58,2.77,2.32A2.47,2.47,0,0,1,94.8,71.9a4.82,4.82,0,0,1-2.09.31h-.39V68.08Zm28.25,2h.08l1.76,3.43h-3.56L120.57,70Zm64.89-3c2.4,0,4.41,2,4.41,5.6,0,3.25-1.32,4.74-3.71,4.74-2.74,0-4.63-2.37-4.63-5.62s1.78-4.72,3.93-4.72m14,1c0-.73.08-.77,1.26-.77s2.79.58,2.79,2.3A2.51,2.51,0,0,1,202,71.9a5.05,5.05,0,0,1-2.08.3h-.39V68.07Zm-112,1.47a4.54,4.54,0,0,0-.68-2.32c.86.16,1,.59,1,2.06v5.93c0,1.93-.23,2.05-2.21,2.17v.7h8.81v-.7c-1.91-.12-2.14-.24-2.14-2.17V73.06h.36a1.4,1.4,0,0,1,1.18.64,16.25,16.25,0,0,0,2.32,2.88c1.1,1,2,1.59,6,1.65h1.2l0-.16H115.8v0h3.47v-.69l-.82,0c-1.28-.1-1.28-.28-.92-1l.84-1.73h4.57l1,1.84c.36.64.31.83-.73.91l-.85.08v.69h5.14v0h6.89v-.7c-1.81-.1-2.43-.26-2.53-.92a13.84,13.84,0,0,1-.06-3l.2-4h0l5.13,8.37h1.51l5.37-9h.1l.1,6.31c0,2-.06,2.06-2.15,2.19v.7h8.74v-.7c-2-.13-2.08-.18-2.15-2.19l-.29-6c-.07-1.58,0-1.89,1.26-2l5.9,11.09h3.06l5.31-9.75H164l5.83,9.74h3.05c1.34-2.8,2.65-5.4,3.75-7.48a4.55,4.55,0,0,0-.32,1.64c0,3.3,3.66,5.94,9.29,5.94,5.31,0,9.35-2.37,9.43-6.13v3c0,1.93-.23,2.07-2.21,2.19v.69h8.81v-.69c-1.92-.12-2.14-.26-2.14-2.19V73.05h.35a1.37,1.37,0,0,1,1.18.63,18.28,18.28,0,0,0,2.31,2.9c1.12,1,2,1.58,6,1.63l1.19,0,0-.16h7.57v-.69c-2-.12-2.19-.26-2.19-2.19V72.32h0c2,2,4.68,4.6,5.73,5.75h6.42v-.43c.35.11.89.23,1.63.39a15.68,15.68,0,0,0,3,.3c4.33,0,7.08-1.61,7.08-3.82s-2.2-3-4.77-3.78l-.6-.17c-1.8-.53-2.88-1-2.88-1.94s1-1.56,2.43-1.56a3.93,3.93,0,0,1,3.78,2.46l1.23-.12c-.3-1.22-.5-2.1-.61-2.8-.35-.08-.8-.15-1.45-.25a14.31,14.31,0,0,0-2.55-.23c-4.38,0-6.67,1.66-6.67,3.68s2.59,2.86,4.87,3.54l.42.12c1.71.52,2.78,1.11,2.78,2.17s-1.11,1.77-2.57,1.77a5.86,5.86,0,0,1-5-3l-1.22.24c.29,1.08.61,2,.84,2.73-1-.1-1.55-.33-2.95-1.53-1.76-1.51-3.6-3.16-5.34-4.87,1.19-.88,2.58-1.8,4.08-2.73a7,7,0,0,1,3.91-1.11v-.7h-7.49v.7l1.06.06c.75.06.46.43.07.75-1.63,1.37-3.32,2.68-5.35,4.16V69.28c0-1.94.22-2.07,2-2.18v-.7h-8.7v.7c2,.1,2.18.24,2.18,2.18v5.91c0,1.81-.22,2-1.69,2.15a4.82,4.82,0,0,1-.84-.49c-.43-.37-1.06-1-2-1.92-.8-.83-1.83-2.06-2.22-2.56,2.06-.53,3.59-1.46,3.59-3.05A2.72,2.72,0,0,0,206.38,67a13.2,13.2,0,0,0-4.73-.6h-8.71v.7c1.89.1,2.11.24,2.11,2.18V72c-.08-3.49-4-5.85-9.05-5.85-4.65,0-7.52,1.65-8.84,3.63,1.24-2.3,2.07-3.81,2.17-4,1.35-2.12,1.71-2.19,3.94-2.38v-.94h-9.49v.94l1.5.1c1.71.12,1.83.36,1.32,1.72s-2,4.8-3.43,7.61h-.06l-6-10.22h-2.79l-5.17,10.22H159l-3.77-8.06c-.47-1-.35-1.15,1.12-1.27l1.27-.1v-.94H145.27v.94c1.81.15,2.52.25,3.59,2.22l.42.78h-5.5l-4.26,7.1-4.89-7.1h-6.55v.7c2.19.12,2.43.32,2.23,2.56l-.3,3.64a23.8,23.8,0,0,1-.46,3.15.73.73,0,0,1-.2.4,4.5,4.5,0,0,1-1-1.26c-1.06-1.83-2.27-3.95-3.46-6.09L123,66.12l-1.93.25-5.44,9a7.81,7.81,0,0,1-1.48,1.17,5.82,5.82,0,0,1-3,.53,7.52,7.52,0,0,1-2-.14c-.49-.16-.55-.61-.55-1.55V72.51h1.4c2.39,0,2.47.11,2.77,1.69h1.22V70h-1.22c-.3,1.38-.38,1.48-2.77,1.48h-1.4V68c0-.63.06-.63,1.12-.63h.48a5.77,5.77,0,0,1,2.84.41,2.89,2.89,0,0,1,1,1.67l1.22,0c-.13-1.35-.27-2.65-.31-3H101.89v.7c1.86.09,2.08.23,2.08,2.17v5.91c0,1.63-.14,2-1.47,2.12a5.46,5.46,0,0,1-.73-.46c-.44-.36-1-1-2-1.92-.8-.83-1.84-2.06-2.22-2.56,2.06-.53,3.59-1.45,3.59-3A2.67,2.67,0,0,0,99.18,67a12.63,12.63,0,0,0-4.72-.61H86.29a8.33,8.33,0,0,0-2.16-1.8c-2.65-1.55-6.72-2.13-11.58-2.13H61v.94c2.59.14,2.91.31,2.91,2.89v7.92c0,2.59-.32,2.77-3.22,2.91v.94H70.89c9.15,0,16.65-2.57,16.65-8.55m62,12c.69,0,.77.08.77.77v2.1c0,.7-.08.74-.77.77v.26h3.23v-.26c-.68,0-.77-.07-.77-.77V82.3c0-.69.09-.74.77-.77v-.26h-3.23ZM172,82.82l-.2-.07c-.61-.18-1-.36-1-.69s.33-.55.8-.55a1.33,1.33,0,0,1,1.28.88l.41,0c-.1-.44-.16-.75-.21-1l-.49-.1a5.6,5.6,0,0,0-.84-.07c-1.46,0-2.25.59-2.25,1.3s.87,1,1.64,1.27l.15,0c.58.18.93.39.93.77s-.37.65-.87.65a2,2,0,0,1-1.66-1.09l-.41.09c.11.41.24.76.31,1.06l.59.16a5.57,5.57,0,0,0,1,.1c1.43,0,2.36-.57,2.36-1.36s-.74-1.08-1.6-1.35m5.66.06a15.46,15.46,0,0,1,1.35-1,2.3,2.3,0,0,1,1.31-.41v-.24h-2.51v.24l.35,0c.26,0,.16.16,0,.28a22.52,22.52,0,0,1-1.78,1.47v-1c0-.69.07-.74.7-.79v-.24h-2.92v.24c.65,0,.72.1.72.79v2.11c0,.69-.07.73-.67.77v.26h2.91v-.26c-.67,0-.76-.08-.74-.77v-1h0c.68.7,1.56,1.63,1.92,2h2.15v-.26c-.39,0-.55-.08-1.06-.56s-1.21-1.12-1.77-1.73m5.79.82c1,0,1,.09,1,.53v.61c0,.29-.14.36-.38.36a1.83,1.83,0,0,1-1.91-1.93A1.72,1.72,0,0,1,184,81.51a1.59,1.59,0,0,1,1.67,1l.4,0c-.07-.61-.12-.94-.14-1.16a9.75,9.75,0,0,0-1.78-.17c-2,0-3.69.75-3.69,2.22,0,1.3,1.33,2.13,3.55,2.13a11.43,11.43,0,0,0,2.12-.25,1.7,1.7,0,0,1-.06-.59v-.45c0-.46,0-.47.51-.53v-.29h-3.12v.29Z"/></g></svg>