<svg id="Capa_1" data-name="Capa 1" xmlns="http://www.w3.org/2000/svg" viewBox="0 0 300 140"><defs><style>.cls-1{fill:#4d4d4d;}</style></defs><title>logo_paramount</title><g id="layer1"><g id="g4896"><polygon id="polygon5" class="cls-1" points="123.93 28.44 120.98 29.99 118.69 27.65 119.22 30.89 116.29 32.45 119.6 32.99 120.12 36.32 121.58 33.33 124.84 33.85 122.47 31.5 123.93 28.44"/><polygon id="polygon7" class="cls-1" points="132.4 25.42 130.58 22.68 130.49 25.98 127.32 26.92 130.46 28.1 130.35 31.49 132.35 28.83 135.46 29.98 133.57 27.17 135.57 24.5 132.4 25.42"/><polygon id="polygon9" class="cls-1" points="113.23 34.58 110.64 36.65 107.94 34.81 109.07 37.9 106.48 39.97 109.85 39.87 110.99 43.05 111.85 39.82 115.14 39.71 112.37 37.84 113.23 34.58"/><polygon id="polygon11" class="cls-1" points="144.51 23.15 143.26 20.11 142.53 23.33 139.25 23.65 142.11 25.41 141.36 28.71 143.83 26.48 146.66 28.21 145.34 25.11 147.8 22.84 144.51 23.15"/><polygon id="polygon13" class="cls-1" points="96.62 55.68 96.21 52.33 94.57 55.24 91.41 54.55 93.59 56.98 91.95 59.89 95.03 58.52 97.25 61.03 96.88 57.72 99.9 56.36 96.62 55.68"/><polygon id="polygon15" class="cls-1" points="91.51 66.54 90.48 63.34 89.42 66.52 86.17 66.44 88.78 68.41 87.72 71.57 90.48 69.65 93.16 71.69 92.15 68.5 94.87 66.58 91.51 66.54"/><polygon id="polygon17" class="cls-1" points="103.88 42.63 101.72 45.17 98.74 43.87 100.44 46.69 98.29 49.21 101.56 48.47 103.28 51.36 103.52 48.05 106.75 47.29 103.67 45.99 103.88 42.63"/><polygon id="polygon19" class="cls-1" points="208.3 54.06 205.12 54.7 203.5 51.79 203.06 55.14 199.79 55.8 202.79 57.18 202.38 60.49 204.64 58.01 207.7 59.37 206.08 56.44 208.3 54.06"/><polygon id="polygon21" class="cls-1" points="210.97 67.81 213.61 65.9 210.35 65.93 209.32 62.76 208.27 65.97 204.92 65.99 207.62 67.92 206.59 71.1 209.29 69.07 212.03 71.01 210.97 67.81"/><polygon id="polygon23" class="cls-1" points="199.13 46.22 200.86 43.44 197.85 44.69 195.72 42.14 195.94 45.53 192.84 46.81 196.04 47.58 196.27 50.91 198.03 48.02 201.28 48.77 199.13 46.22"/><polygon id="polygon25" class="cls-1" points="88.58 78.24 86.94 75.3 86.51 78.61 83.3 79.17 86.24 80.61 85.79 83.92 88.14 81.48 91.14 82.97 89.56 80.04 91.86 77.63 88.58 78.24"/><polygon id="polygon27" class="cls-1" points="214.3 87.12 212.12 89.72 209.03 88.44 210.8 91.26 208.67 93.81 211.92 92.97 213.73 95.81 213.96 92.45 217.11 91.67 214.07 90.46 214.3 87.12"/><polygon id="polygon29" class="cls-1" points="156.83 23.29 156.16 20.07 154.85 23.09 151.57 22.77 154.05 25.04 152.7 28.13 155.54 26.43 158 28.66 157.27 25.36 160.13 23.62 156.83 23.29"/><polygon id="polygon31" class="cls-1" points="168.88 25.81 168.84 22.52 166.98 25.23 163.84 24.27 165.85 27 163.92 29.79 167.02 28.65 169.01 31.33 168.92 27.94 172.07 26.79 168.88 25.81"/><polygon id="polygon33" class="cls-1" points="180.8 27.38 178.47 29.7 175.54 28.15 176.98 31.2 174.59 33.56 177.85 33.05 179.29 36.05 179.86 32.72 183.15 32.19 180.21 30.62 180.8 27.38"/><polygon id="polygon35" class="cls-1" points="191.6 34.45 188.87 36.27 186.29 34.17 187.15 37.47 184.34 39.3 187.64 39.45 188.48 42.67 189.68 39.52 193 39.62 190.41 37.52 191.6 34.45"/><polygon id="polygon37" class="cls-1" points="211.74 80.9 214.06 83.31 213.65 80 216.61 78.61 213.4 78.01 212.97 74.7 211.33 77.66 208.04 77.02 210.31 79.44 208.74 82.33 211.74 80.9"/><path id="path39" class="cls-1" d="M155,69.79c.22.24,2,1.87,2.35,2.19s2.31,1.94,3.38,1.94,1.84,1.17,2.41,1.76c1.25,1.17,6.5,6.72,8.21,7.9.76.53,1.49.44,2.06.87a5.31,5.31,0,0,0,1.21.84,3.25,3.25,0,0,1,2.76,1.46c.6.41.77.5.77.5A15,15,0,0,1,180.5,90c.58,1,13.82,18.77,18.57,25.14A56.77,56.77,0,0,0,206,88c0-31.16-25-56.43-55.8-56.43S94.38,56.82,94.39,88a59.45,59.45,0,0,0,6.19,25.9c7.19-6.74,26-28.27,28.19-30.78,3.28-3.81,4.71-1.38,6.47-3.51a8,8,0,0,1,1.91-1.85A17.28,17.28,0,0,0,139,76.1c.38-.3,1.27-1.46,1.94-2s2-1.47,3.37-2.64,3.66-3.91,6.17-3.91A5.4,5.4,0,0,1,155,69.79m-43,1.15c-4.63,0-5.28-3.24-5.26-4.59a3.39,3.39,0,0,1,.06-.53c.21-.68.56-1.27,1.25-1.27a1.28,1.28,0,0,1,1.27,1.27,1.2,1.2,0,0,1-.58,1,1.11,1.11,0,0,0-.6.92.58.58,0,0,0,0,.1c0,2.23,2.69,2.53,3.67,2.56H112a5.89,5.89,0,0,0,2.66-.59c5.4-2.66,5.46-13.6,11.75-17.63.21-.13.39-.08.44,0a.23.23,0,0,1,0,.23c-2.26,2.84-3.11,7.43-3.11,7.43a5.72,5.72,0,0,0,4.54-2.39,5.61,5.61,0,0,0,1.21-3.26c0-4-3.54-5.65-6.54-5.65-8.41,0-12,5.94-12,9.17s2,4.41,3.49,4.41c1.77,0,2.48-1.06,2.46-1.77a.59.59,0,0,0-.05-.28,1.89,1.89,0,0,1-.13-.75c0-.7.44-1.18.92-1.18.25,0,1.08,0,1.08,1.45s-2,2.88-4.21,2.88S109,61.3,109,57.76c0-7.21,8.76-9.92,13.92-9.67,5,.23,8.19,2.43,8.9,5a3.66,3.66,0,0,1,.16,1.14c0,5.42-8.52,6.36-8.52,6.36C122,68.11,116.05,71,112,70.94m40.67-6.43c.88-2,1.74-4,2.62-6a.31.31,0,0,0,0-.09.43.43,0,0,0-.09-.43c-.17-.08-.47.08-.69.2a4,4,0,0,0-1.21,1.33,11.52,11.52,0,0,0-.88,1.71l-1.48,3.28h-2c.21-.44.56-1.3.79-1.74,0,0-.05-.06-.05,0l-.41.34c-1,.82-2.14,1.68-3,1.5a.82.82,0,0,1-.68-.62,2,2,0,0,1,0-.54,2.61,2.61,0,0,1,.08-.5s0,0-.08,0a6,6,0,0,1-2.68,1.75,1.24,1.24,0,0,1-1.37-.71,1.86,1.86,0,0,1-.22-1,2.85,2.85,0,0,1,.31-1.28,10,10,0,0,1,.91-1.75,1.84,1.84,0,0,1-.95.11,1.11,1.11,0,0,1-.65-.41,1.24,1.24,0,0,1-.19-.75s0,0,0,0a.26.26,0,0,0-.15,0,4.16,4.16,0,0,0-1.14,1.68l-1.71,3.86h-2l.73-1.63a.08.08,0,0,0,0-.06s0,0,0,0c-1,.94-2.28,2-3.27,1.79a.87.87,0,0,1-.65-.62,2.8,2.8,0,0,1,0-1h-.08a9,9,0,0,1-.92.83,4.16,4.16,0,0,1-1.51.81l-.21,0h-.06a1.14,1.14,0,0,1-1.31-.7,1,1,0,0,0,0-.14,2.91,2.91,0,0,1,0-1.52c0-.19.1-.39.17-.58a8.65,8.65,0,0,1,4.05-4.53,4.86,4.86,0,0,1,4.41-.23h0c-.91,2.06-1.57,3.56-2.42,5.51a1.27,1.27,0,0,0-.08.36.28.28,0,0,0,.12.28.43.43,0,0,0,.44,0,7.25,7.25,0,0,0,2.75-3.23l1.32-3H141l-.5,1.1a.17.17,0,0,0,0,.08s0,0,0,0a14.09,14.09,0,0,1,1.94-1.53c.31-.15,1-.15.91.35s-.37.76-.55,1.18a1.59,1.59,0,0,0-.17.77c.08.2.3.3.58.07a4.23,4.23,0,0,0,.78-.55,6.72,6.72,0,0,1,1.72-1.22c1.32-.64,3.13-1,4.44-.19-.92,2.09-1.6,3.64-2.48,5.61,0,.08-.06.15-.08.19a.29.29,0,0,0,.14.32.63.63,0,0,0,.63,0,6.94,6.94,0,0,0,2.51-2.89c.49-1,.94-2.07,1.45-3.24h1.92L153.72,58l.07,0c.54-.49,1.85-1.57,2.85-1.35A1.19,1.19,0,0,1,157.4,58h0l.95-.68s0,0,0,0l.1,0,.18-.11h0l.26-.14a.47.47,0,0,0,.09,0c.17-.06.36-.14.56-.19s.2,0,.28,0A1,1,0,0,1,161,58.2c-.39.92-1.09,2.54-1.64,3.81l-.48,1.06a.1.1,0,0,0,0,0c-.06.14-.06.36,0,.42a.13.13,0,0,0,.12.06.75.75,0,0,0,.39-.13A7.47,7.47,0,0,0,161,61.79a5.42,5.42,0,0,1,.92-2.39,6.53,6.53,0,0,1,.89-1.09A4.06,4.06,0,0,1,167,56.79a1.73,1.73,0,0,1,1,1.29,2.46,2.46,0,0,1,.16.77,1.05,1.05,0,0,0,1.28-.05l0,0,.14-.08s0,0,0,0l.12-.1.06,0a3.19,3.19,0,0,0,.64-.78l.07-.18c.1-.22.19-.43.25-.61a.24.24,0,0,0,0-.08c.47,0,1.4,0,1.93,0l-2.38,5.53a1.49,1.49,0,0,0-.2.77c0,.18.19.21.39.2h.06a1.93,1.93,0,0,0,.79-.48,7.28,7.28,0,0,0,1-1.2,7.64,7.64,0,0,0,.5-.86c.25-.57.51-1.11.77-1.66.34-.71.68-1.42,1-2.23h1.93c-.76,1.86-1.64,3.83-2.28,5.28l-.17.39s0,0,0,.06,0,.07,0,.09l0,.17a.74.74,0,0,0,0,.29c.05.13.21.15.35.12l.12,0a9.75,9.75,0,0,0,2.8-3.12c.3-.7.56-1.28.82-1.86s.4-.89.63-1.38h2l-.48,1.16a5.49,5.49,0,0,1,2.49-1.38,1.12,1.12,0,0,1,1.24.41,1.45,1.45,0,0,1,0,1.19l-.16.36c-.07.15-.14.32-.2.46-.5,1.14-1,2.33-1.53,3.41-.1.3-.15.57.07.7a.15.15,0,0,0,.16,0A4.1,4.1,0,0,0,184.7,61c.4-.86.7-1.51,1-2.2.19-.4.37-.82.57-1.32h-1l.3-.6h1l1.48-3.22h2l-1.41,3.22h1.49l-.28.6h-1.5c-.35.76-.67,1.45-1,2.14-.46,1-.88,1.9-1.31,2.91a.54.54,0,0,0-.05.11,3.61,3.61,0,0,0-.38,2c.11.33.52.4.89.28a4.1,4.1,0,0,0,1-.57,6.89,6.89,0,0,0,1.54-1.84s0,0,0,0,.59,0,.55.08a6.44,6.44,0,0,1-1.71,2.13,3.67,3.67,0,0,1-2.35.93,1.63,1.63,0,0,1-1.28-.7,2.07,2.07,0,0,1-.29-.66A2.93,2.93,0,0,1,184,63c-.38.3-.76.62-1.15.9a4.21,4.21,0,0,1-1.67.82A1,1,0,0,1,180,64a2,2,0,0,1,0-.91c0-.11.05-.2.08-.29.11-.26.24-.52.35-.77.36-.76.69-1.52,1-2.3.21-.46.41-.93.61-1.43,0,0,0,0,0-.08A.44.44,0,0,0,182,58c-.1-.12-.44-.12-.73.11a6.92,6.92,0,0,0-1.07,1,11.11,11.11,0,0,0-1.57,2.72c-.41.93-.85,1.85-1.29,2.75h-1.95c.18-.46.45-1.06.68-1.6,0-.1.09-.2.13-.31s0,0,0,0c-.26.26-.53.53-.81.77s-.36.31-.54.46a4.74,4.74,0,0,1-1.5.79.87.87,0,0,1-1-.42,1.57,1.57,0,0,1-.08-1.41s0,0-.07,0a7.36,7.36,0,0,1-2,1.56,1.86,1.86,0,0,1-.46.19.66.66,0,0,1-.2.06c-.9.16-1.63-.41-1.38-1.56a3.39,3.39,0,0,1,.18-.57c.19-.45.74-1.69,1.35-3.16a2.16,2.16,0,0,1-1.44.1h0s0,0,0,0A7.73,7.73,0,0,1,166.46,63a5.91,5.91,0,0,1-1.82,1.4,2.77,2.77,0,0,1-2.86-.07,2.22,2.22,0,0,1-.73-1.65,7.37,7.37,0,0,1-2.21,1.82,2.57,2.57,0,0,1-1.27.18,1,1,0,0,1-.53-.46A1.49,1.49,0,0,1,157,63a2.14,2.14,0,0,1,.16-.42l.83-1.83c.37-.85.74-1.71,1.15-2.7.11-.24-.21-.41-.44-.29a3.8,3.8,0,0,0-1.18.92,2.44,2.44,0,0,0-.32.45,2.75,2.75,0,0,0-.57,1c-.65,1.5-1.33,2.89-1.92,4.34l-2,.09Z"/><path id="path41" class="cls-1" d="M184.58,111.44a32.77,32.77,0,0,0-2.31-4,31.4,31.4,0,0,0-2.12-3.37c-.79-.91-.14-1.16-1-2-.5-.47-2-1.85-2.37-2.14s-1.59-1.41-2.32-2-2.41-1.82-2.35-2.59a4.37,4.37,0,0,0-.92-2.78,30.9,30.9,0,0,0-3-3.51,38.1,38.1,0,0,1-3.38-3.58c-1.1-1.3-1.92-2.49-2.17-2.33s1.28,2.56,1.44,2.83a30.9,30.9,0,0,1,2.26,4.45c.17.87,3.7,6.85,4.46,8.72.44,1.07,2.85,2.54,3.86,4.24s1.18,1.26,1.57,1.27c.86,0,2.82,2.17,3.23,2.75s3.54,3.79,4.35,4.56c.36.34,2.85,4.44,3.19,4.14s-1-2.28-1.16-2.72a14.13,14.13,0,0,1-1.26-2"/><path id="path43" class="cls-1" d="M188,106.26c-.19-.36-1.75-2.59-2.3-3.33-1-1.27-.09-1.73-.58-2.51a33.47,33.47,0,0,0-2.91-3.37c-.75-.75-1.58-1.47-2.29-2.12-1.15-1-2-1.8-2.16-1.68s.47,1,.77,1.39.74,1,1.34,1.76c1,1.19.07,2.07,1,3,.16.17,2.75,3.09,3.37,3.64,1,.85,4.31,4.89,4.55,5.13.4.36,1.09,1.17,1.21,1s-.21-.58-.41-.91-1.39-1.66-1.61-2"/><polygon id="polygon45" class="cls-1" points="87.88 90.3 85.74 87.72 85.92 91.07 82.89 92.23 86.04 93.06 86.24 96.4 88.08 93.56 91.31 94.44 89.2 91.87 91 89.06 87.88 90.3"/><polygon id="polygon47" class="cls-1" points="209.77 104.85 211.03 107.98 211.86 104.74 215.12 104.57 212.38 102.8 213.22 99.58 210.59 101.68 207.79 99.84 209 102.95 206.44 105.05 209.77 104.85"/><polygon id="polygon49" class="cls-1" points="205.43 116.05 206.08 119.37 207.52 116.36 210.74 116.82 208.37 114.57 209.81 111.56 206.82 113.12 204.43 110.76 205.03 114.04 202.12 115.61 205.43 116.05"/><path id="path51" class="cls-1" d="M167.36,112.57c-.41-1.65,1.12-.49.14-3.13a9.51,9.51,0,0,0-1.79-2.92c-.48-.47-1-2.58-1.35-3.51s-.18-1-1-3.18c-.61-1.59,1.11-1,.13-3.56-.62-1.61-3.79-7.44-4.15-8-.19-.32-.8-1.33-1.55-2.53s-1.31-2.36-1.63-2.88c-.66-1.06-1.88-3.42-2.55-4.39s-1.52-3.13-1.88-2.76,1,3.54,1.6,5.6.15,2.88-.19,3.46-.35,1,0,2,1.45,6.32,1.78,7.46a5.23,5.23,0,0,0,.88,1.6,2.65,2.65,0,0,0,2.11,1.92c1.39.42,1.49,2.28,2.37,4s1.6,3,2.33,4.67,4.43,10.94,5.06,12.36c.22.52,2,.52,1.79,0a40.06,40.06,0,0,1-2.09-6.11"/><polygon id="polygon53" class="cls-1" points="92.7 116.93 94.12 119.93 94.78 116.61 98.09 116.2 95.19 114.6 95.81 111.33 93.41 113.65 90.44 112.08 91.86 115.1 89.48 117.34 92.7 116.93"/><path id="path55" class="cls-1" d="M148.05,57.18a.18.18,0,0,0,0-.06s-.06,0-.12,0a3.49,3.49,0,0,0-2.12,1.29,1.84,1.84,0,0,0-.23.27,9.84,9.84,0,0,0-2,3.67c-.11.62.15.88.52.88.73,0,1.76-1.33,2.34-2.48s.88-2,1.62-3.54"/><path id="path57" class="cls-1" d="M123.81,95.05c-.25-.21-3.39,3-5.45,5.27a23.5,23.5,0,0,0-1.47,1.86s-.92,1.52-1.38,2.14-1.72,2.44-2.24,3.22a17.93,17.93,0,0,1-1.6,2.59c-.45.57-.93,1.34-1.83,2.53-1.22,1.57-2.14,2.87-1.93,3a39,39,0,0,0,3.82-4.42c.8-1,1.66-2,2.37-2.94.36-.47,1.18-1.25,1.45-1.65a7.88,7.88,0,0,1,1.18-1.4c1.07-.88,1.66-1,2-1.43.15-.23,2.26-3.45,3-4.77s2.47-3.65,2-4"/><polygon id="polygon59" class="cls-1" points="87.74 103.4 84.98 105.13 88.24 105.34 89.04 108.57 90.32 105.42 93.66 105.66 91.11 103.55 92.36 100.46 89.53 102.27 86.93 100.15 87.74 103.4"/><path id="path61" class="cls-1" d="M137,87.79c-.87.86-2.63,3.95-3.31,4.3-1.49.74-2.17,2.53-2.62,3.24-.32.53-.72,1.37-1.45,2.43a29.85,29.85,0,0,0-1.61,2.78c-.27.48-.36.95.13.95s.1.79-.49,1.68a35.54,35.54,0,0,0-1.43,3.65,12.47,12.47,0,0,0-.37,2.26c-.12.33-1.71,3.77-2.14,4.53a3.63,3.63,0,0,0-.28.94c-.14.35,0,.44.28.21a29.45,29.45,0,0,1,2.55-3.25,2.24,2.24,0,0,0,1-1.94c.09-1.14.8-1.44,1.35-2.1a10.76,10.76,0,0,0,1.72-2.46c.36-.93.84-.21,1.71-1.63s2.82-4.93,3.25-5.61.14-1.67.08-2.46a10.25,10.25,0,0,1,.28-2.61,20.24,20.24,0,0,1,1-2.66,7.39,7.39,0,0,0,.76-2.19.23.23,0,0,0-.4-.06"/><path id="path63" class="cls-1" d="M134.91,57.13s-.06,0-.12,0a3.76,3.76,0,0,0-2.33,1.56,12.15,12.15,0,0,0-1.76,2.79,4.86,4.86,0,0,0-.27.88.76.76,0,0,0,.14.73.48.48,0,0,0,.36.15c.74,0,1.76-1.33,2.34-2.48s.9-2,1.62-3.55c0,0,0,0,0,0"/><path id="path65" class="cls-1" d="M162.65,64.33a.45.45,0,0,0,.31.07c.76-.1,1.62-1.67,2.4-3.14.87-1.67,1.58-3.76.83-4a.75.75,0,0,0-.66.08l-.15.1s0,0,0,0a5.6,5.6,0,0,0-.82.89,14.45,14.45,0,0,0-1.12,1.87,11.15,11.15,0,0,0-.94,2.27c-.25.89-.27,1.65.18,1.84"/></g></g></svg>