<svg id="Capa_1" data-name="Capa 1" xmlns="http://www.w3.org/2000/svg" xmlns:xlink="http://www.w3.org/1999/xlink" viewBox="0 0 300 140"><defs><style>.cls-1{fill:none;}.cls-2,.cls-4{fill:#4d4d4d;}.cls-2,.cls-6{fill-rule:evenodd;}.cls-3{clip-path:url(#clip-path);}.cls-5,.cls-6{fill:#231f20;}</style><clipPath id="clip-path"><polyline class="cls-1" points="54 19.61 54 120.39 246 120.39 246 19.61"/></clipPath></defs><title>logo_universal</title><g id="g63"><path id="path65" class="cls-2" d="M116.1,45.22c4.75-14.45,16-25.6,34.71-25.6,17.42,0,30.22,11.31,34.87,25.91-4.85-13.61-18.62-23.43-34.85-23.43S121.05,31.77,116.1,45.22Zm69.5,22.09c-4.72,14.49-18,25.75-34.79,25.75C133,93.06,121,82,116.18,67.63c5,13.34,18.63,22.9,34.65,22.9s29.86-9.71,34.77-23.22"/></g><g id="g67"><g class="cls-3"><g id="g69"><g id="g75"><path id="path77" class="cls-2" d="M142.1,43.48a5.51,5.51,0,0,1,.56-4.68,3.15,3.15,0,0,1,3.76-1c1.63-1.26,2,.1,3.46-.52,1.91-.81.84,2.15,2.68,2.9.76-2-1.73-3.49-.17-4.43,1.12-.68,2-1.09,2.42-2,.65-1.28.9-2.22,1.41-2.39a1.26,1.26,0,0,0,.9-1.47,2.48,2.48,0,0,0,2.2-.53c-.74-.39-1.81-.73-1.52-1.5.32-.92,2.81.94,3.54-.56-1.47-.63-3-2-3.88-2.32-.62.66-1,.39-1.81-.23-1.34-1.05-1.46-.05-2.3-.78-.68,1.34.34,1.23.65,1.57.87.93-.88-.84-.71,1.54,0,.62-.89.74-1.58-.61-.35-.69-3.22-.55-3.66-1.22.4-.78,3.78-3.55,9-2.89-7.53-2.91-17.7.28-17.8,1.38-1,.63-.67,1.34-1.18,1.51-.87.29-1.83,2.93-1.83,2.93s.55.36-1.16,2.24a8.89,8.89,0,0,0-1.81,3.88,7.07,7.07,0,0,1,.75,3.6c-.14,1.47-.2.38.45,1.44.38.63.79,2.8,1,2,.48-1.61-.87-3.11-.64-4.72,0,.2.51-.64.49.12,0,2,2.49,5.82,2.49,5.82s-.95.94,0,.94Zm15.82,23.8a2.65,2.65,0,0,1,1.42,1.45c.69,1.8-.33.35-.33,3,0,2.49-.71,2.09-.71,2.09a9.19,9.19,0,0,1-1.7,4.75,1.23,1.23,0,0,0-.22,1.78s-.33.18-.81,2.31c-.16.69.74,1.76,1.52,1.49.58-.2-1.42-.39.75-1.29.83-.34.15-1,.15-1s1.41-.11,2.2-2.2c1.4.2.88-.64,3.76-1.26.76-.16.92-.38.82-1.09s.94.1,3.8-2.76c2.24-2.27,1.43-2.77,3-3.59s1.79.07,2.34-.63c1.26-1.61.81-1.51,1.34-2.54l.37-.56Zm-6.37-25.63c.22-.33.9-.11,1.37-.1.65,0,.5,1,1.39.76s.89.84,2.16.8-.25.44-.25.44a1.82,1.82,0,0,0-1.3-.13c-.27.14.1-.07-.35-.43-.7-.57-.6.1-1.77-.88-.83-.69-1.62.09-1.25-.46"/></g></g></g></g><g id="g79"><path id="path81" class="cls-4" d="M88.15,48.81H82.43l.85,1v7.4c0,1.66-1.11,2.36-2.78,2.36s-2.79-.7-2.79-2.36v-7.4l.85-1H72.85l.85,1v7.52c0,3.69,2.1,5.11,6.8,5.11s6.79-1.42,6.79-5.11V49.81l.86-1"/></g><g id="g83"><path id="path85" class="cls-4" d="M108,48.81h-4.82l.85,1v6.74l-6.91-7.74H92.77l.86,1V61.18l-.86,1h4.82l-.85-1V54.32l7.34,7.86h3.06V49.81l.85-1"/></g><g id="g87"><path id="path89" class="cls-4" d="M119.1,62.18l-.85-1V49.81l.85-1h-5.76l.86,1V61.18l-.86,1h5.76"/></g><g id="g91"><path id="path93" class="cls-4" d="M138.09,48.81h-4.84l.85,1-3.42,7.36-3.29-7.36.85-1h-5.7l6.33,13.37h2.83l6.39-13.37"/></g><g id="g95"><path id="path97" class="cls-4" d="M154.25,62.18V58.55l-1,.84H146.3V56.83h4.39l1,.84V53.32l-1,.84H146.3V51.6h6.94l1,.84V48.81H141.48l.85,1V61.18l-.85,1h12.77"/></g><g id="g99"><path id="path101" class="cls-2" d="M169,53.14c0,1-.94,1.74-2.24,1.74h-2.58V51.6h3.07A1.55,1.55,0,0,1,169,53.14Zm4.67,9L170,56.91a4.36,4.36,0,0,0,3.07-4c0-2.23-1.38-4-5.24-4h-8.47l.86,1V61.18l-.86,1h5.68l-.85-1V57.39h1.7l2.61,3.79-.86,1h6"/></g><g id="g103"><path id="path105" class="cls-4" d="M190.89,58.27c0-2.13-1.73-3.31-4.24-4.11-1.62-.5-3.92-.86-3.92-1.92,0-.53.63-.88,1.73-.88a15.62,15.62,0,0,1,5.73,1.48V48.37l-1.07,1a14.19,14.19,0,0,0-4.48-.94c-4.61,0-6.1,2-6.1,3.83,0,2.48,1.67,3.56,4.29,4.47,1.95.66,3.76.72,3.76,1.82s-1.11,1.06-1.68,1.06a12.59,12.59,0,0,1-6.29-2v4.95l1.08-1.16a17.6,17.6,0,0,0,5.39,1.08c4,0,5.8-1.74,5.8-4.27"/></g><g id="g107"><path id="path109" class="cls-2" d="M204.65,57.37h-4.49l2.23-4.79Zm6.53,4.81-6.67-13.37h-4.58l.48,1-6,12.37h5l-.86-1,.68-1.41h6.46l.66,1.41-.86,1h5.74"/></g><g id="g111"><path id="path113" class="cls-4" d="M227.26,62.18V58.55l-1,.84h-6.53V49.81l.85-1h-5.67l.85,1V61.18l-.85,1h12.37"/></g><g id="g115"><path id="path117" class="cls-5" d="M223.46,50.66a1.89,1.89,0,1,1,1.89,1.87A1.88,1.88,0,0,1,223.46,50.66Zm.18,0A1.72,1.72,0,1,0,225.35,49a1.7,1.7,0,0,0-1.71,1.69"/></g><g id="g119"><path id="path121" class="cls-6" d="M226.06,49.93a1,1,0,0,0-1.62.74.94.94,0,0,0,1,1,1,1,0,0,0,.69-.26v-.24a.93.93,0,0,1-.7.33.8.8,0,0,1,0-1.6.86.86,0,0,1,.66.3v-.24"/></g><g id="g123"><path id="path125" class="cls-4" d="M63.39,111.93v5c0,2.43-1.36,3.38-4.41,3.38s-4.42-1-4.42-3.38v-5l-.56-.66h3.72l-.56.66v4.88c0,1.1.73,1.56,1.82,1.56s1.81-.46,1.81-1.56v-4.88l-.56-.66H64l-.56.66"/></g><g id="g127"><path id="path129" class="cls-4" d="M78.32,111.93v8.16h-2l-4.77-5.18v4.52l.55.66H69l.55-.66v-7.5l-.55-.66h2.81l4.5,5.1v-4.44l-.55-.66h3.14l-.56.66"/></g><g id="g131"><path id="path133" class="cls-4" d="M84.36,120.09l.56-.66v-7.5l-.56-.66h3.75l-.56.66v7.5l.56.66H84.36"/></g><g id="g135"><path id="path137" class="cls-4" d="M98.36,120.09H96.52l-4.11-8.82h3.71l-.56.66,2.14,4.86,2.23-4.86-.56-.66h3.15l-4.16,8.82"/></g><g id="g139"><path id="path141" class="cls-4" d="M106.75,120.09l.56-.66v-7.5l-.56-.66h8.31v2.39l-.66-.55h-4.51v1.69h2.85l.65-.55v2.87l-.65-.56h-2.85v1.69h4.51l.66-.55v2.39h-8.31"/></g><g id="g143"><path id="path145" class="cls-4" d="M125.55,113.11h-2v2.17h1.68a1.31,1.31,0,0,0,1.46-1.15A1,1,0,0,0,125.55,113.11Zm.25,7,.56-.66-1.7-2.5h-1.11v2.5l.56.66h-3.69l.55-.66v-7.5l-.55-.66h5.5c2.52,0,3.41,1.2,3.41,2.67a2.87,2.87,0,0,1-2,2.67l2.39,3.48H125.8"/></g><g id="g147"><path id="path149" class="cls-4" d="M139.15,120.33a11.36,11.36,0,0,1-3.5-.71l-.71.76v-3.27a8.08,8.08,0,0,0,4.09,1.3c.38,0,1.1-.08,1.1-.7s-1.18-.77-2.45-1.2c-1.7-.6-2.79-1.31-2.79-3,0-1.21,1-2.53,4-2.53a9.15,9.15,0,0,1,2.91.62l.7-.68v3a9.86,9.86,0,0,0-3.73-1c-.71,0-1.12.24-1.12.58,0,.7,1.49.94,2.55,1.27,1.63.53,2.75,1.31,2.75,2.71,0,1.67-1.16,2.82-3.77,2.82"/></g><g id="g151"><path id="path153" class="cls-4" d="M152.44,113.76,151,116.92h2.92Zm2,6.33.56-.66-.43-.93h-4.2l-.44.93.56.66h-3.25l3.93-8.16-.31-.66h3l4.33,8.82h-3.72"/></g><g id="g155"><path id="path157" class="cls-4" d="M162.58,120.09l.55-.66v-7.5l-.55-.66h3.69l-.56.66v6.32H170l.66-.55v2.39h-8"/></g><g id="g159"><path id="path161" class="cls-4" d="M191.78,120.09l.55-.66V115.2L190,120.09h-1.23l-2.65-5v4.31l.56.66h-3.06l.56-.66v-7.5l-.56-.66h3.12l2.86,5.4,2.62-5.4h3.18l-.55.66v7.5l.55.66h-3.61"/></g><g id="g163"><path id="path165" class="cls-4" d="M209.81,111.93v5c0,2.43-1.37,3.38-4.42,3.38s-4.42-1-4.42-3.38v-5l-.56-.66h3.72l-.55.66v4.88c0,1.1.73,1.56,1.81,1.56s1.81-.46,1.81-1.56v-4.88l-.55-.66h3.71l-.55.66"/></g><g id="g167"><path id="path169" class="cls-4" d="M219.52,120.33a11.49,11.49,0,0,1-3.51-.71l-.7.76v-3.27a8.06,8.06,0,0,0,4.09,1.3c.37,0,1.1-.08,1.1-.7s-1.18-.77-2.45-1.2c-1.7-.6-2.79-1.31-2.79-3,0-1.21,1-2.53,4-2.53a9.15,9.15,0,0,1,2.91.62l.7-.68v3a9.86,9.86,0,0,0-3.73-1c-.72,0-1.12.24-1.12.58,0,.7,1.49.94,2.55,1.27,1.63.53,2.75,1.31,2.75,2.71,0,1.67-1.16,2.82-3.77,2.82"/></g><g id="g171"><path id="path173" class="cls-4" d="M228.65,120.09l.56-.66v-7.5l-.56-.66h3.75l-.56.66v7.5l.56.66h-3.75"/></g><g id="g175"><path id="path177" class="cls-4" d="M242.53,120.26c-2.69,0-5.11-1.32-5.11-4.59,0-2.58,1.86-4.57,5.22-4.57a8.55,8.55,0,0,1,2.74.47L246,111v2.94a5.87,5.87,0,0,0-3.21-.93,2.42,2.42,0,0,0-2.59,2.67,2.54,2.54,0,0,0,2.67,2.69,5.49,5.49,0,0,0,3.14-1v2.07a8.25,8.25,0,0,1-3.47.8"/></g></svg>