<?xml version="1.0" encoding="utf-8"?>
<!-- Generator: Adobe Illustrator 23.1.1, SVG Export Plug-In . SVG Version: 6.00 Build 0)  -->
<svg version="1.1" id="Capa_1" xmlns="http://www.w3.org/2000/svg" xmlns:xlink="http://www.w3.org/1999/xlink" x="0px" y="0px"
	 viewBox="0 0 407.7 336" style="enable-background:new 0 0 407.7 336;" xml:space="preserve">
<style type="text/css">
	.st0{fill:#990033;}
	.st1{fill:#FFFFFF;}
</style>
<g>
	<path class="st0" d="M47.6,270v64.6H28v-64.3c0-2.3-1.2-3.5-3.5-3.5h-4.9v67.8H0V171.4h29.1c12.4,0,18.2,6.1,18.2,18.2V243
		c0,8.4-3,12.6-8.4,14.5C45,259.3,47.6,263,47.6,270z M24.2,188.4h-4.7v61.8h4.7c2.6,0,3.5-1.2,3.5-3.5v-54.8
		C27.7,189.6,26.8,188.4,24.2,188.4z"/>
	<path class="st0" d="M77.4,265.3V249h25.4v68.8c0,12.1-6.1,18.2-18.2,18.2H72c-12.1,0-18.2-6.1-18.2-18.2V188.2
		c0-12.1,6.1-18.2,18.2-18.2h12.4c12.1,0,18.2,6.1,18.2,18.2v49.7H83.2v-47.6c0-2.3-1.2-3.5-3.5-3.5h-2.8c-2.3,0-3.5,1.2-3.5,3.5
		v125.4c0,2.3,1.2,3.5,3.5,3.5h3.3c2.3,0,3.5-1.2,3.5-3.5v-50.4H77.4z"/>
	<path class="st1" d="M170.4,273.7v44.1c0,12.1-6.1,18.2-18.4,18.2h-11c-12.4,0-18.2-6.1-18.2-18.2v-51.1h19.6v48.5
		c0,2.3,0.9,3.5,3.3,3.5h1.6c2.3,0,3.3-1.2,3.3-3.5v-39.2c0-5.4-0.9-8.2-5.4-11.9l-12.4-10.7c-7.5-6.3-10-11.9-10-23.3v-42
		c0-12.1,6.1-18.2,18.4-18.2h10.5c12.1,0,18.2,6.1,18.2,18.2v48.3h-19.3v-46.2c0-2.3-0.7-3.5-3-3.5h-1.9c-2.3,0-3,1.2-3,3.5v37.5
		c0,5.4,0.9,8.2,5.4,11.9l12.4,10.7C167.8,256.7,170.4,262.3,170.4,273.7z"/>
	<path class="st1" d="M185.6,334.6V188.9h-11.9v-17.5H217v17.5h-11.9v145.7H185.6z"/>
	<path class="st1" d="M269.9,317.3c0,12.1-5.8,18.2-18.2,18.2h-11.9c-12.1,0-18.2-6.1-18.2-18.2V171.4h19.6v143.8
		c0,2.3,1.2,3.5,3.5,3.5h2.1c2.6,0,3.5-1.2,3.5-3.5V171.4h19.6V317.3z"/>
	<path class="st1" d="M276.7,171.4h27.5c14.2,0,21,6.8,21,21v121.2c0,14.2-6.8,21-21,21h-27.5V171.4z M296.3,317.8h4
		c3.7,0,5.4-1.6,5.4-5.4V193.5c0-3.7-1.6-5.4-5.4-5.4h-4V317.8z"/>
	<path class="st1" d="M351.8,334.6h-19.6V171.4h19.6V334.6z"/>
	<path class="st1" d="M389.5,336h-12.6c-12.1,0-18.2-6.5-18.2-18.6V188.2c0-12.1,6.1-18.2,18.2-18.2h12.6c12.1,0,18.2,6.1,18.2,18.2
		v129.2C407.7,329.5,401.7,336,389.5,336z M384.6,186.8h-2.8c-2.3,0-3.5,1.2-3.5,3.5v125c0,2.3,1.2,3.5,3.5,3.5h2.8
		c2.3,0,3.5-1.2,3.5-3.5v-125C388.1,188,387,186.8,384.6,186.8z"/>
</g>
</svg>
