<svg id="Capa_1" data-name="Capa 1" xmlns="http://www.w3.org/2000/svg" viewBox="0 0 300 140"><defs><style>.cls-1{fill:#4d4d4d;}.cls-1,.cls-2{fill-rule:evenodd;}.cls-2{fill:#fff;}</style></defs><title>logo_time_life</title><g id="g4"><path id="path6" class="cls-1" d="M193.88,108V65.64H108.77V108Z"/></g><g id="g8"><path id="path10" class="cls-2" d="M135.61,70.39h6.75v33.13h-6.75Z"/></g><g id="g12"><path id="path14" class="cls-2" d="M113.68,70.39h6.75V96.77h9.66v6.75H113.68Z"/></g><g id="g16"><path id="path18" class="cls-2" d="M150.45,70.39h15.64v6.75H157.2v6.44h6.28v6.75H157.2v13.19h-6.75Z"/></g><g id="g20"><path id="path22" class="cls-2" d="M171.85,70.39H188v6.75H178.6v6.44H185v6.75H178.6v6.44H188v6.75H171.85Z"/></g><g id="g24"><path id="path26" class="cls-1" d="M135.76,59.24A3.11,3.11,0,0,0,138.43,62v.22h-9.89V62a3.11,3.11,0,0,0,2.68-2.73V34.84a3.1,3.1,0,0,0-2.68-2.72v-.23h9.89v.23a3.1,3.1,0,0,0-2.67,2.72Z"/></g><g id="g28"><path id="path30" class="cls-1" d="M109.08,36a3,3,0,0,0-2.81,2.86H106V31.89h20.78v6.94h-.23A3,3,0,0,0,123.78,36H118.7V59.24A3.11,3.11,0,0,0,121.37,62v.22h-9.89V62a3.11,3.11,0,0,0,2.68-2.73V36Z"/></g><g id="g32"><path id="path34" class="cls-1" d="M182.39,36h8.53a3,3,0,0,1,2.81,2.86H194V31.89H175.18v.23a3.1,3.1,0,0,1,2.67,2.72v24.4A3.11,3.11,0,0,1,175.18,62v.22H194V55.25h-.23a3,3,0,0,1-2.81,2.86h-8.53V48.58h5.31c1.4,0,2.63.59,2.81,2.23h.23V42.32h-.23c-.18,1.64-1.41,2.23-2.81,2.23h-5.31Z"/></g><g id="g36"><path id="path38" class="cls-1" d="M157,52.44l9.61-21.32,5,28.49a2.74,2.74,0,0,0,2.58,2.4v.18h-9.66V62a2.15,2.15,0,0,0,2.22-2.64l-2.22-12.7L156.94,63.1l-7.53-16.47-2.22,12.7A2.15,2.15,0,0,0,149.41,62v.22h-9.66V62a2.74,2.74,0,0,0,2.58-2.4l4.95-28.49Z"/></g></svg>