<svg id="Capa_1" data-name="Capa 1" xmlns="http://www.w3.org/2000/svg" viewBox="0 0 300 140"><defs><style>.cls-1,.cls-2{fill:#4d4d4d;}.cls-1{stroke:#164a97;stroke-miterlimit:2.61;stroke-width:0.48px;}.cls-2,.cls-3{fill-rule:evenodd;}.cls-3{fill:#fff;}</style></defs><title>logo_warner_music</title><line class="cls-1" x1="123.93" y1="103.49" x2="123.93" y2="126.5"/><path class="cls-2" d="M194.35,56.61c0,6.56-1.18,16.56-4.51,22.26C183.92,88.76,174,93,155,93c-18.82,0-28.92-4.19-34.73-14.08-3.33-5.7-4.62-15.7-4.62-22.26s1.29-17,4.62-22.69C126.08,24,136.08,19.84,155,19.84S183.92,24,189.84,33.92c3.33,5.7,4.51,16.24,4.51,22.69Z"/><path class="cls-3" d="M158.12,72.63A7.18,7.18,0,1,0,171.34,67L162,44.14a7.23,7.23,0,0,0-13.33,5.59l9.46,22.9Zm11.4-17.31a7.43,7.43,0,0,0,6.77,4.41c5.27,0,8.49-6,6.56-10.43l-2.15-5.16a7.07,7.07,0,0,0-6.78-4.41,7.19,7.19,0,0,0-6.45,10l2.05,5.59ZM139.09,72.63A7.23,7.23,0,0,0,152.42,67L143,44.14a7.23,7.23,0,0,0-13.34,5.59l9.47,22.9Z"/><polygon class="cls-2" points="60.7 110.59 61.88 110.59 64.36 118.65 64.36 118.65 66.72 110.59 68.01 110.59 70.27 118.65 70.38 118.65 72.75 110.59 74.03 110.59 70.92 120.05 69.73 120.05 67.37 112.09 67.37 112.09 65 120.05 63.71 120.05 60.7 110.59"/><path class="cls-2" d="M81.24,116.39c0,1.83-1.51,2.91-3.33,2.91a1.87,1.87,0,0,1-2-1.83c0-1.83,2.37-1.83,4.41-2.15a2.87,2.87,0,0,0,1-.43h0v1.5Zm-5-2.9a2.28,2.28,0,0,1,2.58-2.26c1.39,0,2.47.43,2.47,1.94,0,1.07-.54,1.18-1.51,1.29-2.47.32-5,.43-5,3,0,1.93,1.4,2.79,3.12,2.79a3.7,3.7,0,0,0,3.55-1.93h0c0,1.07.21,1.72,1.29,1.72a1.57,1.57,0,0,0,.75-.11v-1a1.13,1.13,0,0,1-.32.11c-.43,0-.65-.32-.65-.75v-5c0-2.48-1.83-3-3.55-3-2.15,0-3.65,1-3.76,3.23Z"/><path class="cls-2" d="M85.22,110.59h1.07v2.15h0a3.63,3.63,0,0,1,3.55-2.37v1.19A3.27,3.27,0,0,0,86.4,115v5H85.22v-9.46Z"/><path class="cls-2" d="M91.45,110.59h1.19v1.61h0a3.2,3.2,0,0,1,3-1.94c2.69,0,3.44,1.4,3.44,3.66v6.13H98v-5.92c0-1.61-.53-2.9-2.47-2.9s-2.9,1.4-2.9,3.23v5.59H91.45v-9.46Z"/><path class="cls-2" d="M102,114.67c.22-1.83,1.18-3.44,3.12-3.44s2.9,1.61,3,3.44Zm7.31,1c.11-2.69-1.18-5.38-4.19-5.38s-4.3,2.48-4.3,5.06,1.29,4.94,4.3,4.94a3.74,3.74,0,0,0,4.08-3.33h-1.07a2.93,2.93,0,0,1-3,2.37c-2.26,0-3.12-2-3.12-3.66Z"/><path class="cls-2" d="M111,110.59h1.08v2.15h0a3.71,3.71,0,0,1,3.55-2.37v1.19a3.26,3.26,0,0,0-3.44,3.44v5H111v-9.46Z"/><path class="cls-2" d="M132.1,110.59h1.07v1.61h0a3.37,3.37,0,0,1,3.12-1.94,2.6,2.6,0,0,1,2.69,1.83,3.45,3.45,0,0,1,3-1.83c2.15,0,3.12,1.08,3.12,3.34v6.45H144V113.6c0-1.51-.64-2.37-2.26-2.37-2,0-2.58,1.61-2.58,3.44v5.38H138V113.6c0-1.29-.43-2.37-1.94-2.37-2,0-2.79,1.51-2.79,3.55v5.27H132.1v-9.46Z"/><path class="cls-2" d="M155,120.05h-1.08v-1.72h0a3.42,3.42,0,0,1-3.22,1.93c-2.47,0-3.33-1.39-3.33-3.54v-6.13h1.18v6.13c0,1.72.64,2.58,2.47,2.58s2.8-1.83,2.8-3.77v-4.94H155v9.46Z"/><path class="cls-2" d="M163.28,113.28a2.22,2.22,0,0,0-2.47-2c-1.08,0-2.26.43-2.26,1.61s1.18,1.4,1.93,1.62l1.51.32c1.4.22,2.69,1,2.69,2.69,0,2-2.05,2.79-3.77,2.79-2.15,0-3.65-1-3.87-3.33h1.19c.1,1.61,1.18,2.37,2.79,2.37,1.08,0,2.58-.43,2.58-1.83,0-1.08-1.07-1.4-2.15-1.72l-1.4-.32c-1.5-.33-2.68-.86-2.68-2.48,0-1.93,1.93-2.69,3.54-2.69,1.94,0,3.44,1,3.44,3Z"/><path class="cls-2" d="M166.72,110.59h1.08v9.46h-1.08v-9.46Zm0-3.66h1.08v1.83h-1.08v-1.83Z"/><path class="cls-2" d="M176.72,113.49a2.58,2.58,0,0,0-2.69-2.26c-2.15,0-3.33,2-3.33,4.09s1.18,4,3.33,4a2.83,2.83,0,0,0,2.8-2.69H178a3.89,3.89,0,0,1-4,3.65c-2.9,0-4.41-2.25-4.41-4.94s1.51-5.06,4.41-5.06a3.59,3.59,0,0,1,3.87,3.23Z"/><path class="cls-2" d="M198.65,119c-2.15,0-3.11-1.93-3.11-3.76,0-2,1-4,3.11-4s3,2,3,4-1,3.76-3,3.76Zm4.2-8.38h-1.19v1.61h0a3.23,3.23,0,0,0-3-1.94c-2.68,0-4.3,2.16-4.3,4.74,0,2.79,1.29,4.94,4.3,4.94a3.36,3.36,0,0,0,3-1.93h0v1.29c0,2.26-.85,3.55-3,3.55a2.58,2.58,0,0,1-2.79-1.94h-1.08c.11,2,2.05,2.9,3.87,2.9,3.12,0,4.2-1.72,4.2-4.51v-8.71Z"/><path class="cls-2" d="M205.11,110.59h1.07v2.15h0a3.53,3.53,0,0,1,3.55-2.37v1.19a3.36,3.36,0,0,0-3.55,3.44v5h-1.07v-9.46Z"/><path class="cls-2" d="M214.46,111.23c2.26,0,3.33,2,3.33,4.09s-1.07,4-3.33,4-3.33-2-3.33-4,1.18-4.09,3.33-4.09Zm0-1c-2.9,0-4.41,2.26-4.41,5.06s1.51,4.94,4.41,4.94S219,118,219,115.32s-1.62-5.06-4.52-5.06Z"/><path class="cls-2" d="M228.33,120.05h-1.07v-1.72h0a3.49,3.49,0,0,1-3.34,1.93c-2.36,0-3.22-1.39-3.22-3.54v-6.13h1.07v6.13c.11,1.72.75,2.58,2.58,2.58s2.8-1.83,2.8-3.77v-4.94h1.18v9.46Z"/><path class="cls-2" d="M238.12,115.32c0,1.93-1,4-3.12,4-2.48,0-3.34-2-3.34-4,0-2.15.76-4.09,3.34-4.09,2.15,0,3.12,2,3.12,4.09Zm-7.64,8.17h1.18v-5.27h0a3.42,3.42,0,0,0,3.34,2c2.9,0,4.3-2.25,4.3-4.94s-1.4-5.06-4.3-5.06a3.49,3.49,0,0,0-3.34,2h-.1v-1.72h-1.08v12.9Z"/><line class="cls-1" x1="186.07" y1="103.49" x2="186.07" y2="126.5"/></svg>