<?xml version="1.0" encoding="UTF-8"?>
<svg id="Capa_2" data-name="Capa 2" xmlns="http://www.w3.org/2000/svg" viewBox="0 0 213.21 699.63">
  <defs>
    <style>
      .cls-1 {
        fill: none;
        stroke: #903;
        stroke-miterlimit: 10;
        stroke-width: 4px;
      }
    </style>
  </defs>
  <g id="Capa_2-2" data-name="Capa 2">
    <g>
      <path class="cls-1" d="M205.2,210.7l6-180.2c.1,0,0-28.5-28.5-28.5H30.5C2,2,2,30.5,2,30.5l6,180.2"/>
      <path class="cls-1" d="M2.3,214.9l1.4,40.2c.1,2,1.8,3.7,3.8,3.7l44.7,4.3c36.2,3.5,72.6,3.5,108.8,0l45-4.3c2,0,3.7-1.6,3.8-3.7l1.4-40.2c.1-2.2-1.6-3.9-3.8-3.9l-44.3,4.4c-37.5,3.7-75.3,3.7-112.8,0l-44.3-4.4c-2.1,0-3.8,1.8-3.7,3.9Z"/>
      <path class="cls-1" d="M9.6,258.5l11.4,342.6h0c55.5,18.5,115.6,18.5,171.2,0h0l11.4-342.6"/>
      <path class="cls-1" d="M188.8,635.5c-53.7,18.3-110.8,18.3-164.5,0-1.2-.4-2.3,1.1-1.6,2.2l22.4,39.2c1.9,3.4,5.5,5.4,9.4,5.4h14.1v9.5l9.1,2.3c19,4.7,38.9,4.7,57.9,0l9.1-2.3v-9.5h14.1c3.9,0,7.4-2.1,9.4-5.4l22.4-39.2c.5-1.2-.5-2.7-1.8-2.2Z"/>
    </g>
  </g>
</svg>