<?xml version="1.0" encoding="utf-8"?>
<!-- Generator: Adobe Illustrator 27.0.0, SVG Export Plug-In . SVG Version: 6.00 Build 0)  -->
<svg version="1.1" id="Capa_2" xmlns="http://www.w3.org/2000/svg" xmlns:xlink="http://www.w3.org/1999/xlink" x="0px" y="0px"
	 viewBox="0 0 3539 1080" style="enable-background:new 0 0 3539 1080;" xml:space="preserve">
<style type="text/css">
	.st0{fill:none;stroke:#990033;stroke-width:11.3386;stroke-miterlimit:10;}
	.st1{fill:none;stroke:#990033;stroke-width:11.3386;stroke-linecap:round;stroke-miterlimit:10;}
	.st2{fill:none;stroke:#990033;stroke-width:11.3386;stroke-linecap:round;stroke-linejoin:round;stroke-miterlimit:10;}
	.st3{fill:none;stroke:#990033;stroke-width:11.3386;stroke-linecap:square;stroke-miterlimit:10;}
	.st4{fill:#990033;}
	.st5{fill:none;stroke:#990033;stroke-width:11.3386;stroke-linejoin:round;stroke-miterlimit:10;}
	.st6{fill:#FFFFFF;}
</style>
<rect width="3539" height="1080"/>
<g>
	<path class="st0" d="M352,352l6-180.2c0.1,0,0-28.5-28.5-28.5H177.3c-28.5,0-28.5,28.5-28.5,28.5l6,180.2"/>
	<path class="st0" d="M149.1,356.2l1.4,40.2c0.1,2,1.8,3.7,3.8,3.7l44.7,4.3c36.2,3.5,72.6,3.5,108.8,0l45-4.3c2,0,3.7-1.6,3.8-3.7
		l1.4-40.2c0.1-2.2-1.6-3.9-3.8-3.9l-44.3,4.4c-37.5,3.7-75.3,3.7-112.8,0l-44.3-4.4C150.7,352.3,149,354.1,149.1,356.2z"/>
	<path class="st0" d="M156.4,399.8l11.4,342.6l0,0c55.5,18.5,115.6,18.5,171.2,0l0,0l11.4-342.6"/>
	<path class="st0" d="M335.6,776.8c-53.7,18.3-110.8,18.3-164.5,0c-1.2-0.4-2.3,1.1-1.6,2.2l22.4,39.2c1.9,3.4,5.5,5.4,9.4,5.4h14.1
		v9.5l9.1,2.3c19,4.7,38.9,4.7,57.9,0l9.1-2.3v-9.5h14.1c3.9,0,7.4-2.1,9.4-5.4l22.4-39.2C337.9,777.8,336.9,776.3,335.6,776.8z"/>
</g>
<g>
	<g>
		<path class="st0" d="M506.9,533.3l-23.3-2l-0.8,162c0,2,0.8,4,2.2,5.4l40.9,42.6c6,4.5,13.2,6.9,20.6,6.9H626
			c7.4,0,14.7-2.4,20.6-6.9l40.9-42.6c1.4-1.5,2.2-3.4,2.2-5.4l-0.6-162l-23.6,2C612.8,537.8,559.7,537.8,506.9,533.3z"/>
		<path class="st0" d="M665.6,480.7l23.4-2l-0.6-167.8c0-36.6,1.4-62.9-41.1-62.9c-51.3,0-59.5,0-60.6,0c-0.1,0-0.1,0-0.1,0h-0.2
			h-0.1c-1.1,0-9.3,0-60.6,0c-42.5,0-41.1,26.4-41.1,62.9l-0.8,167.9l23.1,2C559.7,485.3,612.8,485.3,665.6,480.7z"/>
		<path class="st0" d="M689.2,531.2l6-0.5c1.8-0.2,3.2-1.8,3.2-3.9V482c0-2.3-1.7-4-3.7-3.9l-5.7,0.5"/>
		<path class="st0" d="M483.8,478.7l-5.9-0.5c-2-0.2-3.7,1.6-3.7,3.9v44.8c0,2,1.4,3.7,3.2,3.9l6.2,0.5"/>
	</g>
	<path class="st0" d="M629.4,765.4v-17.2h-86.2v17.2l-8.6,8.6v17.2l17.2,8.6l0,34.5l2.1,0.5c21.3,5.3,43.5,5.3,64.8,0l2.1-0.5v-34.5
		l17.2-8.6l0-17.2L629.4,765.4z"/>
	<path class="st0" d="M551.8,799.9l1.7,0.4c21.5,5.4,44,5.4,65.5,0l1.7-0.4"/>
	<path class="st0" d="M534.5,774l4.1,1.4c30.9,10.3,64.3,10.3,95.2,0l4.1-1.4"/>
</g>
<g>
	<path class="st0" d="M1633.2,728.1l28-329.4l-6.9-165.9c-0.4-9.8-8.5-17.5-18.3-17.5h-102.5c-9.8,0-17.9,7.7-18.3,17.5l-6.9,165.9
		l28,329.4"/>
	<path class="st0" d="M1536.4,728.1l10.2,106.3l7.1,1.4c20.5,4.1,41.7,4.1,62.2,0l7.1-1.4l10.2-106.3l-5.1,0.7
		c-35.8,4.9-51,4.9-86.8,0L1536.4,728.1z"/>
	<line class="st0" x1="1508.4" y1="398.7" x2="1661.2" y2="398.7"/>
</g>
<g>
	<path class="st1" d="M1878.3,384.8L1878.3,384.8L1878.3,384.8l-0.2,449.8l2.8,0.6c23.8,4.9,48.2,4.9,72,0.2l3.9-0.8l0.2-449.8l0,0
		l0,0"/>
	<path class="st2" d="M1957,384.8h7.9c4.3,0,7.9-3.8,7.9-8.5l0,0l0-169.9c0-4.5-3.4-8.2-7.6-8.2l-8.2,0l-0.2-25.9l-7.3-1.5
		c-21.5-4.3-43.6-4.2-65.1,0.2l-6.3,1.3l0.2,25.9l-8.2,0c-4.2,0-7.6,3.7-7.6,8.2l0,169.9l0,0c0,4.7,3.5,8.5,7.9,8.5h7.9"/>
	<path class="st1" d="M1885,224.2L1885,224.2c21-5.2,42.9-5.2,63.8,0v0"/>
	<path class="st1" d="M1885,252L1885,252c21-5.2,42.9-5.2,63.8,0v0"/>
	<path class="st1" d="M1885,280L1885,280c21-5.2,42.9-5.2,63.8,0l0,0"/>
	<path class="st1" d="M1885,307.9L1885,307.9c21-5.2,42.9-5.2,63.8,0v0"/>
	<path class="st1" d="M1885,335.9L1885,335.9c21-5.2,42.9-5.2,63.8,0l0,0"/>
	<path class="st1" d="M1885,363.7L1885,363.7c21-5.2,42.9-5.2,63.8,0l0,0"/>
</g>
<g>
	<path class="st0" d="M831.6,465l6.8-190.2c0.2-6.2,5.3-11.1,11.5-11.1h75.2h75.2c6.2,0,11.3,4.9,11.5,11.1l6.8,190.2l-7.2,165.4
		l-36,208.5h-50.3h-50.3l-36-208.5L831.6,465"/>
	<path class="st0" d="M831.6,465"/>
	<line class="st0" x1="831.6" y1="465" x2="1018.6" y2="465"/>
	<line class="st0" x1="838.8" y1="630.4" x2="1011.4" y2="630.4"/>
</g>
<g>
	<path class="st0" d="M1294.5,835.1l-3.9,0.6c-25.6,4.3-51.7,4.3-77.3,0l-3.9-0.6V516.2h85V835.1z"/>
	<path class="st0" d="M1294.5,473.7h-85v-21.3l4.5-0.7c25.2-4.2,50.9-4.2,76.1,0l4.5,0.7V473.7z"/>
	<line class="st3" x1="1209.4" y1="494.9" x2="1294.5" y2="494.9"/>
</g>
<g>
	<path class="st0" d="M2278.8,838.9v-47.2c0-6,2.8-11.6,7.6-15.2l20.7-15.6V320.9c0-8.6-3.6-16.8-9.9-22.7v0
		c-7.9-7.4-17.9-12.2-28.6-13.5c-12.1-1.5-24.3-1.5-36.4,0c-10.7,1.3-20.7,6.1-28.6,13.5v0c-6.3,5.9-9.9,14.1-9.9,22.7V761
		l20.7,15.6c4.8,3.6,7.6,9.2,7.6,15.2v47.2h28.3H2278.8z"/>
	<circle class="st4" cx="2250.5" cy="435" r="42.5"/>
	<circle class="st4" cx="2250.5" cy="342.9" r="28.3"/>
</g>
<g>
	<g>
		<path class="st4" d="M2663.7,424.4c-1.3,21.7-11.3,42-28,56.3l-3.6,3.1l-0.3,4.7l-23.1,339H2558l-23.1-339l-0.3-4.7l-3.6-3.1
			c-16.7-14.3-26.7-34.6-28-56.3H2663.7 M2674.9,413.1h-183.2c-0.2,2.2-0.3,4.4-0.3,6.6c0,27.9,12.4,52.9,32.1,69.7l23.8,349.6h71.9
			l23.8-349.6c19.6-16.8,32.1-41.8,32.1-69.7C2675.2,417.4,2675.1,415.2,2674.9,413.1L2674.9,413.1z"/>
	</g>
	<g>
		<path class="st4" d="M2583.3,347.1c42.8,0,77.9,33.6,80.4,75.7H2503C2505.5,380.7,2540.6,347.1,2583.3,347.1 M2583.3,335.8
			c-50.7,0-91.8,41.1-91.8,91.8c0,2.2,0.1,4.4,0.3,6.6h183.2c0.2-2.2,0.3-4.4,0.3-6.6C2675.2,376.9,2634.1,335.8,2583.3,335.8
			L2583.3,335.8z"/>
	</g>
	<line class="st0" x1="2523.6" y1="489.3" x2="2643.1" y2="489.3"/>
</g>
<g>
	<path class="st0" d="M2882.9,831.6l4.3,1.7c18.6,7.4,39.3,7.4,57.9,0l4.3-1.7l13.3-379.2h-93.1L2882.9,831.6z"/>
	<path class="st0" d="M2869.6,400.3l11.3,1.6c23.4,3.3,47.1,3.3,70.4,0l11.3-1.6v26.6l-5.3,0.8c-27.4,3.9-55.2,3.9-82.6,0l-5.3-0.8
		V400.3z"/>
	<polyline class="st5" points="2869.6,392.8 2876.3,352.9 2882.9,352.9 2956.1,352.9 2962.8,392.8 	"/>
	<g>
		<path class="st4" d="M2939.5,332.9c-1.1,0-2.2,0-3.4,0h-39.9c-1.2,0-2.3,0-3.4,0c-5.7,0-9.9,0.5-9.9,6.7h66.5
			C2949.5,333.4,2945.2,332.9,2939.5,332.9L2939.5,332.9z"/>
	</g>
</g>
<g>
	<path class="st0" d="M3226.3,703.6c-71.6,0-126.8-39.6-126.8-88.5c0-48.9,56.1-88.5,127.7-88.5"/>
	<path class="st0" d="M3285.7,528.5c71,0,125.5,39.6,125.5,88.5c0,48.9-54.5,88.5-125.5,88.5"/>
	<path class="st0" d="M3216.1,835.4l0.8-99.4l-66.3,23.7l-0.6,75.5C3149.9,835.2,3170.3,843.4,3216.1,835.4"/>
	<path class="st0" d="M3097.6,629h127V606h-127c-5.9,0-10.6,4.8-10.6,10.6v1.7C3086.9,624.2,3091.7,629,3097.6,629z"/>
	<path class="st0" d="M3285.7,506.6h-61.2V736c0,0-0.8,29.7,31.2,29.7c0,0.1,29.9-1.1,29.9-29.7
		C3285.7,679.3,3285.7,506.6,3285.7,506.6z"/>
	<path class="st0" d="M3339.2,758.9"/>
	<path class="st0" d="M3285.7,705.4v130h-61.2v-130l0,0C3239.2,683.7,3271.1,683.7,3285.7,705.4L3285.7,705.4z"/>
</g>
<g>
	<g>
		<path class="st4" d="M170.6,923.2V898h4.8l14.9,18.1h-2.3V898h5.8v25.2h-4.8L174,905.1h2.3v18.1H170.6z"/>
		<path class="st4" d="M208.9,923.5c-2.2,0-4.1-0.4-5.8-1.3c-1.7-0.9-2.9-2-3.9-3.5c-0.9-1.5-1.4-3.2-1.4-5.1s0.4-3.6,1.3-5.1
			c0.9-1.5,2.1-2.7,3.7-3.5c1.6-0.9,3.3-1.3,5.3-1.3c1.9,0,3.6,0.4,5.1,1.2c1.5,0.8,2.7,2,3.6,3.5c0.9,1.5,1.3,3.3,1.3,5.4
			c0,0.2,0,0.5,0,0.7c0,0.3,0,0.5-0.1,0.8h-15.7v-3.3h12.8l-2.2,1c0-1-0.2-1.9-0.6-2.6c-0.4-0.7-1-1.3-1.7-1.7
			c-0.7-0.4-1.6-0.6-2.5-0.6c-1,0-1.8,0.2-2.5,0.6c-0.7,0.4-1.3,1-1.7,1.8c-0.4,0.8-0.6,1.7-0.6,2.7v0.9c0,1.1,0.2,2,0.7,2.8
			c0.5,0.8,1.1,1.4,2,1.8c0.8,0.4,1.8,0.6,3,0.6c1,0,1.9-0.2,2.7-0.5c0.8-0.3,1.5-0.8,2.1-1.4l3,3.2c-0.9,1-2,1.8-3.3,2.3
			C212.2,923.2,210.7,923.5,208.9,923.5z"/>
		<path class="st4" d="M230.2,923.5c-1.6,0-3.1-0.3-4.3-0.9c-1.2-0.6-2.2-1.6-2.9-2.9c-0.7-1.3-1-2.9-1-4.9v-10.9h5.6v10.1
			c0,1.6,0.3,2.8,1,3.6s1.6,1.1,2.9,1.1c0.9,0,1.6-0.2,2.3-0.6c0.7-0.4,1.2-1,1.6-1.7c0.4-0.8,0.6-1.7,0.6-2.9v-9.6h5.6v19.4h-5.3
			v-5.4l1,1.6c-0.7,1.3-1.6,2.4-2.9,3C233,923.2,231.7,923.5,230.2,923.5z"/>
		<path class="st4" d="M271.5,903.6c1.5,0,2.9,0.3,4.1,0.9c1.2,0.6,2.1,1.5,2.8,2.8c0.7,1.3,1,2.9,1,4.8v11.1h-5.6V913
			c0-1.6-0.3-2.7-1-3.5c-0.6-0.7-1.5-1.1-2.7-1.1c-0.8,0-1.6,0.2-2.2,0.6c-0.6,0.4-1.1,0.9-1.5,1.7c-0.3,0.7-0.5,1.7-0.5,2.9v9.7
			h-5.6V913c0-1.6-0.3-2.7-1-3.5c-0.6-0.7-1.6-1.1-2.8-1.1c-0.8,0-1.5,0.2-2.2,0.6c-0.6,0.4-1.2,0.9-1.5,1.7
			c-0.4,0.7-0.5,1.7-0.5,2.9v9.7h-5.6v-19.4h5.4v5.3l-1-1.5c0.6-1.3,1.6-2.3,2.8-3c1.2-0.7,2.7-1,4.2-1c1.8,0,3.3,0.5,4.7,1.4
			c1.3,0.9,2.2,2.3,2.7,4.1l-2-0.5c0.6-1.5,1.7-2.7,3.1-3.6C268,904,269.7,903.6,271.5,903.6z"/>
		<path class="st4" d="M290.5,923.5c-1.5,0-2.8-0.3-3.9-0.8c-1.1-0.5-1.9-1.2-2.5-2.1c-0.6-0.9-0.9-1.9-0.9-3c0-1.1,0.3-2.1,0.8-3
			c0.6-0.9,1.5-1.6,2.7-2c1.2-0.5,2.8-0.7,4.8-0.7h5.1v3.2h-4.5c-1.3,0-2.2,0.2-2.7,0.6c-0.5,0.4-0.7,1-0.7,1.6
			c0,0.7,0.3,1.3,0.8,1.7s1.3,0.6,2.3,0.6c1,0,1.8-0.2,2.6-0.6c0.8-0.4,1.3-1.1,1.6-2l0.9,2.6c-0.4,1.2-1.2,2.1-2.2,2.8
			C293.6,923.2,292.2,923.5,290.5,923.5z M296.4,923.2v-3.8l-0.4-0.8v-6.8c0-1.2-0.4-2.1-1.1-2.8c-0.7-0.7-1.9-1-3.4-1
			c-1,0-2,0.2-3,0.5c-1,0.3-1.9,0.8-2.6,1.3l-2-3.9c1.1-0.8,2.3-1.3,3.8-1.7c1.5-0.4,3-0.6,4.5-0.6c3,0,5.2,0.7,6.9,2.1
			c1.6,1.4,2.4,3.6,2.4,6.5v11.1H296.4z"/>
		<path class="st4" d="M318.5,903.6c1.5,0,2.9,0.3,4.1,0.9c1.2,0.6,2.2,1.5,2.9,2.8c0.7,1.3,1,2.9,1,4.8v11.1h-5.6V913
			c0-1.6-0.3-2.7-1-3.5s-1.7-1.1-2.9-1.1c-0.9,0-1.7,0.2-2.4,0.6c-0.7,0.4-1.3,0.9-1.7,1.7c-0.4,0.7-0.6,1.7-0.6,3v9.6h-5.6v-19.4
			h5.4v5.4l-1-1.6c0.7-1.3,1.7-2.3,3-3C315.4,903.9,316.8,903.6,318.5,903.6z"/>
		<path class="st6" d="M229.8,966.9c-3.6,0-6.4-1-8.4-3s-3-4.8-3-8.6v-14.1h5.9v13.9c0,2.4,0.5,4.1,1.5,5.2c1,1.1,2.4,1.6,4.1,1.6
			c1.8,0,3.2-0.5,4.1-1.6c1-1.1,1.5-2.8,1.5-5.2v-13.9h5.7v14.1c0,3.7-1,6.6-3,8.6C236.2,965.9,233.4,966.9,229.8,966.9z"/>
		<path class="st6" d="M245.1,961.1v-3.9l11.9-16h6.1l-11.6,16l-2.9-0.8h19.8v4.8H245.1z M258.7,966.4v-5.3l0.2-4.8v-4.7h5.5v14.8
			H258.7z"/>
		<path class="st6" d="M274.3,966.4l10.2-23l1.5,2.5h-13.5l2.5-2.7v6.9h-5.1v-8.9H290v3.8l-9.4,21.4H274.3z"/>
	</g>
</g>
<g>
	<g>
		<path class="st4" d="M503.6,923.2V898h4.8l14.9,18.1h-2.3V898h5.8v25.2h-4.8L507,905.1h2.3v18.1H503.6z"/>
		<path class="st4" d="M541.9,923.5c-2.2,0-4.1-0.4-5.8-1.3c-1.7-0.9-2.9-2-3.9-3.5c-0.9-1.5-1.4-3.2-1.4-5.1s0.4-3.6,1.3-5.1
			c0.9-1.5,2.1-2.7,3.7-3.5c1.6-0.9,3.3-1.3,5.3-1.3c1.9,0,3.6,0.4,5.1,1.2c1.5,0.8,2.7,2,3.6,3.5c0.9,1.5,1.3,3.3,1.3,5.4
			c0,0.2,0,0.5,0,0.7c0,0.3,0,0.5-0.1,0.8h-15.7v-3.3h12.8l-2.2,1c0-1-0.2-1.9-0.6-2.6c-0.4-0.7-1-1.3-1.7-1.7
			c-0.7-0.4-1.6-0.6-2.5-0.6c-1,0-1.8,0.2-2.5,0.6c-0.7,0.4-1.3,1-1.7,1.8c-0.4,0.8-0.6,1.7-0.6,2.7v0.9c0,1.1,0.2,2,0.7,2.8
			c0.5,0.8,1.1,1.4,2,1.8c0.8,0.4,1.8,0.6,3,0.6c1,0,1.9-0.2,2.7-0.5c0.8-0.3,1.5-0.8,2.1-1.4l3,3.2c-0.9,1-2,1.8-3.3,2.3
			C545.2,923.2,543.6,923.5,541.9,923.5z"/>
		<path class="st4" d="M563.2,923.5c-1.6,0-3.1-0.3-4.3-0.9c-1.2-0.6-2.2-1.6-2.9-2.9c-0.7-1.3-1-2.9-1-4.9v-10.9h5.6v10.1
			c0,1.6,0.3,2.8,1,3.6s1.6,1.1,2.9,1.1c0.9,0,1.6-0.2,2.3-0.6c0.7-0.4,1.2-1,1.6-1.7c0.4-0.8,0.6-1.7,0.6-2.9v-9.6h5.6v19.4h-5.3
			v-5.4l1,1.6c-0.7,1.3-1.6,2.4-2.9,3C566,923.2,564.7,923.5,563.2,923.5z"/>
		<path class="st4" d="M604.5,903.6c1.5,0,2.9,0.3,4.1,0.9c1.2,0.6,2.1,1.5,2.8,2.8c0.7,1.3,1,2.9,1,4.8v11.1h-5.6V913
			c0-1.6-0.3-2.7-1-3.5c-0.6-0.7-1.5-1.1-2.7-1.1c-0.8,0-1.6,0.2-2.2,0.6c-0.6,0.4-1.1,0.9-1.5,1.7c-0.3,0.7-0.5,1.7-0.5,2.9v9.7
			h-5.6V913c0-1.6-0.3-2.7-1-3.5c-0.6-0.7-1.6-1.1-2.8-1.1c-0.8,0-1.5,0.2-2.2,0.6c-0.6,0.4-1.2,0.9-1.5,1.7
			c-0.4,0.7-0.5,1.7-0.5,2.9v9.7h-5.6v-19.4h5.4v5.3l-1-1.5c0.6-1.3,1.6-2.3,2.8-3c1.2-0.7,2.7-1,4.2-1c1.8,0,3.3,0.5,4.7,1.4
			c1.3,0.9,2.2,2.3,2.7,4.1l-2-0.5c0.6-1.5,1.7-2.7,3.1-3.6C601,904,602.7,903.6,604.5,903.6z"/>
		<path class="st4" d="M623.5,923.5c-1.5,0-2.8-0.3-3.9-0.8c-1.1-0.5-1.9-1.2-2.5-2.1c-0.6-0.9-0.9-1.9-0.9-3c0-1.1,0.3-2.1,0.8-3
			c0.6-0.9,1.5-1.6,2.7-2c1.2-0.5,2.8-0.7,4.8-0.7h5.1v3.2h-4.5c-1.3,0-2.2,0.2-2.7,0.6c-0.5,0.4-0.7,1-0.7,1.6
			c0,0.7,0.3,1.3,0.8,1.7s1.3,0.6,2.3,0.6c1,0,1.8-0.2,2.6-0.6c0.8-0.4,1.3-1.1,1.6-2l0.9,2.6c-0.4,1.2-1.2,2.1-2.2,2.8
			C626.6,923.2,625.2,923.5,623.5,923.5z M629.4,923.2v-3.8l-0.4-0.8v-6.8c0-1.2-0.4-2.1-1.1-2.8c-0.7-0.7-1.9-1-3.4-1
			c-1,0-2,0.2-3,0.5c-1,0.3-1.9,0.8-2.6,1.3l-2-3.9c1.1-0.8,2.3-1.3,3.8-1.7c1.5-0.4,3-0.6,4.5-0.6c3,0,5.2,0.7,6.9,2.1
			c1.6,1.4,2.4,3.6,2.4,6.5v11.1H629.4z"/>
		<path class="st4" d="M651.5,903.6c1.5,0,2.9,0.3,4.1,0.9c1.2,0.6,2.2,1.5,2.9,2.8c0.7,1.3,1,2.9,1,4.8v11.1h-5.6V913
			c0-1.6-0.3-2.7-1-3.5s-1.7-1.1-2.9-1.1c-0.9,0-1.7,0.2-2.4,0.6c-0.7,0.4-1.3,0.9-1.7,1.7c-0.4,0.7-0.6,1.7-0.6,3v9.6h-5.6v-19.4
			h5.4v5.4l-1-1.6c0.7-1.3,1.7-2.3,3-3C648.3,903.9,649.8,903.6,651.5,903.6z"/>
		<path class="st6" d="M560.8,966.4v-23l2.5,2.5h-7.6v-4.7h10.9v25.2H560.8z"/>
		<path class="st6" d="M570.7,961.1v-3.9l11.9-16h6.1l-11.6,16l-2.9-0.8h19.8v4.8H570.7z M584.3,966.4v-5.3l0.2-4.8v-4.7h5.5v14.8
			H584.3z"/>
		<path class="st6" d="M604.6,940.8c2.3,0,4.3,0.5,6,1.4s3,2.4,3.9,4.2c0.9,1.9,1.3,4.1,1.3,6.8c0,2.9-0.5,5.4-1.6,7.4
			c-1.1,2-2.6,3.6-4.5,4.6c-1.9,1.1-4.2,1.6-6.7,1.6c-1.3,0-2.6-0.1-3.8-0.4c-1.2-0.3-2.3-0.7-3.2-1.3l2.1-4.3
			c0.7,0.5,1.4,0.8,2.2,1c0.8,0.2,1.6,0.3,2.5,0.3c2.2,0,3.9-0.7,5.2-2c1.3-1.3,1.9-3.3,1.9-5.8c0-0.4,0-0.9,0-1.4
			c0-0.5-0.1-1.1-0.2-1.6l1.6,1.5c-0.4,0.9-1,1.7-1.7,2.4c-0.7,0.6-1.6,1.1-2.6,1.4c-1,0.3-2.1,0.5-3.3,0.5c-1.6,0-3.1-0.3-4.4-1
			c-1.3-0.6-2.4-1.6-3.1-2.7c-0.8-1.2-1.2-2.6-1.2-4.1c0-1.7,0.4-3.2,1.3-4.4c0.9-1.3,2-2.2,3.5-2.9
			C601.3,941.1,602.9,940.8,604.6,940.8z M605,945.1c-0.8,0-1.6,0.2-2.2,0.5c-0.6,0.3-1.1,0.7-1.5,1.3c-0.3,0.6-0.5,1.2-0.5,2
			c0,1.2,0.4,2.1,1.2,2.8c0.8,0.7,1.8,1,3.1,1c0.9,0,1.6-0.2,2.3-0.5s1.2-0.8,1.5-1.4c0.4-0.6,0.5-1.2,0.5-2c0-0.7-0.2-1.3-0.5-1.9
			c-0.3-0.6-0.8-1-1.5-1.3C606.7,945.3,605.9,945.1,605,945.1z"/>
	</g>
</g>
<g>
	<g>
		<path class="st4" d="M831.1,923.7c-2,0-4-0.3-5.8-0.8c-1.9-0.5-3.4-1.2-4.5-2.1l2-4.4c1.1,0.8,2.3,1.4,3.8,1.9
			c1.5,0.5,3,0.7,4.5,0.7c1.2,0,2.1-0.1,2.8-0.4c0.7-0.2,1.2-0.6,1.6-1c0.3-0.4,0.5-0.9,0.5-1.4c0-0.7-0.3-1.2-0.8-1.6
			c-0.5-0.4-1.2-0.7-2.1-1c-0.9-0.3-1.8-0.5-2.9-0.7c-1-0.2-2.1-0.5-3.1-0.8c-1-0.3-2-0.8-2.9-1.3c-0.9-0.5-1.6-1.2-2.1-2.1
			c-0.5-0.9-0.8-2-0.8-3.3c0-1.4,0.4-2.8,1.2-3.9c0.8-1.2,1.9-2.1,3.5-2.8c1.6-0.7,3.5-1.1,5.9-1.1c1.6,0,3.2,0.2,4.7,0.6
			s2.9,0.9,4,1.7l-1.8,4.4c-1.1-0.6-2.3-1.1-3.5-1.5s-2.4-0.5-3.5-0.5c-1.2,0-2.1,0.1-2.8,0.4c-0.7,0.3-1.2,0.6-1.5,1
			c-0.3,0.4-0.5,0.9-0.5,1.4c0,0.7,0.3,1.2,0.8,1.6c0.5,0.4,1.2,0.7,2.1,1c0.9,0.2,1.8,0.5,2.9,0.7c1.1,0.2,2.1,0.5,3.1,0.8
			c1,0.3,2,0.8,2.8,1.3c0.9,0.5,1.6,1.2,2.1,2.1s0.8,2,0.8,3.3c0,1.4-0.4,2.7-1.2,3.9c-0.8,1.2-2,2.1-3.5,2.8
			C835.5,923.3,833.5,923.7,831.1,923.7z"/>
		<path class="st4" d="M855,923.5c-2.2,0-4.1-0.4-5.8-1.3c-1.7-0.9-2.9-2-3.9-3.5c-0.9-1.5-1.4-3.2-1.4-5.1s0.4-3.6,1.3-5.1
			c0.9-1.5,2.1-2.7,3.7-3.5c1.6-0.9,3.3-1.3,5.3-1.3c1.9,0,3.6,0.4,5.1,1.2c1.5,0.8,2.7,2,3.6,3.5c0.9,1.5,1.3,3.3,1.3,5.4
			c0,0.2,0,0.5,0,0.7c0,0.3,0,0.5-0.1,0.8h-15.7v-3.3h12.8l-2.2,1c0-1-0.2-1.9-0.6-2.6c-0.4-0.7-1-1.3-1.7-1.7
			c-0.7-0.4-1.6-0.6-2.5-0.6c-1,0-1.8,0.2-2.5,0.6c-0.7,0.4-1.3,1-1.7,1.8c-0.4,0.8-0.6,1.7-0.6,2.7v0.9c0,1.1,0.2,2,0.7,2.8
			c0.5,0.8,1.1,1.4,2,1.8c0.8,0.4,1.8,0.6,3,0.6c1,0,1.9-0.2,2.7-0.5c0.8-0.3,1.5-0.8,2.1-1.4l3,3.2c-0.9,1-2,1.8-3.3,2.3
			C858.3,923.2,856.7,923.5,855,923.5z"/>
		<path class="st4" d="M879.9,903.6c1.5,0,2.9,0.3,4.1,0.9c1.2,0.6,2.2,1.5,2.9,2.8c0.7,1.3,1,2.9,1,4.8v11.1h-5.6V913
			c0-1.6-0.3-2.7-1-3.5s-1.7-1.1-2.9-1.1c-0.9,0-1.7,0.2-2.4,0.6c-0.7,0.4-1.3,0.9-1.7,1.7c-0.4,0.7-0.6,1.7-0.6,3v9.6h-5.6v-19.4
			h5.4v5.4l-1-1.6c0.7-1.3,1.7-2.3,3-3C876.7,903.9,878.2,903.6,879.9,903.6z"/>
		<path class="st4" d="M904.7,903.6c1.5,0,2.9,0.3,4.1,0.9c1.2,0.6,2.2,1.5,2.9,2.8c0.7,1.3,1,2.9,1,4.8v11.1h-5.6V913
			c0-1.6-0.3-2.7-1-3.5s-1.7-1.1-2.9-1.1c-0.9,0-1.7,0.2-2.4,0.6c-0.7,0.4-1.3,0.9-1.7,1.7c-0.4,0.7-0.6,1.7-0.6,3v9.6H893v-19.4
			h5.4v5.4l-1-1.6c0.7-1.3,1.7-2.3,3-3C901.6,903.9,903.1,903.6,904.7,903.6z"/>
		<path class="st4" d="M929.6,903.6c1.5,0,2.9,0.3,4.1,0.9c1.2,0.6,2.2,1.5,2.9,2.8c0.7,1.3,1,2.9,1,4.8v11.1H932V913
			c0-1.6-0.3-2.7-1-3.5s-1.7-1.1-2.9-1.1c-0.9,0-1.7,0.2-2.4,0.6c-0.7,0.4-1.3,0.9-1.7,1.7c-0.4,0.7-0.6,1.7-0.6,3v9.6h-5.6v-26.7
			h5.6v12.7l-1.3-1.6c0.7-1.3,1.7-2.3,3-3C926.5,903.9,928,903.6,929.6,903.6z"/>
		<path class="st4" d="M952.3,923.5c-2.2,0-4.1-0.4-5.8-1.3c-1.7-0.9-2.9-2-3.9-3.5c-0.9-1.5-1.4-3.2-1.4-5.1s0.4-3.6,1.3-5.1
			c0.9-1.5,2.1-2.7,3.7-3.5c1.6-0.9,3.3-1.3,5.3-1.3c1.9,0,3.6,0.4,5.1,1.2c1.5,0.8,2.7,2,3.6,3.5c0.9,1.5,1.3,3.3,1.3,5.4
			c0,0.2,0,0.5,0,0.7c0,0.3,0,0.5-0.1,0.8h-15.7v-3.3h12.8l-2.2,1c0-1-0.2-1.9-0.6-2.6c-0.4-0.7-1-1.3-1.7-1.7
			c-0.7-0.4-1.6-0.6-2.5-0.6c-1,0-1.8,0.2-2.5,0.6c-0.7,0.4-1.3,1-1.7,1.8c-0.4,0.8-0.6,1.7-0.6,2.7v0.9c0,1.1,0.2,2,0.7,2.8
			c0.5,0.8,1.1,1.4,2,1.8c0.8,0.4,1.8,0.6,3,0.6c1,0,1.9-0.2,2.7-0.5c0.8-0.3,1.5-0.8,2.1-1.4l3,3.2c-0.9,1-2,1.8-3.3,2.3
			C955.6,923.2,954.1,923.5,952.3,923.5z"/>
		<path class="st4" d="M972,923.5c-1.7,0-3.2-0.2-4.8-0.6c-1.5-0.4-2.7-0.9-3.6-1.5l1.8-4c0.9,0.5,2,1,3.2,1.3
			c1.2,0.3,2.4,0.5,3.6,0.5c1.3,0,2.2-0.2,2.8-0.5s0.8-0.7,0.8-1.3c0-0.5-0.2-0.8-0.6-1c-0.4-0.2-1-0.4-1.7-0.5
			c-0.7-0.1-1.4-0.2-2.3-0.4c-0.8-0.1-1.7-0.3-2.5-0.5s-1.6-0.5-2.3-0.9c-0.7-0.4-1.3-0.9-1.7-1.6c-0.4-0.7-0.6-1.6-0.6-2.7
			c0-1.2,0.4-2.3,1.1-3.3c0.7-0.9,1.7-1.7,3.1-2.2c1.3-0.5,2.9-0.8,4.8-0.8c1.3,0,2.7,0.2,4,0.5c1.4,0.3,2.5,0.7,3.4,1.2l-1.9,4
			c-0.9-0.5-1.8-0.9-2.8-1.1s-1.9-0.3-2.7-0.3c-1.3,0-2.2,0.2-2.8,0.5c-0.6,0.3-0.9,0.8-0.9,1.3c0,0.5,0.2,0.8,0.6,1.1
			s1,0.4,1.7,0.6c0.7,0.1,1.5,0.2,2.3,0.4c0.8,0.1,1.7,0.3,2.5,0.5c0.8,0.2,1.6,0.5,2.3,0.9c0.7,0.4,1.3,0.9,1.7,1.6
			c0.4,0.7,0.6,1.6,0.6,2.7c0,1.2-0.4,2.2-1.1,3.2c-0.7,0.9-1.8,1.7-3.1,2.2C975.5,923.2,973.9,923.5,972,923.5z"/>
		<path class="st4" d="M994.2,923.5c-2.2,0-4.1-0.4-5.8-1.3c-1.7-0.9-2.9-2-3.9-3.5c-0.9-1.5-1.4-3.2-1.4-5.1s0.4-3.6,1.3-5.1
			c0.9-1.5,2.1-2.7,3.7-3.5c1.6-0.9,3.3-1.3,5.3-1.3c1.9,0,3.6,0.4,5.1,1.2c1.5,0.8,2.7,2,3.6,3.5c0.9,1.5,1.3,3.3,1.3,5.4
			c0,0.2,0,0.5,0,0.7c0,0.3,0,0.5-0.1,0.8h-15.7v-3.3h12.8l-2.2,1c0-1-0.2-1.9-0.6-2.6c-0.4-0.7-1-1.3-1.7-1.7
			c-0.7-0.4-1.6-0.6-2.5-0.6c-1,0-1.8,0.2-2.5,0.6c-0.7,0.4-1.3,1-1.7,1.8c-0.4,0.8-0.6,1.7-0.6,2.7v0.9c0,1.1,0.2,2,0.7,2.8
			c0.5,0.8,1.1,1.4,2,1.8c0.8,0.4,1.8,0.6,3,0.6c1,0,1.9-0.2,2.7-0.5c0.8-0.3,1.5-0.8,2.1-1.4l3,3.2c-0.9,1-2,1.8-3.3,2.3
			C997.5,923.2,995.9,923.5,994.2,923.5z"/>
		<path class="st4" d="M1007.3,923.2v-19.4h5.4v5.5l-0.8-1.6c0.6-1.4,1.5-2.4,2.8-3.1c1.3-0.7,2.8-1.1,4.6-1.1v5.2
			c-0.2,0-0.4-0.1-0.6-0.1c-0.2,0-0.4,0-0.6,0c-1.6,0-2.8,0.4-3.8,1.3c-0.9,0.9-1.4,2.3-1.4,4.1v9.1H1007.3z"/>
		<path class="st6" d="M866,966.4v-25.2h4.8l10.7,17.8h-2.6l10.5-17.8h4.9v25.2h-5.4l-0.1-16.8h1.1l-8.5,14.1h-2.6l-8.6-14.1h1.2
			v16.8H866z"/>
		<path class="st6" d="M900.3,966.4v-25.2h11.4c2.7,0,5.1,0.5,7.2,1.6s3.7,2.5,4.9,4.4c1.2,1.9,1.8,4.1,1.8,6.6s-0.6,4.8-1.8,6.6
			c-1.2,1.9-2.8,3.3-4.9,4.4s-4.5,1.6-7.2,1.6H900.3z M906.2,961.7h5.3c1.7,0,3.1-0.3,4.4-1c1.2-0.6,2.2-1.5,2.9-2.7
			c0.7-1.2,1-2.6,1-4.2c0-1.6-0.3-3-1-4.2c-0.7-1.2-1.6-2.1-2.9-2.7c-1.2-0.6-2.7-1-4.4-1h-5.3V961.7z"/>
		<path class="st6" d="M928.2,961.1v-3.9l11.9-16h6.1l-11.6,16l-2.9-0.8h19.8v4.8H928.2z M941.8,966.4v-5.3l0.2-4.8v-4.7h5.5v14.8
			H941.8z"/>
		<path class="st6" d="M953.1,966.4v-3.8l9.7-9.2c0.8-0.7,1.3-1.3,1.7-1.9c0.4-0.5,0.6-1,0.7-1.5c0.1-0.5,0.2-0.9,0.2-1.3
			c0-1-0.3-1.8-1-2.3c-0.7-0.6-1.7-0.8-3-0.8c-1.1,0-2.1,0.2-3,0.6c-0.9,0.4-1.6,1.1-2.3,1.9l-4.2-2.7c0.9-1.4,2.3-2.6,4-3.4
			c1.7-0.8,3.7-1.3,6-1.3c1.9,0,3.5,0.3,4.9,0.9c1.4,0.6,2.5,1.5,3.3,2.6c0.8,1.1,1.2,2.4,1.2,4c0,0.8-0.1,1.6-0.3,2.4
			c-0.2,0.8-0.6,1.7-1.2,2.6c-0.6,0.9-1.5,1.9-2.7,3l-8.1,7.6l-1.1-2.1h14.3v4.8H953.1z"/>
		<path class="st6" d="M978.4,966.4v-23l2.5,2.5h-7.6v-4.7h10.9v25.2H978.4z"/>
	</g>
</g>
<g>
	<g>
		<path class="st4" d="M1194.9,923.2V898h10.9c2.3,0,4.2,0.4,5.8,1.1c1.6,0.7,2.9,1.8,3.8,3.1c0.9,1.4,1.3,3,1.3,4.9
			c0,1.9-0.4,3.5-1.3,4.9c-0.9,1.4-2.1,2.4-3.8,3.1c-1.6,0.7-3.6,1.1-5.8,1.1h-7.7l2.7-2.5v9.6H1194.9z M1200.8,914.3l-2.7-2.8h7.4
			c1.8,0,3.1-0.4,4-1.2c0.9-0.8,1.4-1.8,1.4-3.2s-0.5-2.5-1.4-3.2c-0.9-0.8-2.3-1.1-4-1.1h-7.4l2.7-2.8V914.3z M1211,923.2l-6.3-9.1
			h6.3l6.3,9.1H1211z"/>
		<path class="st4" d="M1230.2,923.5c-2,0-3.9-0.4-5.5-1.3c-1.6-0.9-2.9-2-3.8-3.5c-0.9-1.5-1.4-3.2-1.4-5.1c0-1.9,0.5-3.7,1.4-5.2
			c0.9-1.5,2.2-2.7,3.8-3.5c1.6-0.9,3.4-1.3,5.5-1.3c2.1,0,3.9,0.4,5.5,1.3c1.6,0.9,2.9,2,3.8,3.5c0.9,1.5,1.4,3.2,1.4,5.2
			c0,1.9-0.5,3.7-1.4,5.1c-0.9,1.5-2.2,2.7-3.8,3.5S1232.3,923.5,1230.2,923.5z M1230.2,918.9c1,0,1.8-0.2,2.5-0.6
			c0.7-0.4,1.3-1,1.8-1.9c0.4-0.8,0.7-1.8,0.7-2.9c0-1.1-0.2-2.1-0.7-2.9c-0.4-0.8-1-1.4-1.8-1.8c-0.7-0.4-1.6-0.6-2.5-0.6
			s-1.8,0.2-2.5,0.6c-0.7,0.4-1.3,1-1.8,1.8c-0.4,0.8-0.7,1.8-0.7,2.9c0,1.1,0.2,2.1,0.7,2.9c0.4,0.8,1,1.4,1.8,1.9
			C1228.4,918.7,1229.3,918.9,1230.2,918.9z"/>
		<path class="st4" d="M1247,930.5c-1,0-2-0.2-3-0.5c-1-0.3-1.8-0.7-2.4-1.3l2.1-4c0.4,0.4,0.9,0.7,1.5,0.9c0.6,0.2,1.1,0.3,1.7,0.3
			c0.8,0,1.4-0.2,1.9-0.6s0.9-1,1.3-1.9l1-2.4l0.4-0.6l7-16.7h5.4l-8.7,20.6c-0.6,1.6-1.3,2.8-2.1,3.7s-1.7,1.5-2.7,1.9
			C1249.3,930.3,1248.2,930.5,1247,930.5z M1250.3,924l-8.6-20.1h5.8l6.7,16.2L1250.3,924z"/>
		<path class="st4" d="M1275.7,923.5c-2.2,0-4.1-0.4-5.8-1.3c-1.7-0.9-2.9-2-3.9-3.5c-0.9-1.5-1.4-3.2-1.4-5.1s0.4-3.6,1.3-5.1
			c0.9-1.5,2.1-2.7,3.7-3.5c1.6-0.9,3.3-1.3,5.3-1.3c1.9,0,3.6,0.4,5.1,1.2c1.5,0.8,2.7,2,3.6,3.5c0.9,1.5,1.3,3.3,1.3,5.4
			c0,0.2,0,0.5,0,0.7c0,0.3,0,0.5-0.1,0.8h-15.7v-3.3h12.8l-2.2,1c0-1-0.2-1.9-0.6-2.6c-0.4-0.7-1-1.3-1.7-1.7
			c-0.7-0.4-1.6-0.6-2.5-0.6c-1,0-1.8,0.2-2.5,0.6c-0.7,0.4-1.3,1-1.7,1.8c-0.4,0.8-0.6,1.7-0.6,2.7v0.9c0,1.1,0.2,2,0.7,2.8
			c0.5,0.8,1.1,1.4,2,1.8c0.8,0.4,1.8,0.6,3,0.6c1,0,1.9-0.2,2.7-0.5c0.8-0.3,1.5-0.8,2.1-1.4l3,3.2c-0.9,1-2,1.8-3.3,2.3
			C1279,923.2,1277.5,923.5,1275.7,923.5z"/>
		<path class="st4" d="M1288.8,923.2v-19.4h5.4v5.5l-0.8-1.6c0.6-1.4,1.5-2.4,2.8-3.1c1.3-0.7,2.8-1.1,4.6-1.1v5.2
			c-0.2,0-0.4-0.1-0.6-0.1c-0.2,0-0.4,0-0.6,0c-1.6,0-2.8,0.4-3.8,1.3c-0.9,0.9-1.4,2.3-1.4,4.1v9.1H1288.8z"/>
		<path class="st6" d="M1228.9,966.4v-23l2.5,2.5h-7.6v-4.7h10.9v25.2H1228.9z"/>
		<path class="st6" d="M1239,966.4v-3.8l9.7-9.2c0.8-0.7,1.3-1.3,1.7-1.9c0.4-0.5,0.6-1,0.7-1.5c0.1-0.5,0.2-0.9,0.2-1.3
			c0-1-0.3-1.8-1-2.3c-0.7-0.6-1.7-0.8-3-0.8c-1.1,0-2.1,0.2-3,0.6c-0.9,0.4-1.6,1.1-2.3,1.9l-4.2-2.7c0.9-1.4,2.3-2.6,4-3.4
			c1.7-0.8,3.7-1.3,6-1.3c1.9,0,3.5,0.3,4.9,0.9c1.4,0.6,2.5,1.5,3.3,2.6c0.8,1.1,1.2,2.4,1.2,4c0,0.8-0.1,1.6-0.3,2.4
			c-0.2,0.8-0.6,1.7-1.2,2.6c-0.6,0.9-1.5,1.9-2.7,3l-8.1,7.6l-1.1-2.1h14.3v4.8H1239z"/>
		<path class="st6" d="M1260.2,966.4v-3.8l9.7-9.2c0.8-0.7,1.3-1.3,1.7-1.9c0.4-0.5,0.6-1,0.7-1.5c0.1-0.5,0.2-0.9,0.2-1.3
			c0-1-0.3-1.8-1-2.3c-0.7-0.6-1.7-0.8-3-0.8c-1.1,0-2.1,0.2-3,0.6c-0.9,0.4-1.6,1.1-2.3,1.9l-4.2-2.7c0.9-1.4,2.3-2.6,4-3.4
			c1.7-0.8,3.7-1.3,6-1.3c1.9,0,3.5,0.3,4.9,0.9c1.4,0.6,2.5,1.5,3.3,2.6c0.8,1.1,1.2,2.4,1.2,4c0,0.8-0.1,1.6-0.3,2.4
			c-0.2,0.8-0.6,1.7-1.2,2.6c-0.6,0.9-1.5,1.9-2.7,3l-8.1,7.6l-1.1-2.1h14.3v4.8H1260.2z"/>
	</g>
</g>
<g>
	<g>
		<path class="st4" d="M1518.8,923.2V898h10.9c2.3,0,4.2,0.4,5.8,1.1c1.6,0.7,2.9,1.8,3.8,3.1c0.9,1.4,1.3,3,1.3,4.9
			c0,1.9-0.4,3.5-1.3,4.9c-0.9,1.4-2.1,2.4-3.8,3.1c-1.6,0.7-3.6,1.1-5.8,1.1h-7.7l2.7-2.6v9.6H1518.8z M1524.7,914.3l-2.7-2.8h7.4
			c1.8,0,3.1-0.4,4-1.2c0.9-0.8,1.4-1.8,1.4-3.2s-0.5-2.5-1.4-3.2c-0.9-0.8-2.3-1.1-4-1.1h-7.4l2.7-2.8V914.3z"/>
		<path class="st4" d="M1556.6,903.6c1.5,0,2.9,0.3,4.1,0.9c1.2,0.6,2.2,1.5,2.9,2.8c0.7,1.3,1,2.9,1,4.8v11.1h-5.6V913
			c0-1.6-0.3-2.7-1-3.5s-1.7-1.1-2.9-1.1c-0.9,0-1.7,0.2-2.4,0.6c-0.7,0.4-1.3,0.9-1.7,1.7c-0.4,0.7-0.6,1.7-0.6,3v9.6h-5.6v-26.7
			h5.6v12.7l-1.3-1.6c0.7-1.3,1.7-2.3,3-3C1553.4,903.9,1554.9,903.6,1556.6,903.6z"/>
		<path class="st4" d="M1572.5,901.2c-1.1,0-1.9-0.3-2.6-0.9c-0.6-0.6-1-1.3-1-2.2c0-0.9,0.3-1.6,1-2.2c0.6-0.6,1.5-0.9,2.6-0.9
			c1,0,1.9,0.3,2.5,0.8c0.7,0.6,1,1.3,1,2.2c0,0.9-0.3,1.7-1,2.3C1574.4,900.8,1573.5,901.2,1572.5,901.2z M1569.7,923.2v-19.4h5.6
			v19.4H1569.7z"/>
		<path class="st4" d="M1580.5,923.2v-26.7h5.6v26.7H1580.5z"/>
		<path class="st4" d="M1594.2,901.2c-1.1,0-1.9-0.3-2.6-0.9c-0.6-0.6-1-1.3-1-2.2c0-0.9,0.3-1.6,1-2.2c0.6-0.6,1.5-0.9,2.6-0.9
			c1,0,1.9,0.3,2.5,0.8c0.7,0.6,1,1.3,1,2.2c0,0.9-0.3,1.7-1,2.3C1596.1,900.8,1595.2,901.2,1594.2,901.2z M1591.4,923.2v-19.4h5.6
			v19.4H1591.4z"/>
		<path class="st4" d="M1602.2,930.2v-26.4h5.4v4l-0.1,5.8l0.4,5.7v10.9H1602.2z M1613.6,923.5c-1.6,0-3-0.4-4.2-1.1
			c-1.2-0.7-2.2-1.8-2.9-3.3s-1-3.3-1-5.6c0-2.3,0.3-4.2,1-5.6s1.6-2.6,2.8-3.3c1.2-0.7,2.7-1.1,4.3-1.1c1.8,0,3.5,0.4,5,1.2
			c1.5,0.8,2.6,2,3.5,3.5c0.9,1.5,1.3,3.2,1.3,5.3c0,2-0.4,3.8-1.3,5.3c-0.9,1.5-2,2.6-3.5,3.5
			C1617.1,923.1,1615.4,923.5,1613.6,923.5z M1612.7,918.9c0.9,0,1.8-0.2,2.5-0.6c0.7-0.4,1.3-1,1.8-1.9c0.4-0.8,0.7-1.8,0.7-2.9
			c0-1.1-0.2-2.1-0.7-2.9c-0.4-0.8-1-1.4-1.8-1.8c-0.7-0.4-1.6-0.6-2.5-0.6s-1.8,0.2-2.5,0.6c-0.7,0.4-1.3,1-1.8,1.8
			c-0.4,0.8-0.7,1.8-0.7,2.9c0,1.1,0.2,2.1,0.7,2.9c0.4,0.8,1,1.4,1.8,1.9C1610.9,918.7,1611.7,918.9,1612.7,918.9z"/>
		<path class="st4" d="M1633.5,923.5c-1.7,0-3.2-0.2-4.8-0.6c-1.5-0.4-2.7-0.9-3.6-1.5l1.8-4c0.9,0.5,2,1,3.2,1.3
			c1.2,0.3,2.4,0.5,3.6,0.5c1.3,0,2.2-0.2,2.8-0.5s0.8-0.7,0.8-1.3c0-0.5-0.2-0.8-0.6-1c-0.4-0.2-1-0.4-1.7-0.5
			c-0.7-0.1-1.4-0.2-2.3-0.4c-0.8-0.1-1.7-0.3-2.5-0.5s-1.6-0.5-2.3-0.9c-0.7-0.4-1.3-0.9-1.7-1.6c-0.4-0.7-0.6-1.6-0.6-2.7
			c0-1.2,0.4-2.3,1.1-3.3c0.7-0.9,1.7-1.7,3.1-2.2c1.3-0.5,2.9-0.8,4.8-0.8c1.3,0,2.7,0.2,4,0.5c1.4,0.3,2.5,0.7,3.4,1.2l-1.9,4
			c-0.9-0.5-1.8-0.9-2.8-1.1s-1.9-0.3-2.7-0.3c-1.3,0-2.2,0.2-2.8,0.5c-0.6,0.3-0.9,0.8-0.9,1.3c0,0.5,0.2,0.8,0.6,1.1
			s1,0.4,1.7,0.6c0.7,0.1,1.5,0.2,2.3,0.4c0.8,0.1,1.7,0.3,2.5,0.5c0.8,0.2,1.6,0.5,2.3,0.9c0.7,0.4,1.3,0.9,1.7,1.6
			c0.4,0.7,0.6,1.6,0.6,2.7c0,1.2-0.4,2.2-1.1,3.2c-0.7,0.9-1.8,1.7-3.1,2.2C1637.1,923.2,1635.5,923.5,1633.5,923.5z"/>
		<path class="st6" d="M1570.8,966.9c-1.9,0-3.8-0.3-5.4-1c-1.7-0.6-3.1-1.5-4.3-2.7c-1.2-1.2-2.2-2.6-2.9-4.1c-0.7-1.6-1-3.3-1-5.2
			c0-1.9,0.3-3.6,1-5.2c0.7-1.6,1.6-3,2.9-4.1c1.2-1.2,2.7-2.1,4.4-2.7c1.7-0.6,3.5-1,5.4-1c2.2,0,4.2,0.4,5.9,1.1
			c1.8,0.8,3.3,1.9,4.5,3.3l-3.8,3.5c-0.8-1-1.8-1.7-2.9-2.2c-1.1-0.5-2.2-0.8-3.5-0.8c-1.2,0-2.3,0.2-3.2,0.6c-1,0.4-1.8,1-2.6,1.7
			c-0.7,0.7-1.3,1.6-1.7,2.6c-0.4,1-0.6,2.1-0.6,3.3s0.2,2.3,0.6,3.3c0.4,1,1,1.8,1.7,2.6c0.7,0.7,1.6,1.3,2.6,1.7
			c1,0.4,2.1,0.6,3.2,0.6c1.2,0,2.4-0.3,3.5-0.8c1.1-0.5,2-1.3,2.9-2.2l3.8,3.5c-1.2,1.5-2.7,2.6-4.5,3.3
			C1575,966.5,1573,966.9,1570.8,966.9z"/>
		<path class="st6" d="M1587.4,966.7c-1,0-1.8-0.3-2.5-1c-0.7-0.6-1-1.4-1-2.3c0-0.9,0.3-1.7,1-2.3c0.7-0.6,1.5-0.9,2.5-0.9
			c1,0,1.8,0.3,2.5,0.9c0.6,0.6,1,1.4,1,2.3c0,0.9-0.3,1.7-1,2.3C1589.2,966.4,1588.4,966.7,1587.4,966.7z M1585.1,957.6l-1.1-16.4
			h6.7l-1.1,16.4H1585.1z"/>
		<path class="st6" d="M1593.8,966.4v-3.8l9.7-9.2c0.8-0.7,1.3-1.3,1.7-1.9c0.4-0.5,0.6-1,0.7-1.5c0.1-0.5,0.2-0.9,0.2-1.3
			c0-1-0.3-1.8-1-2.3c-0.7-0.6-1.7-0.8-3-0.8c-1.1,0-2.1,0.2-3,0.6c-0.9,0.4-1.6,1.1-2.3,1.9l-4.2-2.7c0.9-1.4,2.3-2.6,4-3.4
			c1.7-0.8,3.7-1.3,6-1.3c1.9,0,3.5,0.3,4.9,0.9c1.4,0.6,2.5,1.5,3.3,2.6c0.8,1.1,1.2,2.4,1.2,4c0,0.8-0.1,1.6-0.3,2.4
			c-0.2,0.8-0.6,1.7-1.2,2.6c-0.6,0.9-1.5,1.9-2.7,3l-8.1,7.6l-1.1-2.1h14.3v4.8H1593.8z"/>
	</g>
</g>
<g>
	<g>
		<path class="st4" d="M1834.9,923.2V898h4.8l14.9,18.1h-2.3V898h5.8v25.2h-4.8l-14.9-18.1h2.3v18.1H1834.9z"/>
		<path class="st4" d="M1873.2,923.5c-2.2,0-4.1-0.4-5.8-1.3s-2.9-2-3.9-3.5c-0.9-1.5-1.4-3.2-1.4-5.1s0.4-3.6,1.3-5.1
			s2.1-2.7,3.7-3.5c1.6-0.9,3.3-1.3,5.3-1.3c1.9,0,3.6,0.4,5.1,1.2c1.5,0.8,2.7,2,3.6,3.5c0.9,1.5,1.3,3.3,1.3,5.4
			c0,0.2,0,0.5,0,0.7c0,0.3,0,0.5-0.1,0.8h-15.7v-3.3h12.8l-2.2,1c0-1-0.2-1.9-0.6-2.6c-0.4-0.7-1-1.3-1.7-1.7
			c-0.7-0.4-1.6-0.6-2.5-0.6c-1,0-1.8,0.2-2.5,0.6c-0.7,0.4-1.3,1-1.7,1.8c-0.4,0.8-0.6,1.7-0.6,2.7v0.9c0,1.1,0.2,2,0.7,2.8
			s1.1,1.4,2,1.8c0.8,0.4,1.8,0.6,3,0.6c1,0,1.9-0.2,2.7-0.5c0.8-0.3,1.5-0.8,2.1-1.4l3,3.2c-0.9,1-2,1.8-3.3,2.3
			C1876.5,923.2,1874.9,923.5,1873.2,923.5z"/>
		<path class="st4" d="M1894.4,923.5c-1.6,0-3.1-0.3-4.3-0.9c-1.2-0.6-2.2-1.6-2.9-2.9c-0.7-1.3-1-2.9-1-4.9v-10.9h5.6v10.1
			c0,1.6,0.3,2.8,1,3.6c0.7,0.8,1.7,1.1,2.9,1.1c0.9,0,1.6-0.2,2.3-0.6c0.7-0.4,1.2-1,1.6-1.7c0.4-0.8,0.6-1.7,0.6-2.9v-9.6h5.6
			v19.4h-5.3v-5.4l1,1.6c-0.7,1.3-1.6,2.4-2.9,3C1897.3,923.2,1895.9,923.5,1894.4,923.5z"/>
		<path class="st4" d="M1935.8,903.6c1.5,0,2.9,0.3,4.1,0.9c1.2,0.6,2.1,1.5,2.8,2.8c0.7,1.3,1,2.9,1,4.8v11.1h-5.6V913
			c0-1.6-0.3-2.7-1-3.5c-0.6-0.7-1.5-1.1-2.7-1.1c-0.8,0-1.6,0.2-2.2,0.6c-0.6,0.4-1.1,0.9-1.5,1.7c-0.3,0.7-0.5,1.7-0.5,2.9v9.7
			h-5.6V913c0-1.6-0.3-2.7-1-3.5c-0.6-0.7-1.6-1.1-2.8-1.1c-0.8,0-1.5,0.2-2.2,0.6c-0.6,0.4-1.2,0.9-1.5,1.7
			c-0.4,0.7-0.5,1.7-0.5,2.9v9.7h-5.6v-19.4h5.4v5.3l-1-1.5c0.6-1.3,1.6-2.3,2.8-3c1.2-0.7,2.7-1,4.2-1c1.8,0,3.3,0.5,4.7,1.4
			c1.3,0.9,2.2,2.3,2.7,4.1l-2-0.5c0.6-1.5,1.7-2.7,3.1-3.6C1932.3,904,1933.9,903.6,1935.8,903.6z"/>
		<path class="st4" d="M1954.7,923.5c-1.5,0-2.8-0.3-3.9-0.8c-1.1-0.5-1.9-1.2-2.5-2.1c-0.6-0.9-0.9-1.9-0.9-3c0-1.1,0.3-2.1,0.8-3
			c0.6-0.9,1.5-1.6,2.7-2c1.2-0.5,2.8-0.7,4.8-0.7h5.1v3.2h-4.5c-1.3,0-2.2,0.2-2.7,0.6c-0.5,0.4-0.7,1-0.7,1.6
			c0,0.7,0.3,1.3,0.8,1.7c0.6,0.4,1.3,0.6,2.3,0.6s1.8-0.2,2.6-0.6c0.8-0.4,1.3-1.1,1.6-2l0.9,2.6c-0.4,1.2-1.2,2.1-2.2,2.8
			C1957.8,923.2,1956.4,923.5,1954.7,923.5z M1960.6,923.2v-3.8l-0.4-0.8v-6.8c0-1.2-0.4-2.1-1.1-2.8c-0.7-0.7-1.9-1-3.4-1
			c-1,0-2,0.2-3,0.5s-1.9,0.8-2.6,1.3l-2-3.9c1.1-0.8,2.3-1.3,3.8-1.7c1.5-0.4,3-0.6,4.5-0.6c3,0,5.2,0.7,6.9,2.1
			c1.6,1.4,2.4,3.6,2.4,6.5v11.1H1960.6z"/>
		<path class="st4" d="M1982.7,903.6c1.5,0,2.9,0.3,4.1,0.9c1.2,0.6,2.2,1.5,2.9,2.8c0.7,1.3,1,2.9,1,4.8v11.1h-5.6V913
			c0-1.6-0.3-2.7-1-3.5c-0.7-0.7-1.7-1.1-2.9-1.1c-0.9,0-1.7,0.2-2.4,0.6c-0.7,0.4-1.3,0.9-1.7,1.7c-0.4,0.7-0.6,1.7-0.6,3v9.6h-5.6
			v-19.4h5.4v5.4l-1-1.6c0.7-1.3,1.7-2.3,3-3C1979.6,903.9,1981.1,903.6,1982.7,903.6z"/>
		<path class="st6" d="M1877.7,966.4v-25.2h5.8v25.2H1877.7z M1882.9,960.7l-0.3-6.7l12.1-12.7h6.5l-10.8,11.7l-3.3,3.5
			L1882.9,960.7z M1894.9,966.4l-9-10.9l3.8-4.2l12,15.1H1894.9z"/>
		<path class="st6" d="M1906.6,966.4v-23l2.5,2.5h-7.6v-4.7h10.9v25.2H1906.6z"/>
		<path class="st6" d="M1927.3,966.9c-2.1,0-4-0.3-5.6-0.9c-1.6-0.6-2.8-1.5-3.7-2.7s-1.3-2.5-1.3-4.1c0-1.6,0.4-2.9,1.3-4
			c0.9-1.1,2.1-1.9,3.7-2.5c1.6-0.6,3.5-0.9,5.6-0.9c2.2,0,4,0.3,5.6,0.9s2.8,1.4,3.7,2.5c0.9,1.1,1.3,2.4,1.3,3.9
			c0,1.6-0.4,3-1.3,4.1c-0.9,1.2-2.1,2.1-3.7,2.7C1931.3,966.5,1929.4,966.9,1927.3,966.9z M1927.3,954.8c-1.9,0-3.6-0.3-5.1-0.8
			c-1.5-0.5-2.6-1.3-3.4-2.3c-0.8-1-1.2-2.2-1.2-3.7c0-1.5,0.4-2.7,1.2-3.8c0.8-1.1,2-1.9,3.4-2.5c1.5-0.6,3.1-0.9,5-0.9
			c1.9,0,3.6,0.3,5.1,0.9c1.5,0.6,2.6,1.4,3.4,2.5c0.8,1.1,1.2,2.3,1.2,3.8c0,1.4-0.4,2.7-1.2,3.7c-0.8,1-1.9,1.8-3.4,2.3
			C1931,954.5,1929.2,954.8,1927.3,954.8z M1927.3,962.6c1.5,0,2.6-0.3,3.5-1c0.9-0.6,1.3-1.5,1.3-2.7c0-1.1-0.4-1.9-1.3-2.6
			c-0.9-0.6-2-1-3.5-1c-1.4,0-2.6,0.3-3.4,1c-0.9,0.6-1.3,1.5-1.3,2.6c0,1.2,0.4,2.1,1.3,2.7
			C1924.7,962.2,1925.8,962.6,1927.3,962.6z M1927.3,951.3c1.2,0,2.2-0.3,2.9-0.8c0.7-0.6,1.1-1.3,1.1-2.3s-0.4-1.8-1.1-2.3
			c-0.7-0.6-1.7-0.8-2.9-0.8c-1.2,0-2.1,0.3-2.8,0.8c-0.7,0.6-1.1,1.3-1.1,2.3c0,1,0.3,1.7,1,2.3
			C1925.1,951.1,1926.1,951.3,1927.3,951.3z"/>
		<path class="st6" d="M1949.2,966.9c-1.8,0-3.5-0.2-5.2-0.7c-1.7-0.5-3.2-1.1-4.4-2l2.3-4.4c0.9,0.7,2,1.3,3.3,1.7s2.5,0.6,3.9,0.6
			c1.5,0,2.6-0.3,3.5-0.9c0.9-0.6,1.3-1.4,1.3-2.4c0-0.7-0.2-1.2-0.5-1.7c-0.3-0.5-0.9-0.9-1.8-1.1c-0.9-0.3-2-0.4-3.6-0.4h-6.4
			l1.3-14.2h15.4v4.7h-13.3l3-2.7l-0.9,10.1l-3-2.6h5.3c2.5,0,4.5,0.3,6,1c1.5,0.7,2.6,1.6,3.3,2.8c0.7,1.2,1.1,2.5,1.1,4
			c0,1.5-0.4,2.8-1.1,4.1c-0.7,1.3-1.9,2.3-3.4,3.1C1953.5,966.5,1951.6,966.9,1949.2,966.9z"/>
	</g>
</g>
<g>
	<g>
		<path class="st4" d="M2215.3,923.7c-2,0-4-0.3-5.8-0.8c-1.9-0.5-3.4-1.2-4.5-2.1l2-4.4c1.1,0.8,2.3,1.4,3.8,1.9
			c1.5,0.5,3,0.7,4.5,0.7c1.2,0,2.1-0.1,2.8-0.4c0.7-0.2,1.2-0.6,1.6-1c0.3-0.4,0.5-0.9,0.5-1.4c0-0.7-0.3-1.2-0.8-1.6
			c-0.5-0.4-1.2-0.7-2.1-1c-0.9-0.3-1.8-0.5-2.9-0.7c-1-0.2-2.1-0.5-3.1-0.8c-1-0.3-2-0.8-2.9-1.3c-0.9-0.5-1.6-1.2-2.1-2.1
			c-0.5-0.9-0.8-2-0.8-3.3c0-1.4,0.4-2.8,1.2-3.9c0.8-1.2,1.9-2.1,3.5-2.8c1.6-0.7,3.5-1.1,5.9-1.1c1.6,0,3.2,0.2,4.7,0.6
			s2.9,0.9,4,1.7l-1.8,4.4c-1.1-0.6-2.3-1.1-3.5-1.5s-2.4-0.5-3.5-0.5c-1.2,0-2.1,0.1-2.8,0.4c-0.7,0.3-1.2,0.6-1.5,1
			c-0.3,0.4-0.5,0.9-0.5,1.4c0,0.7,0.3,1.2,0.8,1.6c0.5,0.4,1.2,0.7,2.1,1c0.9,0.2,1.8,0.5,2.9,0.7c1.1,0.2,2.1,0.5,3.1,0.8
			c1,0.3,2,0.8,2.8,1.3c0.9,0.5,1.6,1.2,2.1,2.1s0.8,2,0.8,3.3c0,1.4-0.4,2.7-1.2,3.9c-0.8,1.2-2,2.1-3.5,2.8
			C2219.7,923.3,2217.7,923.7,2215.3,923.7z"/>
		<path class="st4" d="M2238.8,923.5c-2,0-3.9-0.4-5.5-1.3c-1.6-0.9-2.9-2-3.8-3.5c-0.9-1.5-1.4-3.2-1.4-5.1c0-1.9,0.5-3.7,1.4-5.2
			c0.9-1.5,2.2-2.7,3.8-3.5c1.6-0.9,3.4-1.3,5.5-1.3c2.1,0,3.9,0.4,5.5,1.3c1.6,0.9,2.9,2,3.8,3.5c0.9,1.5,1.4,3.2,1.4,5.2
			c0,1.9-0.5,3.7-1.4,5.1c-0.9,1.5-2.2,2.7-3.8,3.5C2242.7,923.1,2240.8,923.5,2238.8,923.5z M2238.8,918.9c1,0,1.8-0.2,2.5-0.6
			c0.7-0.4,1.3-1,1.8-1.9c0.4-0.8,0.7-1.8,0.7-2.9c0-1.1-0.2-2.1-0.7-2.9c-0.4-0.8-1-1.4-1.8-1.8c-0.7-0.4-1.6-0.6-2.5-0.6
			c-0.9,0-1.8,0.2-2.5,0.6s-1.3,1-1.8,1.8s-0.7,1.8-0.7,2.9c0,1.1,0.2,2.1,0.7,2.9s1,1.4,1.8,1.9
			C2237,918.7,2237.9,918.9,2238.8,918.9z"/>
		<path class="st4" d="M2264.9,903.6c1.5,0,2.9,0.3,4.1,0.9c1.2,0.6,2.2,1.5,2.9,2.8c0.7,1.3,1,2.9,1,4.8v11.1h-5.6V913
			c0-1.6-0.3-2.7-1-3.5c-0.7-0.7-1.7-1.1-2.9-1.1c-0.9,0-1.7,0.2-2.4,0.6s-1.3,0.9-1.7,1.7c-0.4,0.7-0.6,1.7-0.6,3v9.6h-5.6v-19.4
			h5.4v5.4l-1-1.6c0.7-1.3,1.7-2.3,3-3C2261.8,903.9,2263.3,903.6,2264.9,903.6z"/>
		<path class="st4" d="M2280.5,930.5c-1,0-2-0.2-3-0.5s-1.8-0.7-2.4-1.3l2.1-4c0.4,0.4,0.9,0.7,1.5,0.9c0.6,0.2,1.1,0.3,1.7,0.3
			c0.8,0,1.4-0.2,1.9-0.6s0.9-1,1.3-1.9l1-2.4l0.4-0.6l7-16.7h5.4l-8.7,20.6c-0.6,1.6-1.3,2.8-2.1,3.7c-0.8,0.9-1.7,1.5-2.7,1.9
			C2282.7,930.3,2281.7,930.5,2280.5,930.5z M2283.8,924l-8.6-20.1h5.8l6.7,16.2L2283.8,924z"/>
		<path class="st6" d="M2220.9,966.9c-1.9,0-3.8-0.3-5.4-1c-1.7-0.6-3.1-1.5-4.3-2.7c-1.2-1.2-2.2-2.6-2.9-4.1s-1-3.3-1-5.2
			c0-1.9,0.3-3.6,1-5.2s1.6-3,2.9-4.1s2.7-2.1,4.4-2.7c1.7-0.6,3.5-1,5.4-1c2.2,0,4.2,0.4,5.9,1.1s3.3,1.9,4.5,3.3l-3.8,3.5
			c-0.8-1-1.8-1.7-2.9-2.2c-1.1-0.5-2.2-0.8-3.5-0.8c-1.2,0-2.3,0.2-3.2,0.6c-1,0.4-1.8,1-2.6,1.7c-0.7,0.7-1.3,1.6-1.7,2.6
			c-0.4,1-0.6,2.1-0.6,3.3s0.2,2.3,0.6,3.3c0.4,1,1,1.8,1.7,2.6c0.7,0.7,1.6,1.3,2.6,1.7c1,0.4,2.1,0.6,3.2,0.6
			c1.2,0,2.4-0.3,3.5-0.8c1.1-0.5,2-1.3,2.9-2.2l3.8,3.5c-1.2,1.5-2.7,2.6-4.5,3.3C2225.1,966.5,2223.1,966.9,2220.9,966.9z"/>
		<path class="st6" d="M2237.5,966.4v-23l2.5,2.5h-7.6v-4.7h10.9v25.2H2237.5z"/>
		<path class="st6" d="M2258.5,966.9c-2.1,0-3.9-0.5-5.5-1.5c-1.6-1-2.9-2.5-3.9-4.4c-0.9-1.9-1.4-4.3-1.4-7.1s0.5-5.1,1.4-7.1
			s2.2-3.4,3.9-4.4c1.6-1,3.5-1.5,5.5-1.5c2.1,0,3.9,0.5,5.6,1.5c1.6,1,2.9,2.5,3.9,4.4s1.4,4.3,1.4,7.1s-0.5,5.1-1.4,7.1
			c-0.9,1.9-2.2,3.4-3.9,4.4S2260.6,966.9,2258.5,966.9z M2258.5,962c1,0,1.8-0.3,2.6-0.8c0.7-0.6,1.3-1.4,1.7-2.6s0.6-2.7,0.6-4.6
			c0-1.9-0.2-3.4-0.6-4.6c-0.4-1.2-1-2.1-1.7-2.6c-0.7-0.6-1.6-0.8-2.6-0.8c-0.9,0-1.8,0.3-2.5,0.8c-0.7,0.6-1.3,1.4-1.8,2.6
			c-0.4,1.2-0.6,2.7-0.6,4.6c0,1.9,0.2,3.4,0.6,4.6c0.4,1.2,1,2.1,1.8,2.6C2256.7,961.7,2257.6,962,2258.5,962z"/>
		<path class="st6" d="M2283,966.9c-2.1,0-3.9-0.5-5.5-1.5c-1.6-1-2.9-2.5-3.9-4.4c-0.9-1.9-1.4-4.3-1.4-7.1s0.5-5.1,1.4-7.1
			s2.2-3.4,3.9-4.4c1.6-1,3.5-1.5,5.5-1.5c2.1,0,3.9,0.5,5.6,1.5c1.6,1,2.9,2.5,3.9,4.4s1.4,4.3,1.4,7.1s-0.5,5.1-1.4,7.1
			c-0.9,1.9-2.2,3.4-3.9,4.4S2285,966.9,2283,966.9z M2283,962c1,0,1.8-0.3,2.6-0.8c0.7-0.6,1.3-1.4,1.7-2.6s0.6-2.7,0.6-4.6
			c0-1.9-0.2-3.4-0.6-4.6c-0.4-1.2-1-2.1-1.7-2.6c-0.7-0.6-1.6-0.8-2.6-0.8c-0.9,0-1.8,0.3-2.5,0.8c-0.7,0.6-1.3,1.4-1.8,2.6
			c-0.4,1.2-0.6,2.7-0.6,4.6c0,1.9,0.2,3.4,0.6,4.6c0.4,1.2,1,2.1,1.8,2.6C2281.2,961.7,2282,962,2283,962z"/>
	</g>
</g>
<g>
	<g>
		<path class="st4" d="M2534.2,923.7c-2,0-4-0.3-5.8-0.8c-1.9-0.5-3.4-1.2-4.5-2.1l2-4.4c1.1,0.8,2.3,1.4,3.8,1.9
			c1.5,0.5,3,0.7,4.5,0.7c1.2,0,2.1-0.1,2.8-0.4c0.7-0.2,1.2-0.6,1.6-1c0.3-0.4,0.5-0.9,0.5-1.4c0-0.7-0.3-1.2-0.8-1.6
			c-0.5-0.4-1.2-0.7-2.1-1c-0.9-0.3-1.8-0.5-2.9-0.7c-1-0.2-2.1-0.5-3.1-0.8c-1-0.3-2-0.8-2.9-1.3s-1.6-1.2-2.1-2.1
			c-0.5-0.9-0.8-2-0.8-3.3c0-1.4,0.4-2.8,1.2-3.9c0.8-1.2,1.9-2.1,3.5-2.8c1.6-0.7,3.5-1.1,5.9-1.1c1.6,0,3.2,0.2,4.7,0.6
			s2.9,0.9,4,1.7l-1.8,4.4c-1.1-0.6-2.3-1.1-3.5-1.5s-2.4-0.5-3.5-0.5c-1.2,0-2.1,0.1-2.8,0.4s-1.2,0.6-1.5,1
			c-0.3,0.4-0.5,0.9-0.5,1.4c0,0.7,0.3,1.2,0.8,1.6c0.5,0.4,1.2,0.7,2.1,1c0.9,0.2,1.8,0.5,2.9,0.7c1.1,0.2,2.1,0.5,3.1,0.8
			c1,0.3,2,0.8,2.8,1.3c0.9,0.5,1.6,1.2,2.1,2.1s0.8,2,0.8,3.3c0,1.4-0.4,2.7-1.2,3.9c-0.8,1.2-2,2.1-3.5,2.8
			C2538.5,923.3,2536.5,923.7,2534.2,923.7z"/>
		<path class="st4" d="M2560.2,903.6c1.5,0,2.9,0.3,4.1,0.9c1.2,0.6,2.2,1.5,2.9,2.8c0.7,1.3,1,2.9,1,4.8v11.1h-5.6V913
			c0-1.6-0.3-2.7-1-3.5c-0.7-0.7-1.7-1.1-2.9-1.1c-0.9,0-1.7,0.2-2.4,0.6c-0.7,0.4-1.3,0.9-1.7,1.7c-0.4,0.7-0.6,1.7-0.6,3v9.6h-5.6
			v-26.7h5.6v12.7l-1.3-1.6c0.7-1.3,1.7-2.3,3-3C2557.1,903.9,2558.5,903.6,2560.2,903.6z"/>
		<path class="st4" d="M2581.5,923.5c-1.6,0-3.1-0.3-4.3-0.9c-1.2-0.6-2.2-1.6-2.9-2.9s-1-2.9-1-4.9v-10.9h5.6v10.1
			c0,1.6,0.3,2.8,1,3.6c0.7,0.8,1.6,1.1,2.9,1.1c0.9,0,1.6-0.2,2.3-0.6c0.7-0.4,1.2-1,1.6-1.7c0.4-0.8,0.6-1.7,0.6-2.9v-9.6h5.6
			v19.4h-5.3v-5.4l1,1.6c-0.7,1.3-1.6,2.4-2.9,3C2584.3,923.2,2582.9,923.5,2581.5,923.5z"/>
		<path class="st4" d="M2598,923.2v-19.4h5.4v5.5l-0.8-1.6c0.6-1.4,1.5-2.4,2.8-3.1c1.3-0.7,2.8-1.1,4.6-1.1v5.2
			c-0.2,0-0.4-0.1-0.6-0.1c-0.2,0-0.4,0-0.6,0c-1.6,0-2.8,0.4-3.8,1.3c-0.9,0.9-1.4,2.3-1.4,4.1v9.1H2598z"/>
		<path class="st4" d="M2623.1,923.5c-2.2,0-4.1-0.4-5.8-1.3c-1.7-0.9-2.9-2-3.9-3.5s-1.4-3.2-1.4-5.1s0.4-3.6,1.3-5.1
			c0.9-1.5,2.1-2.7,3.7-3.5c1.6-0.9,3.3-1.3,5.3-1.3c1.9,0,3.6,0.4,5.1,1.2c1.5,0.8,2.7,2,3.6,3.5s1.3,3.3,1.3,5.4
			c0,0.2,0,0.5,0,0.7c0,0.3,0,0.5-0.1,0.8h-15.7v-3.3h12.8l-2.2,1c0-1-0.2-1.9-0.6-2.6c-0.4-0.7-1-1.3-1.7-1.7
			c-0.7-0.4-1.6-0.6-2.5-0.6s-1.8,0.2-2.5,0.6c-0.7,0.4-1.3,1-1.7,1.8s-0.6,1.7-0.6,2.7v0.9c0,1.1,0.2,2,0.7,2.8
			c0.5,0.8,1.1,1.4,2,1.8s1.8,0.6,3,0.6c1,0,1.9-0.2,2.7-0.5s1.5-0.8,2.1-1.4l3,3.2c-0.9,1-2,1.8-3.3,2.3
			C2626.4,923.2,2624.9,923.5,2623.1,923.5z"/>
		<path class="st6" d="M2540.7,966.9c-2,0-4-0.3-5.8-0.8c-1.9-0.5-3.4-1.2-4.5-2.1l2-4.4c1.1,0.8,2.3,1.4,3.8,1.9
			c1.5,0.5,3,0.7,4.5,0.7c1.2,0,2.1-0.1,2.8-0.4c0.7-0.2,1.2-0.6,1.6-1c0.3-0.4,0.5-0.9,0.5-1.4c0-0.7-0.3-1.2-0.8-1.6
			c-0.5-0.4-1.2-0.7-2.1-1c-0.9-0.3-1.8-0.5-2.9-0.7c-1-0.2-2.1-0.5-3.1-0.8c-1-0.3-2-0.8-2.9-1.3c-0.9-0.5-1.6-1.2-2.1-2.1
			c-0.5-0.9-0.8-2-0.8-3.3c0-1.4,0.4-2.8,1.2-3.9c0.8-1.2,1.9-2.1,3.5-2.8c1.6-0.7,3.5-1.1,5.9-1.1c1.6,0,3.2,0.2,4.7,0.6
			s2.9,0.9,4,1.7l-1.8,4.4c-1.1-0.6-2.3-1.1-3.5-1.5s-2.4-0.5-3.5-0.5c-1.2,0-2.1,0.1-2.8,0.4c-0.7,0.3-1.2,0.6-1.5,1
			c-0.3,0.4-0.5,0.9-0.5,1.4c0,0.7,0.3,1.2,0.8,1.6c0.5,0.4,1.2,0.7,2.1,1c0.9,0.2,1.8,0.5,2.9,0.7c1.1,0.2,2.1,0.5,3.1,0.8
			c1,0.3,2,0.8,2.8,1.3c0.9,0.5,1.6,1.2,2.1,2.1s0.8,2,0.8,3.3c0,1.4-0.4,2.7-1.2,3.9c-0.8,1.2-2,2.1-3.5,2.8
			C2545,966.5,2543,966.9,2540.7,966.9z"/>
		<path class="st6" d="M2555.3,966.4v-25.2h4.8l10.7,17.8h-2.6l10.5-17.8h4.9v25.2h-5.4l-0.1-16.8h1.1l-8.5,14.1h-2.6l-8.6-14.1h1.2
			v16.8H2555.3z"/>
		<path class="st6" d="M2596.7,966.9c-1.8,0-3.5-0.2-5.2-0.7c-1.7-0.5-3.2-1.1-4.4-2l2.3-4.4c0.9,0.7,2,1.3,3.3,1.7s2.5,0.6,3.9,0.6
			c1.5,0,2.6-0.3,3.5-0.9c0.9-0.6,1.3-1.4,1.3-2.4c0-0.7-0.2-1.2-0.5-1.7s-0.9-0.9-1.8-1.1c-0.9-0.3-2-0.4-3.6-0.4h-6.4l1.3-14.2
			h15.4v4.7h-13.3l3-2.7l-0.9,10.1l-3-2.6h5.3c2.5,0,4.5,0.3,6,1c1.5,0.7,2.6,1.6,3.3,2.8c0.7,1.2,1.1,2.5,1.1,4
			c0,1.5-0.4,2.8-1.1,4.1c-0.7,1.3-1.9,2.3-3.4,3.1C2601,966.5,2599.1,966.9,2596.7,966.9z"/>
		<path class="st6" d="M2620,966.9c-2.1,0-4-0.3-5.6-0.9c-1.6-0.6-2.8-1.5-3.7-2.7s-1.3-2.5-1.3-4.1c0-1.6,0.4-2.9,1.3-4
			c0.9-1.1,2.1-1.9,3.7-2.5c1.6-0.6,3.5-0.9,5.6-0.9c2.2,0,4,0.3,5.6,0.9s2.8,1.4,3.7,2.5c0.9,1.1,1.3,2.4,1.3,3.9
			c0,1.6-0.4,3-1.3,4.1c-0.9,1.2-2.1,2.1-3.7,2.7C2624,966.5,2622.1,966.9,2620,966.9z M2620,954.8c-1.9,0-3.6-0.3-5.1-0.8
			c-1.5-0.5-2.6-1.3-3.4-2.3c-0.8-1-1.2-2.2-1.2-3.7c0-1.5,0.4-2.7,1.2-3.8c0.8-1.1,2-1.9,3.4-2.5c1.5-0.6,3.1-0.9,5-0.9
			c1.9,0,3.6,0.3,5.1,0.9c1.5,0.6,2.6,1.4,3.4,2.5c0.8,1.1,1.2,2.3,1.2,3.8c0,1.4-0.4,2.7-1.2,3.7c-0.8,1-1.9,1.8-3.4,2.3
			C2623.6,954.5,2621.9,954.8,2620,954.8z M2620,962.6c1.5,0,2.6-0.3,3.5-1c0.9-0.6,1.3-1.5,1.3-2.7c0-1.1-0.4-1.9-1.3-2.6
			c-0.9-0.6-2-1-3.5-1c-1.4,0-2.6,0.3-3.4,1c-0.9,0.6-1.3,1.5-1.3,2.6c0,1.2,0.4,2.1,1.3,2.7C2617.4,962.2,2618.5,962.6,2620,962.6z
			 M2620,951.3c1.2,0,2.2-0.3,2.9-0.8c0.7-0.6,1.1-1.3,1.1-2.3s-0.4-1.8-1.1-2.3c-0.7-0.6-1.7-0.8-2.9-0.8c-1.2,0-2.1,0.3-2.8,0.8
			c-0.7,0.6-1.1,1.3-1.1,2.3c0,1,0.3,1.7,1,2.3C2617.8,951.1,2618.8,951.3,2620,951.3z"/>
	</g>
</g>
<g>
	<g>
		<path class="st4" d="M2872.1,923.7c-2,0-4-0.3-5.8-0.8c-1.9-0.5-3.4-1.2-4.5-2.1l2-4.4c1.1,0.8,2.3,1.4,3.8,1.9
			c1.5,0.5,3,0.7,4.5,0.7c1.2,0,2.1-0.1,2.8-0.4c0.7-0.2,1.2-0.6,1.6-1c0.3-0.4,0.5-0.9,0.5-1.4c0-0.7-0.3-1.2-0.8-1.6
			c-0.5-0.4-1.2-0.7-2.1-1c-0.9-0.3-1.8-0.5-2.9-0.7c-1-0.2-2.1-0.5-3.1-0.8c-1-0.3-2-0.8-2.9-1.3s-1.6-1.2-2.1-2.1
			c-0.5-0.9-0.8-2-0.8-3.3c0-1.4,0.4-2.8,1.2-3.9c0.8-1.2,1.9-2.1,3.5-2.8c1.6-0.7,3.5-1.1,5.9-1.1c1.6,0,3.2,0.2,4.7,0.6
			s2.9,0.9,4,1.7l-1.8,4.4c-1.1-0.6-2.3-1.1-3.5-1.5s-2.4-0.5-3.5-0.5c-1.2,0-2.1,0.1-2.8,0.4s-1.2,0.6-1.5,1
			c-0.3,0.4-0.5,0.9-0.5,1.4c0,0.7,0.3,1.2,0.8,1.6c0.5,0.4,1.2,0.7,2.1,1c0.9,0.2,1.8,0.5,2.9,0.7c1.1,0.2,2.1,0.5,3.1,0.8
			c1,0.3,2,0.8,2.8,1.3c0.9,0.5,1.6,1.2,2.1,2.1c0.5,0.9,0.8,2,0.8,3.3c0,1.4-0.4,2.7-1.2,3.9c-0.8,1.2-2,2.1-3.5,2.8
			C2876.5,923.3,2874.5,923.7,2872.1,923.7z"/>
		<path class="st4" d="M2898.1,903.6c1.5,0,2.9,0.3,4.1,0.9c1.2,0.6,2.2,1.5,2.9,2.8c0.7,1.3,1,2.9,1,4.8v11.1h-5.6V913
			c0-1.6-0.3-2.7-1-3.5c-0.7-0.7-1.7-1.1-2.9-1.1c-0.9,0-1.7,0.2-2.4,0.6c-0.7,0.4-1.3,0.9-1.7,1.7c-0.4,0.7-0.6,1.7-0.6,3v9.6h-5.6
			v-26.7h5.6v12.7l-1.3-1.6c0.7-1.3,1.7-2.3,3-3C2895,903.9,2896.5,903.6,2898.1,903.6z"/>
		<path class="st4" d="M2919.4,923.5c-1.6,0-3.1-0.3-4.3-0.9c-1.2-0.6-2.2-1.6-2.9-2.9s-1-2.9-1-4.9v-10.9h5.6v10.1
			c0,1.6,0.3,2.8,1,3.6c0.7,0.8,1.6,1.1,2.9,1.1c0.9,0,1.6-0.2,2.3-0.6c0.7-0.4,1.2-1,1.6-1.7c0.4-0.8,0.6-1.7,0.6-2.9v-9.6h5.6
			v19.4h-5.3v-5.4l1,1.6c-0.7,1.3-1.6,2.4-2.9,3C2922.3,923.2,2920.9,923.5,2919.4,923.5z"/>
		<path class="st4" d="M2936,923.2v-19.4h5.4v5.5l-0.8-1.6c0.6-1.4,1.5-2.4,2.8-3.1c1.3-0.7,2.8-1.1,4.6-1.1v5.2
			c-0.2,0-0.4-0.1-0.6-0.1c-0.2,0-0.4,0-0.6,0c-1.6,0-2.8,0.4-3.8,1.3c-0.9,0.9-1.4,2.3-1.4,4.1v9.1H2936z"/>
		<path class="st4" d="M2961.1,923.5c-2.2,0-4.1-0.4-5.8-1.3s-2.9-2-3.9-3.5s-1.4-3.2-1.4-5.1s0.4-3.6,1.3-5.1
			c0.9-1.5,2.1-2.7,3.7-3.5c1.6-0.9,3.3-1.3,5.3-1.3c1.9,0,3.6,0.4,5.1,1.2c1.5,0.8,2.7,2,3.6,3.5c0.9,1.5,1.3,3.3,1.3,5.4
			c0,0.2,0,0.5,0,0.7c0,0.3,0,0.5-0.1,0.8h-15.7v-3.3h12.8l-2.2,1c0-1-0.2-1.9-0.6-2.6c-0.4-0.7-1-1.3-1.7-1.7
			c-0.7-0.4-1.6-0.6-2.5-0.6s-1.8,0.2-2.5,0.6c-0.7,0.4-1.3,1-1.7,1.8c-0.4,0.8-0.6,1.7-0.6,2.7v0.9c0,1.1,0.2,2,0.7,2.8
			c0.5,0.8,1.1,1.4,2,1.8c0.8,0.4,1.8,0.6,3,0.6c1,0,1.9-0.2,2.7-0.5c0.8-0.3,1.5-0.8,2.1-1.4l3,3.2c-0.9,1-2,1.8-3.3,2.3
			C2964.4,923.2,2962.8,923.5,2961.1,923.5z"/>
		<path class="st6" d="M2877,966.9c-2,0-4-0.3-5.8-0.8c-1.9-0.5-3.4-1.2-4.5-2.1l2-4.4c1.1,0.8,2.3,1.4,3.8,1.9
			c1.5,0.5,3,0.7,4.5,0.7c1.2,0,2.1-0.1,2.8-0.4c0.7-0.2,1.2-0.6,1.6-1c0.3-0.4,0.5-0.9,0.5-1.4c0-0.7-0.3-1.2-0.8-1.6
			c-0.5-0.4-1.2-0.7-2.1-1c-0.9-0.3-1.8-0.5-2.9-0.7c-1-0.2-2.1-0.5-3.1-0.8c-1-0.3-2-0.8-2.9-1.3c-0.9-0.5-1.6-1.2-2.1-2.1
			c-0.5-0.9-0.8-2-0.8-3.3c0-1.4,0.4-2.8,1.2-3.9c0.8-1.2,1.9-2.1,3.5-2.8c1.6-0.7,3.5-1.1,5.9-1.1c1.6,0,3.2,0.2,4.7,0.6
			s2.9,0.9,4,1.7l-1.8,4.4c-1.1-0.6-2.3-1.1-3.5-1.5s-2.4-0.5-3.5-0.5c-1.2,0-2.1,0.1-2.8,0.4c-0.7,0.3-1.2,0.6-1.5,1
			c-0.3,0.4-0.5,0.9-0.5,1.4c0,0.7,0.3,1.2,0.8,1.6c0.5,0.4,1.2,0.7,2.1,1c0.9,0.2,1.8,0.5,2.9,0.7c1.1,0.2,2.1,0.5,3.1,0.8
			c1,0.3,2,0.8,2.8,1.3c0.9,0.5,1.6,1.2,2.1,2.1c0.5,0.9,0.8,2,0.8,3.3c0,1.4-0.4,2.7-1.2,3.9c-0.8,1.2-2,2.1-3.5,2.8
			C2881.3,966.5,2879.3,966.9,2877,966.9z"/>
		<path class="st6" d="M2891.6,966.4v-25.2h4.8l10.7,17.8h-2.6l10.5-17.8h4.9v25.2h-5.4l-0.1-16.8h1.1l-8.5,14.1h-2.6l-8.6-14.1h1.2
			v16.8H2891.6z"/>
		<path class="st6" d="M2933,966.9c-1.8,0-3.5-0.2-5.2-0.7c-1.7-0.5-3.2-1.1-4.4-2l2.3-4.4c0.9,0.7,2,1.3,3.3,1.7s2.6,0.6,3.9,0.6
			c1.5,0,2.6-0.3,3.5-0.9c0.9-0.6,1.3-1.4,1.3-2.4c0-0.7-0.2-1.2-0.5-1.7c-0.3-0.5-0.9-0.9-1.8-1.1c-0.9-0.3-2-0.4-3.6-0.4h-6.4
			l1.3-14.2h15.4v4.7h-13.3l3-2.7l-0.9,10.1l-3-2.6h5.3c2.5,0,4.5,0.3,6,1c1.5,0.7,2.6,1.6,3.3,2.8c0.7,1.2,1.1,2.5,1.1,4
			c0,1.5-0.4,2.8-1.1,4.1c-0.7,1.3-1.9,2.3-3.4,3.1C2937.3,966.5,2935.4,966.9,2933,966.9z"/>
		<path class="st6" d="M2949.9,966.4l10.2-23l1.5,2.5H2948l2.5-2.7v6.9h-5.1v-8.9h20.2v3.8l-9.4,21.4H2949.9z"/>
	</g>
</g>
<g>
	<g>
		<path class="st4" d="M3213.8,923.2L3225,898h5.8l11.3,25.2h-6.1l-9.3-22.2h2.3l-9.3,22.2H3213.8z M3219.5,917.8l1.5-4.4h13
			l1.5,4.4H3219.5z"/>
		<path class="st4" d="M3244.7,923.2V898h5.8v25.2H3244.7z M3249.9,917.5l-0.3-6.7l12.1-12.7h6.5l-10.8,11.7l-3.3,3.5L3249.9,917.5z
			 M3261.9,923.2l-9-10.9l3.8-4.2l12,15.1H3261.9z"/>
		<path class="st4" d="M3283.5,923.7c-2,0-3.8-0.3-5.5-1c-1.7-0.6-3.1-1.5-4.4-2.7c-1.2-1.2-2.2-2.6-2.9-4.1s-1-3.3-1-5.2
			c0-1.9,0.3-3.6,1-5.2s1.6-3,2.9-4.1c1.2-1.2,2.7-2.1,4.4-2.7c1.7-0.6,3.5-1,5.5-1c2.2,0,4.2,0.4,6,1.1c1.8,0.7,3.3,1.8,4.5,3.2
			l-3.7,3.5c-0.9-1-1.9-1.7-3-2.2s-2.3-0.7-3.6-0.7c-1.2,0-2.3,0.2-3.3,0.6c-1,0.4-1.9,1-2.6,1.7c-0.7,0.7-1.3,1.6-1.7,2.6
			c-0.4,1-0.6,2.1-0.6,3.3c0,1.2,0.2,2.2,0.6,3.2s1,1.9,1.7,2.6c0.7,0.7,1.6,1.3,2.6,1.7c1,0.4,2.1,0.6,3.3,0.6
			c1.2,0,2.3-0.2,3.4-0.6c1.1-0.4,2.2-1,3.2-1.9l3.3,4.2c-1.4,1.1-3,1.9-4.8,2.4S3285.3,923.7,3283.5,923.7z M3288.4,919.7v-9.5h5.3
			v10.2L3288.4,919.7z"/>
		<path class="st6" d="M3235.7,966.4v-23l2.5,2.5h-7.6v-4.7h10.9v25.2H3235.7z"/>
		<path class="st6" d="M3249.8,966.4v-23l2.5,2.5h-7.6v-4.7h10.9v25.2H3249.8z"/>
		<path class="st6" d="M3259.8,966.4v-3.8l9.7-9.2c0.8-0.7,1.3-1.3,1.7-1.9c0.4-0.5,0.6-1,0.7-1.5c0.1-0.5,0.2-0.9,0.2-1.3
			c0-1-0.3-1.8-1-2.3c-0.7-0.6-1.7-0.8-3-0.8c-1.1,0-2.1,0.2-3,0.6s-1.6,1.1-2.3,1.9l-4.2-2.7c0.9-1.4,2.3-2.6,4-3.4
			c1.7-0.8,3.7-1.3,6-1.3c1.9,0,3.5,0.3,4.9,0.9c1.4,0.6,2.5,1.5,3.3,2.6c0.8,1.1,1.2,2.4,1.2,4c0,0.8-0.1,1.6-0.3,2.4
			c-0.2,0.8-0.6,1.7-1.2,2.6s-1.5,1.9-2.7,3l-8.1,7.6l-1.1-2.1h14.3v4.8H3259.8z"/>
	</g>
</g>
</svg>
