<?xml version="1.0" encoding="UTF-8"?>
<svg id="Capa_2" data-name="Capa 2" xmlns="http://www.w3.org/2000/svg" viewBox="0 0 101.44 509.95">
  <defs>
    <style>
      .cls-1 {
        stroke-linejoin: round;
      }

      .cls-1, .cls-2 {
        fill: none;
        stroke: #903;
        stroke-width: 8px;
      }

      .cls-2 {
        stroke-miterlimit: 10;
      }

      .cls-3 {
        fill: #903;
      }
    </style>
  </defs>
  <g id="Capa_2-2" data-name="Capa 2">
    <g>
      <path class="cls-2" d="M17.5,498.7l4.3,1.7c18.6,7.4,39.3,7.4,57.9,0l4.3-1.7,13.3-379.2H4.2l13.3,379.2Z"/>
      <path class="cls-2" d="M4.2,67.4l11.3,1.6c23.4,3.3,47.1,3.3,70.4,0l11.3-1.6v26.6l-5.3.8c-27.4,3.9-55.2,3.9-82.6,0l-5.3-.8v-26.6h.2Z"/>
      <polyline class="cls-1" points="4.2 59.9 10.9 20 17.5 20 90.7 20 97.4 59.9"/>
      <path class="cls-3" d="M74.1,0H27.4c-5.7,0-9.9.5-9.9,6.7h66.5c.1-6.2-4.2-6.7-9.9-6.7h0Z"/>
    </g>
  </g>
</svg>