<svg id="Capa_1" data-name="Capa 1" xmlns="http://www.w3.org/2000/svg" viewBox="0 0 300 140"><defs><style>.cls-1{fill:#4d4d4d;}</style></defs><title>logo_waner</title><path id="path5" class="cls-1" d="M150,19.9c-2.34.5-23,3.2-25.55,4.49-.59,1.18-1.83,4.88-2.22,5.47-1.66.35-8.38,1.63-8.8,1.88a26.58,26.58,0,0,1-2.14,4.1c-1.42.35-8.06,1.58-8.89,2.18-.47,2.84-2.28,31.3,9.57,49.9s32.58,31,38,32.18H150c5.45-1.19,26.13-13.57,38-32.18S198.1,40.86,197.63,38c-.83-.6-7.47-1.83-8.89-2.18a26.58,26.58,0,0,1-2.14-4.1c-.42-.25-7.14-1.53-8.8-1.88-.39-.59-1.63-4.29-2.22-5.47C173,23.11,152.36,20.41,150,19.9Zm0,7.26c2,.44,19.69,2.8,21.88,3.89.5,1,1.55,4.16,1.88,4.66,1.42.3,7.2,1.37,7.56,1.58a23.49,23.49,0,0,0,1.8,3.55c1.21.3,6.89,1.33,7.6,1.83.41,2.44,1.93,26.75-8.2,42.65s-27.82,26.5-32.47,27.52H150c-4.66-1-22.34-11.62-32.47-27.52s-8.61-40.21-8.21-42.65c.71-.5,6.39-1.53,7.61-1.83a22.59,22.59,0,0,0,1.79-3.55c.37-.21,6.11-1.28,7.53-1.58.33-.5,1.41-3.64,1.92-4.66C130.34,30,148,27.59,150,27.16Z"/><path id="path9" class="cls-1" d="M153.23,34.94c-.67.07-.77.53-.77.73-.14,22.76-.07,46.9-.26,70.29.15.74,1.33-.4,2-.77,8.64-4.75,35.56-30.83,20.09-40.17,11.85-7.75,9.73-15.14,4.48-19.18-10.86-8.36-23.25-10.43-24.7-10.81A2.31,2.31,0,0,0,153.23,34.94Zm7.22,9.36a50.12,50.12,0,0,1,10.94,5.08c4.37,3,2.89,5.84.34,7.57-1.38.94-9.94,7.08-11.36,7.43C160.33,63.2,160.33,49.83,160.45,44.3Zm6.37,26a3.52,3.52,0,0,1,2.52,1c.59.56,3.19,3.37-2.35,11.4a52.65,52.65,0,0,1-6.88,8.68c-.06,0-.08-.08-.13,0,.05-2.62,0-15.27.13-18.8C160.42,72.43,164,70.23,166.82,70.32Z"/><path id="path15" class="cls-1" d="M123.8,43.14a80.07,80.07,0,0,0-7.36,4.76c-.17,5.36,1.27,19.84,6.56,31.14a34.15,34.15,0,0,0,2.19,4c1.51,2.61,1.59,2.4,3.35-.1,1.22-1.65,3-4.09,3.42-4.59.61,2,4.53,14.65,10,22.29,2.45,3.38,6.21,6.58,6.19,5.27-.15-12.9-.52-68.73-.11-71-1.63,0-7,.66-8,1.21-.09,2,.74,40.32.23,44.68-3.74-9.12-5-33.18-4.28-43.11-2,.41-7,2.39-7.67,3.1-.91,1.82.33,21.81,1.62,28.52-.44.7-1.71,2.59-1.91,2.89C125.48,67.56,123,53.31,123.8,43.14Z"/></svg>