<svg id="Capa_1" data-name="Capa 1" xmlns="http://www.w3.org/2000/svg" viewBox="0 0 300 140"><defs><style>.cls-1{fill:#4d4d4d;}</style></defs><title>logo_rtve</title><path class="cls-1" d="M182,74.59a2,2,0,0,1,1.2-.2h16.89c2,0,4.75.1,6.25-1.52a6.52,6.52,0,0,0,1.34-4.25,25.63,25.63,0,0,0-.1-4.55,20.08,20.08,0,0,0-2.81-8.5,16,16,0,0,0-15.1-7.24,34.29,34.29,0,0,0-3.64.52,16,16,0,0,0-7.08,3.8c-5.83,5.42-7.21,14.26-6.69,21.84a35.55,35.55,0,0,0,.88,6.17,20.58,20.58,0,0,0,4.51,8.9,17.45,17.45,0,0,0,8.07,5,36.11,36.11,0,0,0,5.37.83,22.31,22.31,0,0,0,9.71-1.25c2.43-.85,4.91-2.53,5.76-5.06.41-1.25.36-3.06-.81-3.9a3.07,3.07,0,0,0-2.83,0,33.6,33.6,0,0,1-4.65,1.6c-5.47,1.27-12.44.09-15.3-5.31a11,11,0,0,1-1-2.53,12.91,12.91,0,0,1-.39-3C181.54,75.42,181.51,74.9,182,74.59Zm0-11.83c.66-3.1,2.41-5.92,5.44-7.14a8.92,8.92,0,0,1,2.23-.51,8,8,0,0,1,6.46,2.09,9.53,9.53,0,0,1,2.1,3.94,11.88,11.88,0,0,1,.44,3.13,10,10,0,0,1,.09,1.22c-.06.62-.2,1.24-.9,1.38a20.51,20.51,0,0,1-3.84,0H183.36a2.09,2.09,0,0,1-1.32-.25,1.33,1.33,0,0,1-.4-1.16A13.85,13.85,0,0,1,182,62.76Z"/><path class="cls-1" d="M171.12,49.13a4.34,4.34,0,0,0-2.53-.84A4.9,4.9,0,0,0,164,49.71c-1.28,1.58-1.84,3.76-2.47,5.66-.88,2.64-1.92,5.24-2.76,7.89-.46,1.43-.95,2.84-1.46,4.25-.19.54-.54,1.26-1.25,1.06s-.8-.84-1-1.36c-.41-1.22-.85-2.43-1.28-3.64-1-2.72-1.92-5.46-2.84-8.2a20.15,20.15,0,0,0-2.27-5.46,4.66,4.66,0,0,0-4.47-1.68c-1.68.23-3.37.65-3.68,2.59a3.09,3.09,0,0,0,0,.91,16.62,16.62,0,0,0,1.25,3.74c.68,1.82,1.34,3.65,2,5.47,2.2,5.89,4.47,11.76,6.55,17.7.62,1.75,1.32,4.06,2.9,5.19a5.44,5.44,0,0,0,3.64.76,5.16,5.16,0,0,0,1.93-.43c2.18-1.1,2.82-3.92,3.62-6,2.53-6.65,5-13.35,7.43-20,.46-1.24.9-2.5,1.38-3.74a10.65,10.65,0,0,0,.8-2.43A3.05,3.05,0,0,0,171.12,49.13Z"/><path class="cls-1" d="M137.43,77c-2.29.26-4.77.51-6.29-1.62a4.74,4.74,0,0,1-.61-1.21,18,18,0,0,1-.69-6.07v-8.8a2.65,2.65,0,0,1,.28-1.52,1.87,1.87,0,0,1,1.65-.61,18.19,18.19,0,0,0,3.13-.06c2.89-.52,3.19-4.69,2.17-6.92-.87-1.9-2.83-1.72-4.6-1.72-.79,0-1.84.14-2.35-.6a4,4,0,0,1-.28-2.23V42.52c0-1.61,0-3.21-1.72-4a5.92,5.92,0,0,0-1.82-.44,8.25,8.25,0,0,0-2.22-.06,3.92,3.92,0,0,0-3.15,1.68c-.66,1.22-.39,2.83-.39,4.15V67.51a34.13,34.13,0,0,0,.71,8.5c.84,3.32,2.61,6.53,5.86,8A14.35,14.35,0,0,0,132,85.13a15.76,15.76,0,0,0,5.16-.41,5.63,5.63,0,0,0,4.55-4.36,3.72,3.72,0,0,0-.41-2.73C140.45,76.42,138.63,76.89,137.43,77Z"/><path class="cls-1" d="M113.86,48.29a12.75,12.75,0,0,0-5.56,1.3,9.44,9.44,0,0,0-2,1.35c-.3.25-.67.75-1.11.73s-.51-.38-.61-.65a5.67,5.67,0,0,0-.87-1.8c-.89-1-2.75-1.06-4-.89a3.71,3.71,0,0,0-2.51,1.07,4.33,4.33,0,0,0-.73,3V80.16A5.27,5.27,0,0,0,96.91,83c1.11,1.82,3.9,1.73,5.72,1.49a5.42,5.42,0,0,0,1.32-.32c2.37-1,1.82-3.85,1.82-5.93V68.32c0-2.32-.11-4.73.93-6.88s3.17-3.28,5.54-3.7c1.47-.24,3,.27,3.92-1.26a7.36,7.36,0,0,0,.79-3c.18-1.29.32-3.3-.59-4.34A3.2,3.2,0,0,0,113.86,48.29Z"/></svg>