<?xml version="1.0" encoding="utf-8"?>
<!-- Generator: Adobe Illustrator 23.0.1, SVG Export Plug-In . SVG Version: 6.00 Build 0)  -->
<svg version="1.1" id="Capa_1" xmlns="http://www.w3.org/2000/svg" xmlns:xlink="http://www.w3.org/1999/xlink" x="0px" y="0px"
	 width="170px" height="60px" viewBox="0 0 170 60" style="enable-background:new 0 0 170 60;" xml:space="preserve">
<style type="text/css">
	.st0{fill-rule:evenodd;clip-rule:evenodd;fill:#FFFFFF;}
</style>
<g>
	<path class="st0" d="M108.2,29.1c-2.3-1.3-5-1.7-7.5-1.6l6.8-9.7c0.6-0.9,1-1.4,1-1.9v-2.5c0-0.4-0.3-0.7-0.8-0.7l-13.2,0
		c-0.4,0-0.7,0.3-0.7,0.7v2.9c0,0.4,0.3,0.7,0.8,0.7h6.9l-7.9,11.3c-0.5,0.7-0.5,1.5-0.5,2v3c0,0.4,0.5,0.9,0.9,0.7
		c4.5-2.4,9.9-2.1,13.9,0c0.5,0.3,1-0.2,1-0.7v-3.1C108.9,29.8,108.8,29.4,108.2,29.1L108.2,29.1z M62.4,12.2
		c-2.4,0-4.6,1.2-5.5,3.8c-1.1-2.6-2.7-3.8-5.2-3.8c-2.5,0-4.3,1.2-5.3,3.8h-0.1v-2.7c0-0.4-0.3-0.7-0.7-0.7h-3.7
		c-0.4,0-0.8,0.3-0.8,0.7l0,20.6c0,0.4,0.3,0.7,0.7,0.7h4c0.4,0,0.8-0.3,0.8-0.7l0-10.9c0-2.4-0.1-5.7,2.8-5.7
		c2.8,0,2.5,3.4,2.5,5.7l0,10.9c0,0.4,0.3,0.7,0.7,0.7h4c0.4,0,0.8-0.3,0.8-0.7V23c0-1.2,0-2.9,0.4-3.9c0.4-1,1.4-1.7,2.4-1.7
		c1.2,0,2.1,0.4,2.4,1.8c0.2,0.8,0.1,3,0.1,3.9v10.9c0,0.4,0.3,0.7,0.7,0.7h4c0.4,0,0.8-0.3,0.8-0.7l0-13c0-2.2,0.3-4.7-1-6.4
		C65.9,12.9,64.1,12.2,62.4,12.2L62.4,12.2z M119.9,12.2c-5.8,0-9,5-9,11.4c0,6.4,3.2,11.5,9,11.5c5.6,0,9.2-5,9.2-11.3
		C129.1,17.3,125.8,12.2,119.9,12.2z M119.9,30.8c-3.1,0-3.1-5.4-3.1-7.9c0-2.5,0.2-6.5,3.1-6.5c1.3,0,2.2,0.6,2.6,2
		c0.5,1.6,0.6,3.7,0.6,5.5C123.1,26.5,123,30.8,119.9,30.8L119.9,30.8z M147.5,14.7c-1.1-1.8-2.9-2.4-4.7-2.4
		c-2.8,0-4.3,1.3-5.5,4.2h-0.1v-3.1c-0.1-0.3-0.4-0.6-0.7-0.6h-3.7c-0.4,0-0.7,0.3-0.8,0.7l0,20.6c0,0.4,0.3,0.7,0.7,0.7h4
		c0.4,0,0.8-0.3,0.8-0.7V22.8c0-1.4,0.1-2.6,0.6-3.9c0.4-1,1.3-1.6,2.3-1.6c2.8,0,2.5,3.3,2.5,5.5V34c0,0.3,0.3,0.6,0.7,0.6h4
		c0.4,0,0.7-0.3,0.8-0.6V21.1C148.5,19.1,148.5,16.3,147.5,14.7L147.5,14.7z M89,27.2v-6.2c0-2.6,0.2-5.1-1.8-6.9
		c-1.5-1.5-4.1-2-6-2c-3.8,0-8.1,1.4-9,6.1c-0.1,0.5,0.3,0.8,0.6,0.8l3.9,0.4c0.4,0,0.6-0.4,0.7-0.7c0.3-1.6,1.7-2.4,3.2-2.4
		c0.8,0,1.8,0.3,2.3,1c0.6,0.8,0.5,2,0.5,2.9v0.5C81,21,78,21.2,75.8,22.1c-2.5,1.1-4.3,3.3-4.3,6.6c0,4.2,2.6,6.2,6,6.2
		c2.9,0,4.4-0.7,6.6-2.9c0.7,1.1,1,1.6,2.3,2.7c0.3,0.2,0.7,0.1,0.9-0.1l0,0c0.8-0.7,2.3-2,3.1-2.7c0.3-0.3,0.3-0.7,0-1.1
		C89.8,29.9,89,29.1,89,27.2L89,27.2z M82.6,29.1c-0.6,1.1-1.7,1.8-2.8,1.8c-1.5,0-2.4-1.2-2.4-2.9c0-3.4,3.1-4,6-4v0.9
		C83.3,26.4,83.4,27.7,82.6,29.1L82.6,29.1z M36.4,27.2v-6.2c0-2.6,0.2-5.1-1.8-6.9c-1.5-1.5-4.1-2-6-2c-3.8,0-8.1,1.4-9,6.1
		c-0.1,0.5,0.3,0.8,0.6,0.8l3.9,0.4c0.4,0,0.6-0.4,0.7-0.7c0.3-1.6,1.7-2.4,3.2-2.4c0.8,0,1.8,0.3,2.2,1c0.6,0.8,0.5,2,0.5,2.9v0.5
		c-2.3,0.3-5.4,0.4-7.5,1.4c-2.5,1.1-4.3,3.3-4.3,6.6c0,4.2,2.6,6.2,6,6.2c2.9,0,4.4-0.7,6.6-2.9c0.7,1.1,1,1.6,2.3,2.7
		c0.3,0.2,0.7,0.1,0.9-0.1l0,0c0.8-0.7,2.3-2,3.1-2.7c0.3-0.3,0.3-0.7,0-1.1C37.2,29.9,36.4,29.1,36.4,27.2L36.4,27.2z M30,29.1
		c-0.6,1.1-1.6,1.8-2.8,1.8c-1.5,0-2.4-1.2-2.4-2.9c0-3.4,3.1-4,6-4v0.9C30.8,26.4,30.8,27.7,30,29.1L30,29.1z M98.2,40.8
		c-8.4,3.6-17.6,5.3-26,5.3c-12.4,0-24.3-3.4-34-9c-0.8-0.5-1.5,0.4-0.8,1c9,8.1,20.8,13,34,13c9.4,0,20.3-3,27.8-8.5
		C100.6,41.6,99.5,40.3,98.2,40.8L98.2,40.8z M105.7,36.5c-0.8-1-7.9-1.9-12.2,1.1c-0.7,0.5-0.6,1.1,0.2,1c2.4-0.3,7.8-0.9,8.8,0.3
		c1,1.2-1.1,6.3-2,8.6c-0.3,0.7,0.3,1,0.9,0.4C105.5,44.6,106.5,37.5,105.7,36.5L105.7,36.5z"/>
</g>
</svg>
