<?xml version="1.0" encoding="utf-8"?>
<!-- Generator: Adobe Illustrator 23.0.1, SVG Export Plug-In . SVG Version: 6.00 Build 0)  -->
<svg version="1.1" id="Capa_1" xmlns="http://www.w3.org/2000/svg" xmlns:xlink="http://www.w3.org/1999/xlink" x="0px" y="0px"
	 width="171px" height="60px" viewBox="0 0 171 60" style="enable-background:new 0 0 171 60;" xml:space="preserve">
<style type="text/css">
	.st0{fill-rule:evenodd;clip-rule:evenodd;fill:#FFFFFF;}
</style>
<g>
	<path class="st0" d="M42.3,37.2c0-0.6-0.3-1-0.8-1.3c-3.3-2-7.2-3-11.6-3c-2.3,0-4.8,0.3-7.5,0.9c-0.7,0.2-1.1,0.6-1.1,1.4
		c0,0.3,0.1,0.6,0.4,0.9c0.2,0.3,0.5,0.4,0.9,0.4c0.1,0,0.4-0.1,1-0.2c2.3-0.5,4.4-0.7,6.3-0.7c3.9,0,7.4,0.9,10.3,2.7
		c0.3,0.2,0.6,0.3,0.9,0.3c0.3,0,0.6-0.1,0.9-0.3C42.2,37.8,42.3,37.5,42.3,37.2L42.3,37.2z M44.8,31.6c0-0.7-0.3-1.2-0.9-1.6
		c-4.1-2.4-8.9-3.7-14.3-3.7c-2.7,0-5.3,0.4-7.9,1.1c-0.8,0.2-1.2,0.8-1.2,1.7c0,0.4,0.1,0.8,0.5,1.1c0.3,0.3,0.7,0.5,1.1,0.5
		c0.1,0,0.4-0.1,1-0.2c2.1-0.6,4.3-0.9,6.5-0.9c4.8,0,9.1,1.1,12.7,3.2c0.4,0.2,0.7,0.3,1,0.3c0.4,0,0.8-0.2,1.1-0.5
		S44.8,32,44.8,31.6L44.8,31.6z M47.7,25.1c0-0.8-0.3-1.4-1-1.8c-2.2-1.3-4.7-2.2-7.6-2.9c-2.9-0.7-5.9-1-8.9-1
		c-3.5,0-6.7,0.4-9.5,1.2c-0.4,0.1-0.7,0.3-1,0.7c-0.3,0.3-0.4,0.7-0.4,1.3c0,0.5,0.2,1,0.5,1.4s0.8,0.5,1.3,0.5
		c0.2,0,0.5-0.1,1-0.2c2.3-0.6,5-1,8-1c2.8,0,5.4,0.3,8.1,0.9s4.8,1.4,6.6,2.5c0.4,0.2,0.7,0.3,1,0.3c0.5,0,0.9-0.2,1.3-0.5
		C47.5,26.1,47.7,25.7,47.7,25.1L47.7,25.1z M53,29c0,3.6-0.9,7-2.7,10c-1.8,3.1-4.2,5.5-7.3,7.3C40,48.1,36.6,49,33,49
		s-7-0.9-10-2.7c-3.1-1.8-5.5-4.2-7.3-7.3C13.9,36,13,32.6,13,29s0.9-7,2.7-10c1.8-3.1,4.2-5.5,7.3-7.3C26,9.9,29.4,9,33,9
		s7,0.9,10,2.7c3.1,1.8,5.5,4.2,7.3,7.3C52.1,22,53,25.4,53,29z M68,21.8c-0.6,0.4-0.9,0.9-0.9,1.7c0,0.8,0.3,1.3,0.9,1.7
		c0.6,0.4,1.8,0.8,3.7,1.3c1.9,0.5,3.3,1.1,4.3,1.9c1,0.8,1.5,2.1,1.5,3.7c0,1.6-0.6,2.9-1.8,4c-1.2,1-2.8,1.5-4.8,1.5
		c-2.9,0-5.5-1-7.8-3l2-2.4c1.9,1.6,3.8,2.5,5.9,2.5c1,0,1.8-0.2,2.4-0.7c0.6-0.4,0.9-1,0.9-1.7s-0.3-1.3-0.8-1.7s-1.5-0.8-2.9-1.1
		c-1.4-0.3-2.4-0.6-3.1-0.9s-1.3-0.6-1.9-1.1c-1.1-0.8-1.7-2.1-1.7-3.8c0-1.7,0.6-3.1,1.9-4c1.3-0.9,2.8-1.4,4.7-1.4
		c1.2,0,2.4,0.2,3.5,0.6c1.2,0.4,2.2,0.9,3,1.7L75.3,23c-0.6-0.5-1.3-0.9-2.2-1.2s-1.9-0.5-2.8-0.5S68.6,21.4,68,21.8L68,21.8z
		 M93.2,25c1.4,1.3,2,3.1,2,5.3c0,2.2-0.7,4-2,5.3c-1.3,1.4-2.9,2.1-4.7,2.1c-1.8,0-3.4-0.8-4.8-2.3v7.3h-3V23.3h3v2.5
		c1.2-1.8,2.7-2.7,4.6-2.7S91.8,23.7,93.2,25L93.2,25z M84.9,33.7c0.8,0.9,1.8,1.3,3,1.3c1.2,0,2.2-0.4,3.1-1.3
		c0.9-0.9,1.3-2,1.3-3.3S91.8,27.9,91,27c-0.9-0.9-1.9-1.3-3.1-1.3c-1.2,0-2.2,0.5-3,1.3c-0.8,0.9-1.2,2-1.2,3.4
		C83.6,31.7,84.1,32.8,84.9,33.7L84.9,33.7z M104.9,35c1.3,0,2.4-0.4,3.2-1.3c0.8-0.9,1.3-2,1.3-3.3c0-1.4-0.4-2.5-1.3-3.3
		c-0.8-0.9-1.9-1.3-3.2-1.3c-1.3,0-2.4,0.4-3.2,1.3c-0.8,0.9-1.3,2-1.3,3.3c0,1.4,0.4,2.5,1.3,3.3S103.6,35,104.9,35L104.9,35z
		 M104.9,37.7c-2.1,0-3.9-0.7-5.3-2.1c-1.4-1.4-2.1-3.1-2.1-5.2c0-2,0.7-3.8,2.1-5.2c1.4-1.4,3.2-2.1,5.3-2.1c2.1,0,3.9,0.7,5.3,2.1
		c1.4,1.4,2.1,3.1,2.1,5.2c0,2-0.7,3.8-2.1,5.2C108.8,37,107,37.7,104.9,37.7L104.9,37.7z M118.9,25.7v7.2c0,0.7,0.2,1.2,0.5,1.6
		c0.4,0.4,0.9,0.6,1.5,0.6s1.3-0.3,1.8-0.9l1.2,2.1c-1.1,0.9-2.2,1.4-3.5,1.4c-1.3,0-2.4-0.4-3.3-1.3c-0.9-0.9-1.3-2.1-1.3-3.6v-7.1
		h-1.8v-2.4h1.8v-4.5h3v4.5h3.7v2.4L118.9,25.7L118.9,25.7z M129.1,37.4h-3V23.3h3L129.1,37.4L129.1,37.4z M125.7,19.1
		c0-0.5,0.2-1,0.6-1.3c0.4-0.4,0.8-0.6,1.3-0.6c0.5,0,1,0.2,1.3,0.6c0.4,0.4,0.6,0.8,0.6,1.3c0,0.5-0.2,1-0.6,1.3
		c-0.4,0.4-0.8,0.6-1.3,0.6s-1-0.2-1.3-0.6C125.9,20.1,125.7,19.6,125.7,19.1L125.7,19.1z M136.8,22.1v1.2h3.7v2.4h-3.7v11.8h-3
		V25.7H132v-2.4h1.8v-1.1c0-1.5,0.4-2.7,1.3-3.6c0.9-0.9,2-1.3,3.3-1.3c1.3,0,2.4,0.5,3.5,1.4l-1.2,2.1c-0.6-0.6-1.2-0.9-1.8-0.9
		s-1.1,0.2-1.5,0.6C137,20.9,136.8,21.4,136.8,22.1z M144.9,43.1c-1.3,0-2.5-0.5-3.5-1.4l1.4-2.4c0.6,0.6,1.3,0.9,1.9,0.9
		c0.7,0,1.2-0.2,1.6-0.7c0.4-0.5,0.6-1,0.6-1.6c0-0.2-1.9-5.1-5.7-14.6h3.2l4.2,10.5l4.2-10.5h3.2l-6.9,16.9c-0.4,0.9-1,1.7-1.8,2.2
		C146.7,42.8,145.8,43.1,144.9,43.1L144.9,43.1z"/>
</g>
</svg>
