<?xml version="1.0" encoding="utf-8"?>
<!-- Generator: Adobe Illustrator 23.0.1, SVG Export Plug-In . SVG Version: 6.00 Build 0)  -->
<svg version="1.1" id="Capa_1" xmlns="http://www.w3.org/2000/svg" xmlns:xlink="http://www.w3.org/1999/xlink" x="0px" y="0px"
	 width="170px" height="60px" viewBox="0 0 170 60" style="enable-background:new 0 0 170 60;" xml:space="preserve">
<style type="text/css">
	.st0{fill-rule:evenodd;clip-rule:evenodd;fill:#FFFFFF;}
</style>
<g>
	<path class="st0" d="M63.6,21.3c-4.7,2.7-4.2,8.1-4.2,8.1c0,6,6.1,7.1,6.1,7.1c-3,8.4-7.4,11.3-8.7,11.3s-5.4-1.6-6.9-1.6
		c-1.5,0-4.8,1.7-6.7,1.7s-10-6.8-10-17.3c0-10.4,6.9-12.4,9.7-12.4s5.6,1.7,6.2,1.7c0.7,0,1.1-0.1,1.1-0.1c5.2-1.9,6.4-1.7,6.4-1.7
		C62.1,18.1,63.6,21.3,63.6,21.3L63.6,21.3z M47.3,15.7c0,0,7.7,0.5,8.7-7.6C56,8.1,47.4,8.8,47.3,15.7L47.3,15.7z M72.4,24.8
		c0,0.9-0.7,1.6-1.8,1.6c-1,0-1.7-0.7-1.7-1.6c0-0.9,0.7-1.6,1.7-1.6C71.7,23.2,72.3,23.9,72.4,24.8L72.4,24.8z M69.1,40.3V28.1h3.1
		v12.2L69.1,40.3L69.1,40.3z M78.9,25.7H74v-2.5h12.8v2.5h-4.9v14.6h-3.1V25.7 M98.3,36.6c0,1.4,0.1,2.6,0.1,3.6h-2.7l-0.2-1.8h-0.1
		c-0.5,0.8-1.7,2.1-3.9,2.1c-2.2,0-4.2-1.3-4.2-5.2v-7h3.1v6.5c0,2,0.7,3.3,2.3,3.3c1.3,0,2.1-0.8,2.4-1.6c0.1-0.2,0.2-0.6,0.2-0.9
		v-7.2h3.1L98.3,36.6L98.3,36.6z M101.7,31.8c0-1.4-0.1-2.5-0.1-3.6h2.7l0.2,1.8h0.1c0.6-0.9,1.9-2.1,3.9-2.1c2.1,0,4.3,1.4,4.3,5.1
		v7.1h-3.1v-6.7c0-1.7-0.7-3-2.3-3c-1.2,0-2.1,0.9-2.4,1.8c-0.1,0.2-0.2,0.6-0.2,1v7h-3.1L101.7,31.8L101.7,31.8z M118.2,34.8
		c0.1,2.2,1.8,3.1,3.8,3.1c1.4,0,2.4-0.2,3.4-0.5l0.5,2.1c-1.1,0.4-2.5,0.8-4.3,0.8c-4,0-6.3-2.4-6.3-6c0-3.3,2.1-6.4,6-6.4
		c4,0,5.3,3.2,5.3,5.8c0,0.6-0.1,1-0.1,1.3L118.2,34.8L118.2,34.8z M123.5,32.7c0-1.1-0.5-2.9-2.5-2.9c-1.9,0-2.7,1.7-2.8,2.9H123.5
		z M128.8,37.2c0.7,0.4,2,0.9,3.1,0.9c1.4,0,2-0.6,2-1.3c0-0.8-0.5-1.2-2-1.7c-2.4-0.8-3.4-2.1-3.4-3.5c0-2.1,1.8-3.7,4.6-3.7
		c1.4,0,2.5,0.3,3.3,0.7l-0.6,2.1c-0.5-0.3-1.5-0.7-2.6-0.7c-1.1,0-1.7,0.5-1.7,1.3c0,0.8,0.6,1.1,2.1,1.7c2.2,0.8,3.2,1.9,3.3,3.6
		c0,2.2-1.7,3.8-5,3.8c-1.5,0-2.8-0.3-3.7-0.8L128.8,37.2L128.8,37.2z"/>
</g>
</svg>
