<?xml version="1.0" encoding="utf-8"?>
<!-- Generator: Adobe Illustrator 27.0.0, SVG Export Plug-In . SVG Version: 6.00 Build 0)  -->
<svg version="1.1" id="Layer_1" xmlns="http://www.w3.org/2000/svg" xmlns:xlink="http://www.w3.org/1999/xlink" x="0px" y="0px"
	 viewBox="0 0 1000 371" style="enable-background:new 0 0 1000 371;" xml:space="preserve">
<style type="text/css">
	.st0{fill:#FFFFFF;}
</style>
<path class="st0" d="M261,371h-13.8l38.4-88.4h11.2l38,88.4h-14l-9-21.7h-42L261,371z M274.3,338.4h33.1l-16.5-41.5L274.3,338.4z
	 M390.7,293.4h28.4v-10.9H350v10.9h28.4V371h12.4V293.4z M472.3,282.5H453V371h12v-74h0.2l29.2,74h7.9l29.4-74h0.3v74h12.4v-88.4
	h-19.2l-26.1,68h-0.3L472.3,282.5z M668.1,326.6c0,6.5-1.1,12.5-3.4,17.9c-2.3,5.4-5.4,10.1-9.3,14c-4,3.9-8.7,7-14.1,9.1
	c-5.5,2.2-11.4,3.3-17.8,3.3s-12.3-1.1-17.8-3.3c-5.4-2.2-10.1-5.2-14.1-9.1c-4-3.9-7-8.6-9.3-14c-2.2-5.4-3.3-11.4-3.3-17.9
	c0-6.6,1.1-12.6,3.3-18c2.2-5.4,5.3-10.1,9.3-13.9c4-3.8,8.6-6.8,14.1-9c5.4-2.1,11.3-3.2,17.8-3.2s12.3,1.1,17.8,3.2
	c5.5,2.1,10.2,5.1,14.1,9c3.9,3.9,7.1,8.5,9.3,13.9C667,314,668.1,320,668.1,326.6 M655.4,326.6c0-4.6-0.8-8.9-2.3-13
	c-1.5-4.1-3.6-7.7-6.4-10.8c-2.8-3.1-6.1-5.5-10-7.3c-3.9-1.8-8.3-2.7-13.2-2.7c-4.8,0-9.2,0.9-13.1,2.7c-3.9,1.8-7.3,4.2-10,7.3
	c-2.7,3.1-4.9,6.7-6.4,10.8c-1.5,4.1-2.3,8.4-2.3,13c0,4.7,0.8,9.1,2.3,13.2c1.5,4.1,3.6,7.7,6.4,10.8c2.8,3,6.1,5.4,10,7.2
	c3.9,1.7,8.2,2.6,13.1,2.6s9.2-0.9,13.2-2.6c4-1.7,7.3-4.1,10.1-7.2c2.8-3.1,4.9-6.6,6.4-10.8C654.6,335.7,655.4,331.3,655.4,326.6
	 M751.9,292.2c-2.6-2.9-6.1-5.3-10.3-7c-4.3-1.7-8.9-2.6-13.8-2.6c-3.5,0-6.9,0.5-10.4,1.4c-3.4,0.9-6.5,2.4-9.3,4.3
	c-2.7,2-5,4.5-6.7,7.5c-1.7,3-2.5,6.6-2.5,10.8c0,3.9,0.6,7.1,1.9,9.7c1.3,2.6,2.9,4.8,5,6.6c2.1,1.8,4.4,3.2,7,4.4
	c2.6,1.1,5.3,2.1,8,2.9c2.7,0.9,5.2,1.7,7.7,2.5c2.4,0.8,4.5,1.8,6.3,3c1.8,1.2,3.3,2.6,4.3,4.3c1.1,1.7,1.6,3.8,1.6,6.3
	c0,2.5-0.5,4.7-1.6,6.5c-1,1.8-2.3,3.3-4,4.5c-1.6,1.2-3.4,2.1-5.4,2.6c-2,0.6-4,0.8-5.9,0.8c-3.9,0-7.5-0.9-10.8-2.7
	c-3.3-1.8-6-4.2-8-7.1l-9.1,7.7c3.2,4,7.3,7.1,12.3,9.2c5,2.1,10.1,3.1,15.4,3.1c3.7,0,7.3-0.5,10.9-1.5c3.5-1,6.6-2.6,9.3-4.7
	c2.7-2.1,4.8-4.7,6.5-8c1.6-3.2,2.4-7,2.4-11.3c0-4.2-0.7-7.7-2.3-10.4c-1.5-2.7-3.4-5-5.8-6.8c-2.4-1.8-5-3.3-8-4.4
	c-2.9-1.1-5.8-2.1-8.7-3c-2.4-0.8-4.6-1.6-6.7-2.3c-2.1-0.7-3.9-1.7-5.5-2.7c-1.5-1.1-2.8-2.4-3.7-3.9c-0.9-1.5-1.4-3.5-1.4-5.8
	c0-2.4,0.5-4.4,1.5-6.1c1-1.7,2.3-3.1,3.9-4.3c1.6-1.1,3.3-2,5.3-2.5c1.9-0.5,3.9-0.8,5.8-0.8c3.6,0,6.8,0.7,9.6,2.2
	c2.9,1.5,5.1,3.3,6.8,5.6L751.9,292.2z M0,194.1h28.7c53.5,0,97-43.6,97-97.1c0-53.5-43.6-97.1-97-97.1H0V194.1z M276.2,0h-28.6
	c-53.5,0-97.1,43.6-97.1,97.1c0,53.5,43.6,97.1,97.1,97.1h28.6V0z M405.1,0H335v194.1h70.1c53.5,0,97.1-43.6,97.1-97.1
	C502.1,43.6,458.6,0,405.1,0 M405.1,164.7h-20h-20.7V29.4h20.7h20c37.3,0,67.6,30.4,67.6,67.6C472.7,134.3,442.3,164.7,405.1,164.7
	 M584.3,59.8c-37.1,0-67.3,30.2-67.3,67.3c0,37.1,30.2,67.3,67.3,67.3c37.1,0,67.3-30.2,67.3-67.3C651.6,90,621.4,59.8,584.3,59.8
	 M584.3,167.4c-22.5,0-40.6-18.3-40.6-40.6c0-22.5,18.3-40.6,40.6-40.6c22.2,0,40.6,18.3,40.6,40.6
	C624.9,149.3,606.6,167.4,584.3,167.4 M670.6,194.4h29.4V0h-29.4V194.4z M792.8,59.8c-14.3,0-27.5,4.5-38.5,12.1V0h-29.5l0,194.3
	h29.5v-12.2c10.9,7.6,24.2,12.1,38.5,12.1c37.1,0,67.3-30.2,67.3-67.3C860,90,829.9,59.8,792.8,59.8 M792.8,167.4
	c-18,0-33.1-11.7-38.5-27.8c-1.3-4-2.1-8.3-2.1-12.8c0-4.5,0.8-8.8,2.1-12.8c5.4-16.2,20.6-27.8,38.5-27.8
	c22.3,0,40.6,18.3,40.6,40.6C833.3,149.3,815,167.4,792.8,167.4 M967.8,59.8L929.5,146l-38.4-86.2H859l54.4,122.3l-1.1,2.4l-0.4,0.8
	L900.2,212l-0.1,0.2c-3.5,7.9-12.8,11.5-20.7,8l-4.2-1.9l-8.2,18.5l-3.7,8.2h0l0,0l10.2,4.5c19.1,8.5,41.7-0.1,50.3-19.3
	c0.1-0.2,69.7-155.7,76.2-170.3L967.8,59.8L967.8,59.8z"/>
</svg>
