<?xml version="1.0" encoding="utf-8"?>
<!-- Generator: Adobe Illustrator 23.0.1, SVG Export Plug-In . SVG Version: 6.00 Build 0)  -->
<svg version="1.1" id="Capa_1" xmlns="http://www.w3.org/2000/svg" xmlns:xlink="http://www.w3.org/1999/xlink" x="0px" y="0px"
	 viewBox="0 0 481.9 187.1" style="enable-background:new 0 0 481.9 187.1;" xml:space="preserve">
<style type="text/css">
	.st0{fill:#FAFAFA;}
	.st1{fill:#911633;}
</style>
<g>
	<path class="st0" d="M54.7,109.1v60H40.8v-59.6c0-3.9-1.7-5.8-5.8-5.8h-6v65.3H15.1v-150h22.7c12.2,0,16.7,5.1,16.7,16.7v47.8
		c0,7.9-2.8,11.8-7.9,13.7C52.2,99,54.7,102.4,54.7,109.1z M35.5,31.3H29v60.6h6c4.1,0,5.6-1.9,5.6-5.6V36.4
		C40.6,33,39.1,31.3,35.5,31.3z"/>
	<path class="st0" d="M86.4,170.3h-7.5c-11.1,0-16.7-5.8-16.7-16.9V34.5c0-11.1,5.6-16.7,16.7-16.7h7.5c11.1,0,16.7,5.6,16.7,16.7
		v118.9C103.2,164.6,97.6,170.3,86.4,170.3z M84.1,30h-3c-3.4,0-4.9,1.5-4.9,5.1v117.6c0,3.6,1.5,5.1,4.9,5.1h3
		c3.4,0,5.1-1.5,5.1-5.1V35.2C89.2,31.5,87.5,30,84.1,30z"/>
	<path class="st0" d="M111.1,19.1h20.8c13.9,0,19.7,6,19.7,19.7v110.6c0,13.3-6.4,19.7-19.7,19.7h-20.8V19.1z M125,156.8h4.9
		c5.4,0,7.7-2.6,7.7-7.7V39c0-5.1-2.4-7.7-7.7-7.7H125V156.8z"/>
	<path class="st0" d="M179.4,103.9V92.1h20.8v61.3c0,11.1-5.6,16.7-16.7,16.7H176c-11.1,0-16.7-5.6-16.7-16.7V34.7
		c0-11.1,5.6-16.7,16.7-16.7h7.3c11.1,0,16.5,5.6,16.5,16.7v42.6h-13.7v-42c0-3.6-1.5-5.1-4.9-5.1h-3c-3.4,0-4.9,1.5-4.9,5.1v117.4
		c0,3.6,1.5,5.1,4.9,5.1h3.4c3.4,0,4.9-1.5,4.9-5.1v-48.8H179.4z"/>
	<path class="st0" d="M234.9,169.1l-1.7-22.7h-13.7l-1.5,22.7h-12.9l12.6-150.2H236l12.4,150.2H234.9z M220.3,134.4h12l-6-84
		L220.3,134.4z"/>
	<path class="st0" d="M293.6,109.1v60h-13.9v-59.6c0-3.9-1.7-5.8-5.8-5.8h-6v65.3H254v-150h22.7c12.2,0,16.7,5.1,16.7,16.7v47.8
		c0,7.9-2.8,11.8-7.9,13.7C291,99,293.6,102.4,293.6,109.1z M274.3,31.3h-6.4v60.6h6c4.1,0,5.6-1.9,5.6-5.6V36.4
		C279.5,33,278,31.3,274.3,31.3z"/>
	<path class="st0" d="M312.3,42.9l0.9,56.3v69.8h-11.8v-150h20.6l8.6,108.6l8.8-108.6H360v150h-13.7V99.2l0.9-52.9l-10.7,122.8
		h-13.3L312.3,42.9z"/>
	<path class="st0" d="M395.4,169.1l-1.7-22.7H380l-1.5,22.7h-12.9l12.6-150.2h18.2l12.4,150.2H395.4z M380.8,134.4h12l-6-84
		L380.8,134.4z"/>
	<path class="st0" d="M440.8,169.1L425.4,58.3l1.3,42.2l0.2,68.6h-12.4v-150h16.1L444.9,123l-1.3-36l-0.2-67.9h12.2v150H440.8z"/>
	<path class="st1" d="M472.5,169.1h-10.3v-19.5h10.3V169.1z"/>
</g>
<g>
</g>
<g>
</g>
<g>
</g>
<g>
</g>
<g>
</g>
<g>
</g>
</svg>
